{
.appVersion = "1075";
DisplayStrings = (
"A B C D E F G H I J K L M N O P Q R S T U V W X Y Z",
"EARTH WRITING  SURTSEY ISLAND  "
);
date = "2017-12-08 14:08:30 +0000";
familyName = "Nouvelle police";
fontMaster = (
{
ascender = 800;
capHeight = 700;
descender = -200;
guideLines = (
{
position = "{488, -143}";
}
);
id = "0976EF58-E9BF-471C-8466-D2D06D69E717";
xHeight = 500;
}
);
glyphs = (
{
glyphname = A;
lastChange = "2017-12-09 18:05:35 +0000";
layers = (
{
annotations = (
{
position = "{617, 8}";
text = "0";
type = Text;
},
{
position = "{621.543, 507.276}";
text = "200";
type = Text;
},
{
position = "{614, 714}";
text = "250";
type = Text;
},
{
position = "{876, -513}";
type = Text;
},
{
position = "{806, -271}";
type = Text;
},
{
position = "{1092, -479}";
type = Text;
width = 50;
},
{
position = "{621, -133}";
text = "-150";
type = Text;
},
{
position = "{924, -359}";
type = Text;
},
{
position = "{1026, -589}";
type = Text;
},
{
position = "{954, 25}";
type = Circle;
width = 30;
},
{
position = "{1195.563, -95.316}";
type = Circle;
width = 30;
},
{
position = "{662.555, -393.733}";
type = Plus;
}
);
backgroundImage = {
crop = "{{0, 0}, {943, 391}}";
imagePath = "../../../../Desktop/Capture d’écran 2017-12-08 à 15.12.10.png";
transform = "{4.15327, 0, 0, 4.15327, -210, -873}";
};
layerId = "0976EF58-E9BF-471C-8466-D2D06D69E717";
paths = (
{
closed = 0;
nodes = (
"1.323 -269.266 LINE",
"34.26 -264.362 OFFCURVE",
"65.456 -232.836 OFFCURVE",
"92.022 -214.335 CURVE SMOOTH",
"127.019 -189.963 OFFCURVE",
"169.213 -172.756 OFFCURVE",
"209.969 -160.969 CURVE SMOOTH",
"222.641 -157.304 OFFCURVE",
"237.506 -158.034 OFFCURVE",
"250.508 -155.84 CURVE SMOOTH",
"291.646 -148.898 OFFCURVE",
"330.975 -133.599 OFFCURVE",
"371.585 -126.747 CURVE SMOOTH",
"433.474 -116.303 OFFCURVE",
"493.64 -112.265 OFFCURVE",
"553.012 -95.181 CURVE SMOOTH",
"577.018 -88.273 OFFCURVE",
"599.791 -89.106 OFFCURVE",
"623.523 -78.664 CURVE"
);
},
{
closed = 0;
nodes = (
"46.122 -429.559 LINE",
"68.37 -426.994 OFFCURVE",
"89.568 -416.491 OFFCURVE",
"111.263 -411.525 CURVE SMOOTH",
"159.977 -400.376 OFFCURVE",
"207.529 -392.223 OFFCURVE",
"255.695 -377.487 CURVE SMOOTH",
"272.957 -372.206 OFFCURVE",
"288.813 -357.42 OFFCURVE",
"306.067 -353.677 CURVE SMOOTH",
"315.82 -351.562 OFFCURVE",
"325.207 -350.42 OFFCURVE",
"333.683 -344.424 CURVE SMOOTH",
"387.187 -306.574 OFFCURVE",
"424.648 -253.616 OFFCURVE",
"474.541 -210.549 CURVE SMOOTH",
"506.903 -182.615 OFFCURVE",
"551.816 -167.61 OFFCURVE",
"586.48 -142.5 CURVE SMOOTH",
"608.504 -126.547 OFFCURVE",
"629.055 -108.682 OFFCURVE",
"653.959 -96.079 CURVE"
);
},
{
closed = 0;
nodes = (
"11.116 -288.12 LINE",
"27.013 -278.869 OFFCURVE",
"41.109 -267.336 OFFCURVE",
"56.757 -257.701 CURVE"
);
},
{
closed = 0;
nodes = (
"5.98 -327.95 LINE",
"20.743 -319.677 OFFCURVE",
"34.141 -309.586 OFFCURVE",
"46.979 -298.541 CURVE"
);
},
{
closed = 0;
nodes = (
"2.114 -367.419 LINE",
"13.617 -361.224 OFFCURVE",
"23.733 -353.126 OFFCURVE",
"34.605 -345.912 CURVE"
);
},
{
closed = 0;
nodes = (
"3.232 -395.626 LINE",
"9.942 -394.555 OFFCURVE",
"6.172 -395.716 OFFCURVE",
"14 -390.719 CURVE"
);
},
{
closed = 0;
nodes = (
"20.002 -417.68 LINE",
"40.3 -412.42 OFFCURVE",
"56.934 -397.394 OFFCURVE",
"76.214 -389.39 CURVE"
);
},
{
closed = 0;
nodes = (
"41.933 -373.781 LINE",
"61.369 -366.101 OFFCURVE",
"75.199 -348.605 OFFCURVE",
"95.924 -344.514 CURVE"
);
},
{
closed = 0;
nodes = (
"61.019 -327.374 LINE",
"79.839 -320.003 OFFCURVE",
"90.971 -302.653 OFFCURVE",
"110.382 -297.336 CURVE"
);
},
{
closed = 0;
nodes = (
"73.35 -282.764 LINE",
"93.453 -277.496 OFFCURVE",
"108.987 -260.991 OFFCURVE",
"126.809 -250.907 CURVE"
);
},
{
closed = 0;
nodes = (
"87.353 -238.525 LINE",
"105.212 -227.104 OFFCURVE",
"120.564 -214.179 OFFCURVE",
"137.149 -201.196 CURVE"
);
},
{
closed = 0;
nodes = (
"164.968 -189.278 LINE",
"182.166 -183.113 OFFCURVE",
"196.03 -171.206 OFFCURVE",
"212.836 -164.13 CURVE"
);
},
{
closed = 0;
nodes = (
"150.32 -235.543 LINE",
"168.763 -227.504 OFFCURVE",
"183.269 -210.844 OFFCURVE",
"198.122 -197.643 CURVE"
);
},
{
closed = 0;
nodes = (
"138.259 -280.577 LINE",
"155.277 -269.072 OFFCURVE",
"170.497 -255.31 OFFCURVE",
"188.612 -245.661 CURVE"
);
},
{
closed = 0;
nodes = (
"120.845 -328.058 LINE",
"140.383 -322.081 OFFCURVE",
"155.488 -310.052 OFFCURVE",
"172.056 -298.67 CURVE"
);
},
{
closed = 0;
nodes = (
"104.394 -374.463 LINE",
"123.005 -368.202 OFFCURVE",
"137.908 -352.366 OFFCURVE",
"154.255 -341.661 CURVE"
);
},
{
closed = 0;
nodes = (
"85.192 -416.385 LINE",
"100.131 -406.678 OFFCURVE",
"114.806 -396.143 OFFCURVE",
"130.268 -387.308 CURVE"
);
},
{
closed = 0;
nodes = (
"166.142 -368.722 LINE",
"183.793 -363.779 OFFCURVE",
"199.123 -353.411 OFFCURVE",
"213.126 -341.651 CURVE"
);
},
{
closed = 0;
nodes = (
"181.174 -325.655 LINE",
"198.209 -317.514 OFFCURVE",
"215.07 -306.525 OFFCURVE",
"228.99 -293.653 CURVE"
);
},
{
closed = 0;
nodes = (
"225.418 -369.828 LINE",
"242.544 -359.329 OFFCURVE",
"255.539 -344.121 OFFCURVE",
"273.763 -335.099 CURVE"
);
},
{
closed = 0;
nodes = (
"292.614 -359.257 LINE",
"304.323 -351.004 OFFCURVE",
"314.647 -341.463 OFFCURVE",
"326.19 -332.87 CURVE"
);
},
{
closed = 0;
nodes = (
"349.077 -313.939 LINE",
"366.553 -306.703 OFFCURVE",
"382.899 -290.685 OFFCURVE",
"396.529 -277.365 CURVE"
);
},
{
closed = 0;
nodes = (
"300 -320.064 LINE",
"318.318 -309.191 OFFCURVE",
"333.613 -295.626 OFFCURVE",
"349.656 -281.79 CURVE"
);
},
{
closed = 0;
nodes = (
"241.156 -320.456 LINE",
"260.699 -314.618 OFFCURVE",
"275.499 -298.017 OFFCURVE",
"291.68 -286.141 CURVE"
);
},
{
closed = 0;
nodes = (
"197.52 -277.984 LINE",
"216.145 -269.207 OFFCURVE",
"230.687 -254.839 OFFCURVE",
"248.112 -244.048 CURVE"
);
},
{
closed = 0;
nodes = (
"214.355 -226.778 LINE",
"230.563 -215.155 OFFCURVE",
"244.224 -200.506 OFFCURVE",
"260 -188.351 CURVE"
);
},
{
closed = 0;
nodes = (
"227.942 -184.35 LINE",
"246.42 -176.956 OFFCURVE",
"263.729 -165.039 OFFCURVE",
"283.109 -160.113 CURVE"
);
},
{
closed = 0;
nodes = (
"293.204 -177.938 LINE",
"308.068 -169.332 OFFCURVE",
"324.784 -155.082 OFFCURVE",
"342.354 -152.98 CURVE"
);
},
{
closed = 0;
nodes = (
"310.766 -148.342 LINE",
"328.085 -142.704 OFFCURVE",
"345.276 -135.622 OFFCURVE",
"362.237 -128.949 CURVE"
);
},
{
closed = 0;
nodes = (
"374.235 -139.354 LINE",
"390.037 -134.283 OFFCURVE",
"404.501 -125.171 OFFCURVE",
"419.992 -119.118 CURVE"
);
},
{
closed = 0;
nodes = (
"347.563 -170.218 LINE",
"366.26 -161.97 OFFCURVE",
"382.439 -150.249 OFFCURVE",
"402.08 -144.676 CURVE"
);
},
{
closed = 0;
nodes = (
"272.765 -221.603 LINE",
"289.607 -215.055 OFFCURVE",
"307.07 -203.525 OFFCURVE",
"320.31 -191.046 CURVE"
);
},
{
closed = 0;
nodes = (
"255.169 -274.452 LINE",
"272.166 -261.212 OFFCURVE",
"287.559 -244.593 OFFCURVE",
"307.72 -236.198 CURVE"
);
},
{
closed = 0;
nodes = (
"331.71 -214.46 LINE",
"345.726 -203.445 OFFCURVE",
"361.113 -194.078 OFFCURVE",
"376.756 -185.451 CURVE"
);
},
{
closed = 0;
nodes = (
"314.435 -269.601 LINE",
"330.791 -258.218 OFFCURVE",
"347.372 -245.033 OFFCURVE",
"361.19 -230.574 CURVE"
);
},
{
closed = 0;
nodes = (
"386.324 -210.853 LINE",
"402.097 -197.537 OFFCURVE",
"418.249 -186.663 OFFCURVE",
"437.001 -177.93 CURVE"
);
},
{
closed = 0;
nodes = (
"404.86 -166.241 LINE",
"422.667 -158.283 OFFCURVE",
"441.051 -150.586 OFFCURVE",
"458.032 -141.025 CURVE"
);
},
{
closed = 0;
nodes = (
"372.366 -265.263 LINE",
"389.404 -252.627 OFFCURVE",
"402.575 -236.75 OFFCURVE",
"418.376 -222.896 CURVE"
);
},
{
closed = 0;
nodes = (
"445.008 -200.751 LINE",
"460.516 -192.26 OFFCURVE",
"474.176 -181.512 OFFCURVE",
"488.678 -171.458 CURVE"
);
},
{
closed = 0;
nodes = (
"464.934 -160.906 LINE",
"484.67 -155.106 OFFCURVE",
"500.541 -143.122 OFFCURVE",
"514.668 -128.641 CURVE"
);
},
{
closed = 0;
nodes = (
"431.65 -134.982 LINE",
"448.539 -127.044 OFFCURVE",
"465.261 -122.303 OFFCURVE",
"479.826 -110.766 CURVE"
);
},
{
closed = 0;
nodes = (
"494.069 -128.67 LINE",
"507.485 -119.898 OFFCURVE",
"520.138 -110.618 OFFCURVE",
"533.285 -101.466 CURVE"
);
},
{
closed = 0;
nodes = (
"520.396 -152.954 LINE",
"539.146 -147.757 OFFCURVE",
"555.032 -136.444 OFFCURVE",
"572.141 -127.49 CURVE"
);
},
{
closed = 0;
nodes = (
"542.474 -119.749 LINE",
"562.783 -114.829 OFFCURVE",
"585.35 -101.917 OFFCURVE",
"599.971 -86.684 CURVE"
);
},
{
closed = 0;
nodes = (
"598.526 -112.577 LINE",
"616.261 -104.752 OFFCURVE",
"632.073 -93.097 OFFCURVE",
"649.64 -84.592 CURVE"
);
},
{
closed = 1;
nodes = (
"-3 0 LINE",
"601 0 LINE",
"601 7 LINE",
"-3 7 LINE"
);
}
);
width = 600;
}
);
unicode = 0041;
},
{
glyphname = B;
lastChange = "2017-12-10 09:58:26 +0000";
layers = (
{
backgroundImage = {
crop = "{{0, 0}, {943, 391}}";
imagePath = "../../../../Desktop/Capture d’écran 2017-12-08 à 15.12.10.png";
transform = "{4.153, 0, 0, 4.153, -870, -873}";
};
layerId = "0976EF58-E9BF-471C-8466-D2D06D69E717";
paths = (
{
closed = 0;
nodes = (
"-0.471 -72.661 LINE",
"46.035 -66.979 OFFCURVE",
"77.544 -39.777 OFFCURVE",
"117.73 -20.947 CURVE SMOOTH",
"144.872 -8.228 OFFCURVE",
"179.513 -2.282 OFFCURVE",
"208.566 4.332 CURVE SMOOTH",
"215.062 5.811 OFFCURVE",
"284.797 6.616 OFFCURVE",
"285.546 7.319 CURVE SMOOTH",
"289.174 10.718 OFFCURVE",
"284.83 25.941 OFFCURVE",
"285.546 32.718 CURVE SMOOTH",
"288.13 57.161 OFFCURVE",
"294.248 83.928 OFFCURVE",
"299.013 108.097 CURVE SMOOTH",
"304.575 136.306 OFFCURVE",
"303.322 165.675 OFFCURVE",
"309.587 193.849 CURVE SMOOTH",
"323.025 254.276 OFFCURVE",
"341.504 314.238 OFFCURVE",
"357.683 373.679 CURVE SMOOTH",
"363.609 395.453 OFFCURVE",
"367.339 451.604 OFFCURVE",
"389.903 463.291 CURVE SMOOTH",
"394.048 465.438 OFFCURVE",
"395.537 457.662 OFFCURVE",
"396.724 455.219 CURVE SMOOTH",
"405.686 436.775 OFFCURVE",
"420.281 423.845 OFFCURVE",
"431.017 406.774 CURVE SMOOTH",
"445.635 383.53 OFFCURVE",
"456.268 357.67 OFFCURVE",
"468.498 333.211 CURVE SMOOTH",
"494.345 281.517 OFFCURVE",
"527.678 234.219 OFFCURVE",
"555.5 183.705 CURVE SMOOTH",
"560.758 174.157 OFFCURVE",
"571.002 169.794 OFFCURVE",
"577.792 161.332 CURVE SMOOTH",
"593.028 142.345 OFFCURVE",
"606.994 121.421 OFFCURVE",
"621.34 101.667 CURVE"
);
},
{
closed = 0;
nodes = (
"1.318 -113.25 LINE",
"67.28 -113.25 OFFCURVE",
"117.418 -55.666 OFFCURVE",
"176.023 -37.145 CURVE SMOOTH",
"210.587 -26.221 OFFCURVE",
"243.664 -22.817 OFFCURVE",
"280.044 -22.817 CURVE"
);
},
{
closed = 0;
nodes = (
"223.338 -39.297 LINE",
"223.338 -56.519 OFFCURVE",
"310.778 -146.392 OFFCURVE",
"327.682 -161.655 CURVE SMOOTH",
"362.691 -193.265 OFFCURVE",
"398.047 -226.611 OFFCURVE",
"435.712 -254.859 CURVE SMOOTH",
"464.784 -276.663 OFFCURVE",
"499.703 -291.44 OFFCURVE",
"526.01 -315.318 CURVE SMOOTH",
"530.322 -319.232 OFFCURVE",
"534.407 -333.66 OFFCURVE",
"539.975 -340.503 CURVE SMOOTH",
"567.311 -374.099 OFFCURVE",
"591.311 -400.636 OFFCURVE",
"614.345 -435.524 CURVE"
);
},
{
closed = 0;
nodes = (
"462.035 352.612 LINE",
"511.156 332.966 OFFCURVE",
"556.095 323.664 OFFCURVE",
"609.152 320.668 CURVE"
);
},
{
closed = 0;
nodes = (
"393.915 440.113 LINE",
"397.418 423.214 OFFCURVE",
"408.49 410.705 OFFCURVE",
"418.542 397.013 CURVE"
);
},
{
closed = 0;
nodes = (
"384.986 407.435 LINE",
"386.718 392.201 OFFCURVE",
"396.996 375.485 OFFCURVE",
"404.07 361.726 CURVE"
);
},
{
closed = 0;
nodes = (
"422.166 382.76 LINE",
"431.541 379.883 OFFCURVE",
"440.123 375.249 OFFCURVE",
"449.482 372.447 CURVE"
);
},
{
closed = 0;
nodes = (
"431.588 364.132 LINE",
"424.496 353.661 OFFCURVE",
"417.934 343.485 OFFCURVE",
"414.237 331.402 CURVE"
);
},
{
closed = 0;
nodes = (
"362.214 338.154 LINE",
"375.305 342.642 OFFCURVE",
"386.944 352.064 OFFCURVE",
"400.037 357.51 CURVE"
);
},
{
closed = 0;
nodes = (
"360.525 381.763 LINE",
"366.583 376.401 OFFCURVE",
"372.627 371.272 OFFCURVE",
"379.116 366.438 CURVE"
);
},
{
closed = 0;
nodes = (
"394.759 344.963 LINE",
"396.123 335.769 OFFCURVE",
"399.302 327.416 OFFCURVE",
"403.212 319.027 CURVE"
);
},
{
closed = 0;
nodes = (
"356.519 329.788 LINE",
"361.246 321.608 OFFCURVE",
"366.331 313.892 OFFCURVE",
"371.755 306.205 CURVE"
);
},
{
closed = 0;
nodes = (
"440.546 343.632 LINE",
"452.135 337.096 OFFCURVE",
"462.362 328.645 OFFCURVE",
"474.134 322.487 CURVE"
);
},
{
closed = 0;
nodes = (
"391.654 300.107 LINE",
"410.403 303.263 OFFCURVE",
"429.424 308.586 OFFCURVE",
"446.771 316.532 CURVE"
);
},
{
closed = 0;
nodes = (
"373.882 284.571 LINE",
"387.639 279.128 OFFCURVE",
"400.154 274.27 OFFCURVE",
"414.58 271.119 CURVE"
);
},
{
closed = 0;
nodes = (
"338.11 300.436 LINE",
"347.035 291.078 OFFCURVE",
"351.489 283.339 OFFCURVE",
"356.139 271.333 CURVE"
);
},
{
closed = 0;
nodes = (
"329.023 248.135 LINE",
"338.771 252.732 OFFCURVE",
"347.443 259.084 OFFCURVE",
"356.94 264.24 CURVE"
);
},
{
closed = 0;
nodes = (
"347.224 250.469 LINE",
"349.024 239.076 OFFCURVE",
"349.931 229.929 OFFCURVE",
"356.3 220.405 CURVE"
);
},
{
closed = 0;
nodes = (
"364.374 230.105 LINE",
"367.787 243.739 OFFCURVE",
"375.592 253.757 OFFCURVE",
"383.807 264.904 CURVE"
);
},
{
closed = 0;
nodes = (
"393.397 245.796 LINE",
"407.234 241.296 OFFCURVE",
"418.032 231.849 OFFCURVE",
"428.898 222.502 CURVE"
);
},
{
closed = 0;
nodes = (
"427.725 291.004 LINE",
"427.389 279.888 OFFCURVE",
"426.544 269.037 OFFCURVE",
"425.143 258.049 CURVE"
);
},
{
closed = 0;
nodes = (
"444.289 296.624 LINE",
"451.461 283.524 OFFCURVE",
"461.118 271.938 OFFCURVE",
"468.381 258.71 CURVE"
);
},
{
closed = 0;
nodes = (
"462.019 288.224 LINE",
"468.952 293.831 OFFCURVE",
"475.856 299.379 OFFCURVE",
"482.98 304.758 CURVE"
);
},
{
closed = 0;
nodes = (
"432.693 264.222 LINE",
"439.477 250.315 OFFCURVE",
"446.173 236.377 OFFCURVE",
"453.022 222.506 CURVE"
);
},
{
closed = 0;
nodes = (
"487.508 252.618 LINE",
"496.477 253.343 OFFCURVE",
"503.649 256.508 OFFCURVE",
"512.117 260.042 CURVE"
);
},
{
closed = 0;
nodes = (
"469.088 235.606 LINE",
"483.235 234.452 OFFCURVE",
"495.62 227.522 OFFCURVE",
"508.591 221.956 CURVE"
);
},
{
closed = 0;
nodes = (
"518.38 209.207 LINE",
"518.514 219.602 OFFCURVE",
"520.039 229.068 OFFCURVE",
"523.547 238.879 CURVE"
);
},
{
closed = 0;
nodes = (
"464.405 184.826 LINE",
"467.753 196.357 OFFCURVE",
"475.205 206.565 OFFCURVE",
"480.196 217.477 CURVE"
);
},
{
closed = 0;
nodes = (
"416.921 194.118 LINE",
"431.238 200.915 OFFCURVE",
"442.531 211.686 OFFCURVE",
"455.837 220.073 CURVE"
);
},
{
closed = 0;
nodes = (
"344.869 201.605 LINE",
"364.142 204.543 OFFCURVE",
"381.849 214.86 OFFCURVE",
"400.735 219.633 CURVE"
);
},
{
closed = 0;
nodes = (
"381.16 198.495 LINE",
"381.16 185.839 OFFCURVE",
"379.449 174.881 OFFCURVE",
"376.684 162.529 CURVE"
);
},
{
closed = 0;
nodes = (
"327.783 189.548 LINE",
"342.173 184.771 OFFCURVE",
"353.312 179.98 OFFCURVE",
"365.313 170.657 CURVE"
);
},
{
closed = 0;
nodes = (
"318.219 136.623 LINE",
"323.557 146.955 OFFCURVE",
"329.559 156.825 OFFCURVE",
"334.965 167.087 CURVE"
);
},
{
closed = 0;
nodes = (
"346.277 148.995 LINE",
"359.976 141.226 OFFCURVE",
"370.58 135.226 OFFCURVE",
"381.512 124.317 CURVE"
);
},
{
closed = 0;
nodes = (
"385.353 166.395 LINE",
"392.828 154.01 OFFCURVE",
"398.94 141.257 OFFCURVE",
"404.408 127.849 CURVE"
);
},
{
closed = 0;
nodes = (
"396.87 198.439 LINE",
"403.193 185.713 OFFCURVE",
"411.692 174.312 OFFCURVE",
"420.226 162.988 CURVE"
);
},
{
closed = 0;
nodes = (
"444.624 201.903 LINE",
"445.239 191.312 OFFCURVE",
"446.602 181.126 OFFCURVE",
"449.641 170.991 CURVE"
);
},
{
closed = 0;
nodes = (
"490.11 199.115 LINE",
"501.6 189.169 OFFCURVE",
"513.326 181.047 OFFCURVE",
"526.854 174.35 CURVE"
);
},
{
closed = 0;
nodes = (
"530.419 214.871 LINE",
"535.207 201.314 OFFCURVE",
"541.44 187.185 OFFCURVE",
"549.566 175.289 CURVE"
);
},
{
closed = 0;
nodes = (
"443.803 155.57 LINE",
"462.113 155.57 OFFCURVE",
"478.498 165.317 OFFCURVE",
"496.653 167.49 CURVE"
);
},
{
closed = 0;
nodes = (
"515.127 147.018 LINE",
"528.754 153.96 OFFCURVE",
"541.757 161.799 OFFCURVE",
"555.384 168.785 CURVE"
);
},
{
closed = 0;
nodes = (
"541.502 153.635 LINE",
"542.102 143.084 OFFCURVE",
"544.942 133.005 OFFCURVE",
"548.754 123.178 CURVE"
);
},
{
closed = 0;
nodes = (
"555.191 133.627 LINE",
"562.194 144.627 OFFCURVE",
"569.065 154.775 OFFCURVE",
"573.903 167.028 CURVE"
);
},
{
closed = 0;
nodes = (
"302.963 105.842 LINE",
"319.716 109.201 OFFCURVE",
"335.46 115.226 OFFCURVE",
"351.215 121.766 CURVE"
);
},
{
closed = 0;
nodes = (
"331.037 96.941 LINE",
"331.037 86.863 OFFCURVE",
"330.897 77.899 OFFCURVE",
"328.999 68.034 CURVE"
);
},
{
closed = 0;
nodes = (
"295.226 84.753 LINE",
"302.74 81.053 OFFCURVE",
"309.809 77.021 OFFCURVE",
"317.497 73.637 CURVE"
);
},
{
closed = 0;
nodes = (
"368.857 97.083 LINE",
"380.886 104.187 OFFCURVE",
"392.983 110.99 OFFCURVE",
"405.768 116.639 CURVE"
);
},
{
closed = 0;
nodes = (
"397.516 104.149 LINE",
"397.989 92.022 OFFCURVE",
"400.716 80.659 OFFCURVE",
"407.083 70.312 CURVE"
);
},
{
closed = 0;
nodes = (
"415.339 86.925 LINE",
"420.714 97.488 OFFCURVE",
"428.701 106.165 OFFCURVE",
"433.862 116.956 CURVE"
);
},
{
closed = 0;
nodes = (
"425.523 137.654 LINE",
"439.369 135.216 OFFCURVE",
"448.908 127.46 OFFCURVE",
"461.293 121.323 CURVE"
);
},
{
closed = 0;
nodes = (
"477.062 148.978 LINE",
"477.062 136.272 OFFCURVE",
"473.753 124.671 OFFCURVE",
"471.703 112.227 CURVE"
);
},
{
closed = 0;
nodes = (
"494.982 151.86 LINE",
"501.787 137.923 OFFCURVE",
"510.388 125.189 OFFCURVE",
"517.168 111.178 CURVE"
);
},
{
closed = 0;
nodes = (
"485.564 116.163 LINE",
"490.811 103.284 OFFCURVE",
"496.833 91.638 OFFCURVE",
"504.739 80.291 CURVE"
);
},
{
closed = 0;
nodes = (
"439.467 103.619 LINE",
"456.032 98.481 OFFCURVE",
"468.247 86.707 OFFCURVE",
"480.564 75.008 CURVE"
);
},
{
closed = 0;
nodes = (
"394.724 58.444 LINE",
"413.029 63.203 OFFCURVE",
"434.039 66.998 OFFCURVE",
"451.504 74.606 CURVE"
);
},
{
closed = 0;
nodes = (
"348.549 101.381 LINE",
"357.696 86.449 OFFCURVE",
"368.098 72.26 OFFCURVE",
"377.328 57.341 CURVE"
);
},
{
closed = 0;
nodes = (
"341.429 64.347 LINE",
"347.072 52.382 OFFCURVE",
"352.692 40.422 OFFCURVE",
"358.959 28.776 CURVE"
);
},
{
closed = 0;
nodes = (
"296.422 52.319 LINE",
"309.334 44.215 OFFCURVE",
"320.485 33.659 OFFCURVE",
"333.5 25.864 CURVE"
);
},
{
closed = 0;
nodes = (
"376.929 41.22 LINE",
"388.812 37.028 OFFCURVE",
"400.168 31.949 OFFCURVE",
"412.059 27.828 CURVE"
);
},
{
closed = 0;
nodes = (
"428.689 49.894 LINE",
"428.689 37.852 OFFCURVE",
"426.745 27.103 OFFCURVE",
"423.9 15.473 CURVE"
);
},
{
closed = 0;
nodes = (
"446.957 51.261 LINE",
"454.13 39.511 OFFCURVE",
"460.612 27.85 OFFCURVE",
"469.556 17.39 CURVE"
);
},
{
closed = 0;
nodes = (
"465.781 46.665 LINE",
"478.998 55.09 OFFCURVE",
"489.95 65.445 OFFCURVE",
"504.317 72.133 CURVE"
);
},
{
closed = 0;
nodes = (
"531.41 71.923 LINE",
"525.058 60.91 OFFCURVE",
"518.465 49.934 OFFCURVE",
"512.58 38.682 CURVE"
);
},
{
closed = 0;
nodes = (
"520.161 91.402 LINE",
"534.114 84.793 OFFCURVE",
"545.502 76.826 OFFCURVE",
"561.127 76.598 CURVE"
);
},
{
closed = 0;
nodes = (
"538.102 106.725 LINE",
"556.306 111.019 OFFCURVE",
"573.349 119.111 OFFCURVE",
"591.414 123.35 CURVE"
);
},
{
closed = 0;
nodes = (
"590.373 101.049 LINE",
"599.641 89.888 OFFCURVE",
"608.756 78.638 OFFCURVE",
"617.793 67.301 CURVE"
);
},
{
closed = 0;
nodes = (
"608.749 97.789 LINE",
"616.376 103.115 OFFCURVE",
"612.971 100.401 OFFCURVE",
"619.083 105.778 CURVE"
);
},
{
closed = 0;
nodes = (
"632.856 58.479 LINE",
"638.075 59.269 OFFCURVE",
"641.668 60.074 OFFCURVE",
"646.978 60.67 CURVE"
);
},
{
closed = 0;
nodes = (
"619.191 45.419 LINE",
"633.288 42.311 OFFCURVE",
"646.068 38.316 OFFCURVE",
"658.751 31.531 CURVE"
);
},
{
closed = 0;
nodes = (
"540.549 56.453 LINE",
"551.616 45.925 OFFCURVE",
"563.221 38.21 OFFCURVE",
"576.149 30.379 CURVE"
);
},
{
closed = 0;
nodes = (
"581.31 64.772 LINE",
"586.585 53.944 OFFCURVE",
"592.773 43.499 OFFCURVE",
"597.116 32.279 CURVE"
);
},
{
closed = 0;
nodes = (
"492.473 10.637 LINE",
"512.845 12.401 OFFCURVE",
"526.582 19.517 OFFCURVE",
"545.399 25.195 CURVE"
);
},
{
closed = 0;
nodes = (
"561.501 -1.348 LINE",
"575.555 6.207 OFFCURVE",
"589.037 14.508 OFFCURVE",
"602.458 23.109 CURVE"
);
},
{
closed = 0;
nodes = (
"541.797 4.295 LINE",
"553.415 -6.051 OFFCURVE",
"563.502 -18.12 OFFCURVE",
"574.363 -29.287 CURVE"
);
},
{
closed = 0;
nodes = (
"591.581 9.342 LINE",
"591.77 -3.015 OFFCURVE",
"593.449 -13.655 OFFCURVE",
"598.69 -24.952 CURVE"
);
},
{
closed = 0;
nodes = (
"286.85 18.885 LINE",
"296.546 18.885 OFFCURVE",
"302.018 20.74 OFFCURVE",
"310.784 25.191 CURVE"
);
},
{
closed = 0;
nodes = (
"233.155 -8.282 LINE",
"245.345 -13.385 OFFCURVE",
"257.009 -19.191 OFFCURVE",
"269.239 -24.273 CURVE"
);
},
{
closed = 0;
nodes = (
"301.83 5.643 LINE",
"319.384 -21.746 OFFCURVE",
"312.156 -11.701 OFFCURVE",
"332.483 -35.903 CURVE"
);
},
{
closed = 0;
nodes = (
"284.824 1.402 LINE",
"284.824 -9.167 OFFCURVE",
"284.824 -19.735 OFFCURVE",
"284.824 -30.304 CURVE"
);
},
{
closed = 0;
nodes = (
"290.041 -31.604 LINE",
"295.557 -44.899 OFFCURVE",
"301.433 -57.573 OFFCURVE",
"307.445 -70.791 CURVE"
);
},
{
closed = 0;
nodes = (
"251.69 -47.647 LINE",
"275.019 -58.623 OFFCURVE",
"266.983 -54.583 OFFCURVE",
"292.281 -76.757 CURVE"
);
},
{
closed = 0;
nodes = (
"329.588 -56.447 LINE",
"341.39 -61.651 OFFCURVE",
"351.422 -65.707 OFFCURVE",
"363.13 -70.216 CURVE"
);
},
{
closed = 0;
nodes = (
"333.501 -77.43 LINE",
"329.914 -94.057 OFFCURVE",
"329.724 -93.709 OFFCURVE",
"323.092 -109.324 CURVE"
);
},
{
closed = 0;
nodes = (
"346.048 -93.683 LINE",
"361.963 -100.981 OFFCURVE",
"374.058 -107.486 OFFCURVE",
"389.798 -116.258 CURVE"
);
},
{
closed = 0;
nodes = (
"314.589 -133.827 LINE",
"324.964 -130.322 OFFCURVE",
"335.836 -126.467 OFFCURVE",
"345.316 -121.029 CURVE"
);
},
{
closed = 0;
nodes = (
"376.989 -139.83 LINE",
"386.129 -137.508 OFFCURVE",
"392.848 -133.261 OFFCURVE",
"400.678 -127.852 CURVE"
);
},
{
closed = 0;
nodes = (
"348.196 -141.911 LINE",
"360.271 -151.565 OFFCURVE",
"370.31 -162.877 OFFCURVE",
"378.934 -175.62 CURVE"
);
},
{
closed = 0;
nodes = (
"323.796 3.807 LINE",
"333.48 10.059 OFFCURVE",
"342.984 15.641 OFFCURVE",
"351.284 23.682 CURVE"
);
},
{
closed = 0;
nodes = (
"348.213 9.497 LINE",
"348.775 -3.493 OFFCURVE",
"352.223 -11.844 OFFCURVE",
"358.729 -23.233 CURVE"
);
},
{
closed = 0;
nodes = (
"369.498 -10.719 LINE",
"374.918 1.529 OFFCURVE",
"383.073 10.931 OFFCURVE",
"385.662 24.283 CURVE"
);
},
{
closed = 0;
nodes = (
"394.679 5.296 LINE",
"407.093 -4.724 OFFCURVE",
"418.962 -14.813 OFFCURVE",
"432.508 -23.231 CURVE"
);
},
{
closed = 0;
nodes = (
"353.858 -41.746 LINE",
"373.078 -40.206 OFFCURVE",
"384.852 -31.288 OFFCURVE",
"400.75 -22.426 CURVE"
);
},
{
closed = 0;
nodes = (
"434.016 20.171 LINE",
"440.134 6.294 OFFCURVE",
"447.71 -6.381 OFFCURVE",
"455.517 -19.331 CURVE"
);
},
{
closed = 0;
nodes = (
"419.499 -48.176 LINE",
"431.21 -39.61 OFFCURVE",
"441.881 -31.729 OFFCURVE",
"454.593 -24.83 CURVE"
);
},
{
closed = 0;
nodes = (
"472.79 -5.619 LINE",
"495.618 -13.022 OFFCURVE",
"484.574 -9.219 OFFCURVE",
"505.942 -16.967 CURVE"
);
},
{
closed = 0;
nodes = (
"524.485 0.794 LINE",
"524.485 -9.845 OFFCURVE",
"524.113 -19.979 OFFCURVE",
"522.716 -30.551 CURVE"
);
},
{
closed = 0;
nodes = (
"481.858 -26.907 LINE",
"475.675 -38.626 OFFCURVE",
"470.008 -48.638 OFFCURVE",
"466.924 -61.593 CURVE"
);
},
{
closed = 0;
nodes = (
"446.313 -40.919 LINE",
"449.932 -56.963 OFFCURVE",
"449.95 -58.678 OFFCURVE",
"455.009 -72.115 CURVE"
);
},
{
closed = 0;
nodes = (
"440.093 -89.26 LINE",
"462.026 -85.787 OFFCURVE",
"482.82 -78.825 OFFCURVE",
"503.819 -71.813 CURVE"
);
},
{
closed = 0;
nodes = (
"492.36 -42.627 LINE",
"506.113 -51.784 OFFCURVE",
"518.056 -62.522 OFFCURVE",
"533.385 -68.874 CURVE"
);
},
{
closed = 0;
nodes = (
"533.554 -28.596 LINE",
"544.11 -51.003 OFFCURVE",
"538.443 -39.481 OFFCURVE",
"550.645 -63.119 CURVE"
);
},
{
closed = 0;
nodes = (
"566.784 -54.889 LINE",
"577.428 -56.114 OFFCURVE",
"587.406 -59.02 OFFCURVE",
"597.708 -61.843 CURVE"
);
},
{
closed = 0;
nodes = (
"577.731 -72.939 LINE",
"575.634 -83.516 OFFCURVE",
"569.87 -93.268 OFFCURVE",
"565.499 -103.05 CURVE"
);
},
{
closed = 0;
nodes = (
"516.902 -95.508 LINE",
"526.969 -89.194 OFFCURVE",
"536.135 -81.971 OFFCURVE",
"545.767 -75.023 CURVE"
);
},
{
closed = 0;
nodes = (
"543.444 -84.516 LINE",
"545.239 -97.338 OFFCURVE",
"548.851 -108.382 OFFCURVE",
"554.443 -120.221 CURVE"
);
},
{
closed = 0;
nodes = (
"493.436 -93.566 LINE",
"503.737 -104.211 OFFCURVE",
"512.014 -116.421 OFFCURVE",
"522.449 -126.782 CURVE"
);
},
{
closed = 0;
nodes = (
"478.21 -91.638 LINE",
"478.21 -102.952 OFFCURVE",
"477.813 -113.927 OFFCURVE",
"476.339 -125.156 CURVE"
);
},
{
closed = 0;
nodes = (
"429.395 -102.236 LINE",
"441.302 -106.995 OFFCURVE",
"453.245 -111.625 OFFCURVE",
"465.132 -116.436 CURVE"
);
},
{
closed = 0;
nodes = (
"444.698 -138.782 LINE",
"455.841 -148.514 OFFCURVE",
"465.993 -157.251 OFFCURVE",
"478.748 -164.599 CURVE"
);
},
{
closed = 0;
nodes = (
"486.67 -124.432 LINE",
"492.741 -137.788 OFFCURVE",
"497.673 -150.775 OFFCURVE",
"504.75 -163.701 CURVE"
);
},
{
closed = 0;
nodes = (
"535.195 -138.996 LINE",
"552.926 -138.996 OFFCURVE",
"576.888 -127.818 OFFCURVE",
"594.023 -121.76 CURVE"
);
},
{
closed = 0;
nodes = (
"526.423 -153.375 LINE",
"537.995 -155.847 OFFCURVE",
"548.584 -159.249 OFFCURVE",
"559.665 -163.163 CURVE"
);
},
{
closed = 0;
nodes = (
"576.821 -141.926 LINE",
"576.821 -154.498 OFFCURVE",
"576.324 -164.946 OFFCURVE",
"573.032 -177.356 CURVE"
);
},
{
closed = 0;
nodes = (
"583.497 -172.786 LINE",
"585.477 -184.789 OFFCURVE",
"590.673 -195.009 OFFCURVE",
"596.022 -205.824 CURVE"
);
},
{
closed = 0;
nodes = (
"545.979 -189.597 LINE",
"557.01 -196.973 OFFCURVE",
"567.248 -204.302 OFFCURVE",
"577.744 -212.326 CURVE"
);
},
{
closed = 0;
nodes = (
"531.937 -171.748 LINE",
"525.737 -183.865 OFFCURVE",
"518.152 -194.893 OFFCURVE",
"513.134 -207.623 CURVE"
);
},
{
closed = 0;
nodes = (
"496.503 -185.76 LINE",
"497.814 -195.842 OFFCURVE",
"499.974 -205.615 OFFCURVE",
"502.526 -215.441 CURVE"
);
},
{
closed = 0;
nodes = (
"469.963 -191.771 LINE",
"482.199 -182.802 OFFCURVE",
"493.512 -173.345 OFFCURVE",
"507.107 -166.585 CURVE"
);
},
{
closed = 0;
nodes = (
"397.236 -183.49 LINE",
"414.081 -180.84 OFFCURVE",
"430.428 -176.138 OFFCURVE",
"447.218 -173.66 CURVE"
);
},
{
closed = 0;
nodes = (
"449.013 -187.637 LINE",
"455.638 -199.408 OFFCURVE",
"458.433 -203.463 OFFCURVE",
"466.212 -215.523 CURVE"
);
},
{
closed = 0;
nodes = (
"429.595 -191.433 LINE",
"429.595 -201.498 OFFCURVE",
"429.708 -211.531 OFFCURVE",
"429.155 -221.583 CURVE"
);
},
{
closed = 0;
nodes = (
"397.993 -137.961 LINE",
"400.076 -151.233 OFFCURVE",
"401.649 -161.399 OFFCURVE",
"408.572 -172.747 CURVE"
);
},
{
closed = 0;
nodes = (
"417.268 -152.637 LINE",
"422.755 -140.283 OFFCURVE",
"426.513 -133.715 OFFCURVE",
"437.102 -125.701 CURVE"
);
},
{
closed = 0;
nodes = (
"387.513 -77.395 LINE",
"394.037 -90.483 OFFCURVE",
"399.157 -102.896 OFFCURVE",
"404.125 -116.59 CURVE"
);
},
{
closed = 0;
nodes = (
"375.077 -78.608 LINE",
"378.057 -66.896 OFFCURVE",
"380.426 -55.464 OFFCURVE",
"382.582 -43.601 CURVE"
);
}
);
width = 600;
}
);
unicode = 0042;
},
{
glyphname = C;
lastChange = "2017-12-09 18:55:11 +0000";
layers = (
{
backgroundImage = {
crop = "{{0, 0}, {943, 391}}";
imagePath = "../../../../Desktop/Capture d’écran 2017-12-08 à 15.12.10.png";
transform = "{4.153, 0, 0, 4.153, -1464, -873}";
};
layerId = "0976EF58-E9BF-471C-8466-D2D06D69E717";
paths = (
{
closed = 0;
nodes = (
"5.126 134.345 LINE",
"14.232 121.937 OFFCURVE",
"24.2 109.368 OFFCURVE",
"34.898 98.72 CURVE SMOOTH",
"52.413 81.285 OFFCURVE",
"83.803 -3.713 OFFCURVE",
"106.324 -3.713 CURVE SMOOTH",
"141.809 -3.713 OFFCURVE",
"220.053 137.076 OFFCURVE",
"235.984 153.152 CURVE SMOOTH",
"279.56 197.126 OFFCURVE",
"305.913 259.485 OFFCURVE",
"341.794 309.359 CURVE SMOOTH",
"355.475 328.373 OFFCURVE",
"370.845 359.418 OFFCURVE",
"396.74 359.418 CURVE SMOOTH",
"397.837 359.418 OFFCURVE",
"398.704 359.691 OFFCURVE",
"399.011 360.669 CURVE SMOOTH",
"401.602 368.917 OFFCURVE",
"399.475 374.713 OFFCURVE",
"407.783 381.038 CURVE SMOOTH",
"414.044 385.804 OFFCURVE",
"432.008 383.091 OFFCURVE",
"440.34 386.796 CURVE SMOOTH",
"448.923 390.612 OFFCURVE",
"469.197 405.569 OFFCURVE",
"479.771 399.536 CURVE SMOOTH",
"515.707 379.034 OFFCURVE",
"525.385 331.295 OFFCURVE",
"556.294 305.538 CURVE SMOOTH",
"582.796 283.453 OFFCURVE",
"607.523 261.334 OFFCURVE",
"626.829 232.002 CURVE"
);
},
{
closed = 0;
nodes = (
"0.054 321.695 LINE",
"7.635 321.695 OFFCURVE",
"17.534 320.467 OFFCURVE",
"26.948 320.467 CURVE SMOOTH",
"34.011 320.467 OFFCURVE",
"40.8 321.159 OFFCURVE",
"46.131 323.579 CURVE SMOOTH",
"48.485 324.647 OFFCURVE",
"72.871 343.137 OFFCURVE",
"73.603 341.673 CURVE SMOOTH",
"79.691 329.498 OFFCURVE",
"80.702 312.431 OFFCURVE",
"87.15 299.632 CURVE SMOOTH",
"92.682 288.653 OFFCURVE",
"100.791 280.017 OFFCURVE",
"104.613 268.313 CURVE SMOOTH",
"107.799 258.554 OFFCURVE",
"108.675 247.47 OFFCURVE",
"108.675 236.158 CURVE SMOOTH",
"108.675 222.354 OFFCURVE",
"107.371 208.209 OFFCURVE",
"107.371 195.719 CURVE SMOOTH",
"107.371 124.796 OFFCURVE",
"103.415 54.492 OFFCURVE",
"103.415 -16.373 CURVE"
);
},
{
closed = 0;
nodes = (
"110.384 249.115 LINE",
"112.256 263.355 OFFCURVE",
"127.445 287.718 OFFCURVE",
"135.582 300.278 CURVE SMOOTH",
"141.773 309.833 OFFCURVE",
"141.746 322.647 OFFCURVE",
"147.193 330.817 CURVE SMOOTH",
"151.116 336.701 OFFCURVE",
"159.43 338.758 OFFCURVE",
"169.952 338.758 CURVE SMOOTH",
"197.535 338.758 OFFCURVE",
"240.284 324.623 OFFCURVE",
"258.814 328.287 CURVE SMOOTH",
"283.132 333.096 OFFCURVE",
"309.637 337.596 OFFCURVE",
"335.788 337.596 CURVE SMOOTH",
"344.768 337.596 OFFCURVE",
"353.706 337.065 OFFCURVE",
"362.499 335.835 CURVE"
);
},
{
closed = 0;
nodes = (
"78.618 331.275 LINE",
"94.538 331.275 OFFCURVE",
"95.264 326.226 OFFCURVE",
"107.776 318.51 CURVE SMOOTH",
"117.073 312.776 OFFCURVE",
"116.968 325.983 OFFCURVE",
"119.615 325.983 CURVE SMOOTH",
"120.751 325.983 OFFCURVE",
"122.394 323.548 OFFCURVE",
"125.507 316.132 CURVE SMOOTH",
"128.725 308.467 OFFCURVE",
"131.009 300.687 OFFCURVE",
"134.63 293.149 CURVE"
);
},
{
closed = 0;
nodes = (
"104.396 -13.694 LINE",
"104.396 -71.389 OFFCURVE",
"105.735 -129.363 OFFCURVE",
"105.735 -187.255 CURVE SMOOTH",
"105.735 -225.403 OFFCURVE",
"105.153 -263.515 OFFCURVE",
"103.224 -301.488 CURVE"
);
},
{
closed = 1;
nodes = (
"106 -263 LINE",
"108 -244 OFFCURVE",
"136.909 -225.763 OFFCURVE",
"150.147 -210.537 CURVE SMOOTH",
"161.409 -197.585 OFFCURVE",
"158.297 -177.08 OFFCURVE",
"164.612 -161.12 CURVE SMOOTH",
"174.671 -135.696 OFFCURVE",
"229.626 -14.775 OFFCURVE",
"244.076 -10.217 CURVE SMOOTH",
"248.91 -8.693 OFFCURVE",
"243.643 -20.345 OFFCURVE",
"243.411 -25.407 CURVE SMOOTH",
"243.238 -29.171 OFFCURVE",
"247.894 -33.739 OFFCURVE",
"247.894 -36.96 CURVE SMOOTH",
"247.894 -37.757 OFFCURVE",
"247.609 -38.471 OFFCURVE",
"246.895 -39.071 CURVE SMOOTH",
"222.774 -59.319 OFFCURVE",
"209.565 -99.269 OFFCURVE",
"197.569 -128.292 CURVE SMOOTH",
"194.129 -136.614 OFFCURVE",
"191.34 -145.31 OFFCURVE",
"188.062 -153.707 CURVE SMOOTH",
"187.086 -156.207 OFFCURVE",
"184.173 -163.026 OFFCURVE",
"186.445 -161.596 CURVE SMOOTH",
"192.703 -157.658 OFFCURVE",
"197.656 -151.853 OFFCURVE",
"203.985 -148.205 CURVE SMOOTH",
"206.039 -147.021 OFFCURVE",
"209.561 -142.318 OFFCURVE",
"209.561 -147.497 CURVE SMOOTH",
"209.561 -170.582 OFFCURVE",
"131.147 -254.551 OFFCURVE",
"106.202 -262.622 CURVE"
);
}
);
width = 600;
}
);
unicode = 0043;
},
{
glyphname = D;
lastChange = "2017-12-10 09:59:22 +0000";
layers = (
{
backgroundImage = {
crop = "{{0, 0}, {943, 391}}";
imagePath = "../../../../Desktop/Capture d’écran 2017-12-08 à 15.12.10.png";
transform = "{4.153, 0, 0, 4.153, -2054, -873}";
};
layerId = "0976EF58-E9BF-471C-8466-D2D06D69E717";
paths = (
{
closed = 0;
nodes = (
"-7.448 295.476 LINE",
"24.115 275.463 OFFCURVE",
"44.626 220.63 OFFCURVE",
"88.228 220.63 CURVE SMOOTH",
"96.98 220.63 OFFCURVE",
"106.309 222.351 OFFCURVE",
"115.104 222.351 CURVE SMOOTH",
"118.997 222.351 OFFCURVE",
"122.786 222.014 OFFCURVE",
"126.374 221.042 CURVE SMOOTH",
"157.529 212.595 OFFCURVE",
"194.978 207.726 OFFCURVE",
"227.285 204.773 CURVE SMOOTH",
"269.141 200.948 OFFCURVE",
"314.486 205.432 OFFCURVE",
"355.013 193.626 CURVE SMOOTH",
"399.703 180.607 OFFCURVE",
"426.283 139.438 OFFCURVE",
"468.643 125.318 CURVE SMOOTH",
"471.677 124.307 OFFCURVE",
"475.277 123.993 OFFCURVE",
"479.087 123.993 CURVE SMOOTH",
"487.048 123.993 OFFCURVE",
"495.927 125.362 OFFCURVE",
"502.469 124.595 CURVE SMOOTH",
"542.961 119.845 OFFCURVE",
"581.786 110.179 OFFCURVE",
"619.424 95.059 CURVE"
);
},
{
closed = 0;
nodes = (
"-7.174 292.916 LINE",
"-2.469 273.433 OFFCURVE",
"22.239 259.038 OFFCURVE",
"33.061 241.309 CURVE SMOOTH",
"56.552 202.821 OFFCURVE",
"100.381 90.48 OFFCURVE",
"157.584 90.48 CURVE SMOOTH",
"161.921 90.48 OFFCURVE",
"166.335 91.126 OFFCURVE",
"170.823 92.498 CURVE SMOOTH",
"183.455 96.362 OFFCURVE",
"195.526 101.43 OFFCURVE",
"206.66 108.642 CURVE SMOOTH",
"224.763 120.367 OFFCURVE",
"270.293 181.831 OFFCURVE",
"300.586 181.831 CURVE SMOOTH",
"304.336 181.831 OFFCURVE",
"307.852 180.89 OFFCURVE",
"311.054 178.795 CURVE SMOOTH",
"360.627 146.369 OFFCURVE",
"363.761 74.852 OFFCURVE",
"395.24 28.231 CURVE SMOOTH",
"425.818 -17.056 OFFCURVE",
"443.341 10.025 OFFCURVE",
"475.9 -19.153 CURVE"
);
},
{
closed = 0;
nodes = (
"499.019 -37.841 LINE",
"514.142 -48.274 OFFCURVE",
"527.581 -58.819 OFFCURVE",
"542.479 -69.322 CURVE"
);
},
{
closed = 0;
nodes = (
"568.939 -96.646 LINE",
"590.875 -106.734 OFFCURVE",
"606.314 -123.343 OFFCURVE",
"623.738 -139.117 CURVE"
);
},
{
closed = 0;
nodes = (
"446.564 -17.457 LINE",
"446.564 -32.529 OFFCURVE",
"446.564 -47.6 OFFCURVE",
"446.564 -62.671 CURVE"
);
},
{
closed = 0;
nodes = (
"446.581 -109.681 LINE",
"443.425 -123.118 OFFCURVE",
"436.597 -131.193 OFFCURVE",
"430.603 -141.852 CURVE"
);
},
{
closed = 0;
nodes = (
"385.971 -186.493 LINE",
"373.909 -193.323 OFFCURVE",
"361.331 -195.82 OFFCURVE",
"361.331 -210.16 CURVE"
);
},
{
closed = 0;
nodes = (
"358.546 -271.684 LINE",
"356.816 -284.514 OFFCURVE",
"351.595 -302.031 OFFCURVE",
"338.62 -306.64 CURVE"
);
},
{
closed = 0;
nodes = (
"300.489 -345.695 LINE",
"285.449 -353.661 OFFCURVE",
"280.341 -359.252 OFFCURVE",
"271.593 -373.144 CURVE"
);
},
{
closed = 0;
nodes = (
"229.454 -415.49 LINE",
"217.232 -420.076 OFFCURVE",
"201.213 -425.512 OFFCURVE",
"200.085 -439.656 CURVE"
);
},
{
closed = 0;
nodes = (
"96.946 216.079 LINE",
"96.946 196.215 OFFCURVE",
"109.058 177.077 OFFCURVE",
"112.616 157.406 CURVE SMOOTH",
"115.615 140.823 OFFCURVE",
"116.522 123.004 OFFCURVE",
"116.522 105.044 CURVE SMOOTH",
"116.522 83.712 OFFCURVE",
"115.243 62.182 OFFCURVE",
"114.669 42.288 CURVE SMOOTH",
"114.451 34.742 OFFCURVE",
"105.633 -12.25 OFFCURVE",
"105.633 11 CURVE SMOOTH",
"105.633 11 OFFCURVE",
"105.633 -11.159 OFFCURVE",
"105.633 -19.303 CURVE SMOOTH",
"105.633 -37.647 OFFCURVE",
"105.633 -55.991 OFFCURVE",
"105.633 -74.335 CURVE SMOOTH",
"105.633 -100.021 OFFCURVE",
"102.234 -130.563 OFFCURVE",
"102.234 -159.966 CURVE SMOOTH",
"102.234 -180.441 OFFCURVE",
"103.882 -200.363 OFFCURVE",
"109.473 -217.708 CURVE"
);
},
{
closed = 0;
nodes = (
"132.176 216.985 LINE",
"132.176 185.88 OFFCURVE",
"120.01 157.661 OFFCURVE",
"118.252 126.448 CURVE SMOOTH",
"115.554 78.559 OFFCURVE",
"123.371 29.441 OFFCURVE",
"123.371 -18.88 CURVE SMOOTH",
"123.371 -32.777 OFFCURVE",
"122.725 -46.609 OFFCURVE",
"120.995 -60.327 CURVE SMOOTH",
"117.663 -86.758 OFFCURVE",
"112.251 -122.325 OFFCURVE",
"112.251 -155.472 CURVE SMOOTH",
"112.251 -174.198 OFFCURVE",
"113.978 -192.152 OFFCURVE",
"118.784 -207.25 CURVE"
);
},
{
closed = 0;
nodes = (
"199.22 222.072 LINE",
"199.22 210.514 OFFCURVE",
"199.546 198.849 OFFCURVE",
"199.546 187.194 CURVE SMOOTH",
"199.546 174.914 OFFCURVE",
"199.184 162.645 OFFCURVE",
"197.699 150.523 CURVE SMOOTH",
"190.239 89.647 OFFCURVE",
"135.701 47.156 OFFCURVE",
"135.701 -15.645 CURVE"
);
},
{
closed = 0;
nodes = (
"218.648 201.963 LINE",
"198.154 169.537 OFFCURVE",
"180.072 139.185 OFFCURVE",
"172.003 101.393 CURVE SMOOTH",
"171.071 97.024 OFFCURVE",
"170.901 92.321 OFFCURVE",
"170.901 87.531 CURVE SMOOTH",
"170.901 84.79 OFFCURVE",
"170.956 82.02 OFFCURVE",
"170.956 79.268 CURVE SMOOTH",
"170.956 72.026 OFFCURVE",
"170.571 64.907 OFFCURVE",
"167.772 58.756 CURVE SMOOTH",
"144.737 8.132 OFFCURVE",
"131.503 15.074 OFFCURVE",
"131.503 -48.88 CURVE"
);
},
{
closed = 1;
nodes = (
"210 64 LINE",
"225 73 LINE",
"227 71 OFFCURVE",
"229 69 OFFCURVE",
"229 66 CURVE SMOOTH",
"229 63 OFFCURVE",
"219 63 OFFCURVE",
"219 55 CURVE SMOOTH",
"219 47 OFFCURVE",
"229 52 OFFCURVE",
"229 46 CURVE SMOOTH",
"229 40 OFFCURVE",
"219 45 OFFCURVE",
"219 35 CURVE SMOOTH",
"219 25 OFFCURVE",
"229 32 OFFCURVE",
"229 25 CURVE SMOOTH",
"229 18 OFFCURVE",
"219 22 OFFCURVE",
"219 15 CURVE SMOOTH",
"219 8 OFFCURVE",
"226 6 OFFCURVE",
"227 3 CURVE",
"231 5 LINE",
"229 8 OFFCURVE",
"225 11 OFFCURVE",
"225 14 CURVE SMOOTH",
"225 17 OFFCURVE",
"235 18 OFFCURVE",
"235 25 CURVE SMOOTH",
"235 32 OFFCURVE",
"225 31 OFFCURVE",
"225 35 CURVE SMOOTH",
"225 39 OFFCURVE",
"235 39 OFFCURVE",
"235 46 CURVE SMOOTH",
"235 53 OFFCURVE",
"227 51 OFFCURVE",
"227 56 CURVE SMOOTH",
"227 61 OFFCURVE",
"235 59 OFFCURVE",
"235 65 CURVE",
"232 73 LINE",
"244 65 LINE",
"228 109 LINE"
);
}
);
width = 600;
}
);
unicode = 0044;
},
{
glyphname = E;
lastChange = "2017-12-09 18:18:52 +0000";
layers = (
{
backgroundImage = {
crop = "{{0, 0}, {943, 391}}";
imagePath = "../../../../Desktop/Capture d’écran 2017-12-08 à 15.12.10.png";
transform = "{4.153, 0, 0, 4.153, -2591, -873}";
};
layerId = "0976EF58-E9BF-471C-8466-D2D06D69E717";
paths = (
{
closed = 0;
nodes = (
"-2.252 116.342 LINE",
"27.808 116.342 OFFCURVE",
"45.404 98.549 OFFCURVE",
"71.608 89.815 CURVE SMOOTH",
"85.225 85.276 OFFCURVE",
"91.848 98.285 OFFCURVE",
"103.851 98.597 CURVE SMOOTH",
"108.701 98.723 OFFCURVE",
"106.685 90.498 OFFCURVE",
"106.685 84.14 CURVE SMOOTH",
"106.685 80.784 OFFCURVE",
"107.247 77.949 OFFCURVE",
"109.674 77.136 CURVE SMOOTH",
"118.813 74.072 OFFCURVE",
"157.98 88.225 OFFCURVE",
"174.751 84.684 CURVE SMOOTH",
"189.679 81.533 OFFCURVE",
"205.954 79.9 OFFCURVE",
"220.474 75.461 CURVE SMOOTH",
"237.523 70.25 OFFCURVE",
"253.122 58.079 OFFCURVE",
"270.902 54.779 CURVE SMOOTH",
"280.278 53.039 OFFCURVE",
"289.82 52.554 OFFCURVE",
"299.419 52.554 CURVE SMOOTH",
"311.535 52.554 OFFCURVE",
"323.742 53.327 OFFCURVE",
"335.821 53.327 CURVE SMOOTH",
"346.614 53.327 OFFCURVE",
"357.306 52.71 OFFCURVE",
"367.738 50.37 CURVE SMOOTH",
"381.998 47.173 OFFCURVE",
"377.077 3.262 OFFCURVE",
"393.833 -1.588 CURVE SMOOTH",
"425.325 -10.703 OFFCURVE",
"456.921 -24.288 OFFCURVE",
"489.016 -31.023 CURVE SMOOTH",
"516.629 -36.817 OFFCURVE",
"545.351 -36.265 OFFCURVE",
"572.82 -43.132 CURVE SMOOTH",
"592.434 -48.036 OFFCURVE",
"609.303 -59.339 OFFCURVE",
"628.198 -65.128 CURVE"
);
},
{
closed = 0;
nodes = (
"-0.57 54.137 LINE",
"31.141 54.137 OFFCURVE",
"57.041 33.845 OFFCURVE",
"87.412 31.095 CURVE SMOOTH",
"116.566 28.455 OFFCURVE",
"161.361 35.625 OFFCURVE",
"203.083 35.625 CURVE SMOOTH",
"246.23 35.625 OFFCURVE",
"286.092 27.957 OFFCURVE",
"301.968 -6.156 CURVE"
);
},
{
closed = 0;
nodes = (
"-7.635 6.74 LINE",
"122.161 6.74 OFFCURVE",
"251.931 -0.621 OFFCURVE",
"381.854 -0.621 CURVE"
);
},
{
closed = 0;
nodes = (
"386.335 3.5 LINE",
"423.808 3.5 OFFCURVE",
"467.371 6.314 OFFCURVE",
"509.902 6.314 CURVE SMOOTH",
"543.852 6.314 OFFCURVE",
"577.146 4.521 OFFCURVE",
"606.16 -1.927 CURVE"
);
},
{
closed = 0;
nodes = (
"30.899 -94.701 LINE",
"48.295 -101.482 OFFCURVE",
"65.908 -119.919 OFFCURVE",
"80.704 -131.874 CURVE"
);
},
{
closed = 0;
nodes = (
"107.053 -156.422 LINE",
"124.377 -168.939 OFFCURVE",
"138.608 -184.688 OFFCURVE",
"155.885 -197.454 CURVE"
);
},
{
closed = 0;
nodes = (
"43.431 7.019 LINE",
"57.698 3.969 OFFCURVE",
"64.935 -4.624 OFFCURVE",
"76.062 -12.661 CURVE"
);
},
{
closed = 0;
nodes = (
"106.792 5.373 LINE",
"116.456 -1.259 OFFCURVE",
"126.944 -7.444 OFFCURVE",
"138.561 -9.265 CURVE"
);
},
{
closed = 0;
nodes = (
"165.853 3.016 LINE",
"177.275 -4.838 OFFCURVE",
"189.126 -7.363 OFFCURVE",
"202.164 -11.234 CURVE"
);
},
{
closed = 0;
nodes = (
"222.585 0.885 LINE",
"239.467 -5.331 OFFCURVE",
"252.173 -12.97 OFFCURVE",
"270.177 -16.152 CURVE"
);
},
{
closed = 0;
nodes = (
"278.001 0.131 LINE",
"296.647 -0.893 OFFCURVE",
"325.677 -8.455 OFFCURVE",
"339.948 -22.535 CURVE"
);
},
{
closed = 0;
nodes = (
"345.607 -5.168 LINE",
"367.226 -5.232 OFFCURVE",
"387.822 -14.886 OFFCURVE",
"405.621 -26.397 CURVE"
);
},
{
closed = 0;
nodes = (
"-27.046 -9.318 LINE",
"-6.784 -10.991 OFFCURVE",
"7.545 -31.434 OFFCURVE",
"22.293 -43.848 CURVE"
);
},
{
closed = 0;
nodes = (
"34.951 -12.601 LINE",
"56.74 -20.74 OFFCURVE",
"71.969 -35.651 OFFCURVE",
"91.047 -48.11 CURVE"
);
},
{
closed = 0;
nodes = (
"100.611 -17.671 LINE",
"120.34 -27.123 OFFCURVE",
"137.952 -39.236 OFFCURVE",
"154.835 -52.857 CURVE"
);
},
{
closed = 0;
nodes = (
"164.483 -25.696 LINE",
"181.478 -38.326 OFFCURVE",
"198.58 -50.46 OFFCURVE",
"218.347 -57.998 CURVE"
);
},
{
closed = 0;
nodes = (
"230.469 -27.248 LINE",
"251.26 -32.293 OFFCURVE",
"267.785 -47.735 OFFCURVE",
"285.347 -59.163 CURVE"
);
},
{
closed = 0;
nodes = (
"295.9 -33.715 LINE",
"317.635 -39.176 OFFCURVE",
"337.538 -51.284 OFFCURVE",
"355.087 -65.014 CURVE"
);
},
{
closed = 0;
nodes = (
"360.54 -40.825 LINE",
"378.604 -47.859 OFFCURVE",
"395.485 -58.661 OFFCURVE",
"411.455 -69.572 CURVE"
);
},
{
closed = 0;
nodes = (
"426.369 -43.158 LINE",
"447.551 -47.259 OFFCURVE",
"464.204 -61.423 OFFCURVE",
"480.939 -74.096 CURVE"
);
},
{
closed = 0;
nodes = (
"490.52 -48.323 LINE",
"510.828 -54.543 OFFCURVE",
"526.826 -70.937 OFFCURVE",
"544.236 -82.755 CURVE"
);
},
{
closed = 0;
nodes = (
"558.119 -53.665 LINE",
"577.702 -65.015 OFFCURVE",
"598.207 -73.865 OFFCURVE",
"617.857 -84.963 CURVE"
);
},
{
closed = 0;
nodes = (
"49.097 -61.078 LINE",
"63.246 -72.206 OFFCURVE",
"73.846 -85.768 OFFCURVE",
"89.481 -94.82 CURVE"
);
},
{
closed = 0;
nodes = (
"114.184 -63.357 LINE",
"132.756 -73.898 OFFCURVE",
"146.039 -90.274 OFFCURVE",
"162.823 -102.961 CURVE"
);
},
{
closed = 0;
nodes = (
"179.013 -66.569 LINE",
"194.974 -78.572 OFFCURVE",
"209.338 -91.389 OFFCURVE",
"223.05 -105.879 CURVE"
);
},
{
closed = 0;
nodes = (
"242.697 -74.318 LINE",
"258.224 -86.574 OFFCURVE",
"274.66 -99.151 OFFCURVE",
"291.191 -110.283 CURVE"
);
},
{
closed = 0;
nodes = (
"307.023 -77.931 LINE",
"327.066 -85.233 OFFCURVE",
"342.186 -100.212 OFFCURVE",
"359.002 -112.898 CURVE"
);
},
{
closed = 0;
nodes = (
"373.356 -85.724 LINE",
"392.052 -95.13 OFFCURVE",
"406.416 -108.594 OFFCURVE",
"422.672 -121.429 CURVE"
);
},
{
closed = 0;
nodes = (
"439.138 -86.727 LINE",
"456.723 -97.161 OFFCURVE",
"471.79 -109.479 OFFCURVE",
"486.602 -123.338 CURVE"
);
},
{
closed = 0;
nodes = (
"504.461 -93.087 LINE",
"521.134 -102.28 OFFCURVE",
"538.719 -114.002 OFFCURVE",
"551.925 -127.943 CURVE"
);
},
{
closed = 0;
nodes = (
"569.656 -95.312 LINE",
"584.88 -105.965 OFFCURVE",
"598.23 -118.651 OFFCURVE",
"611.646 -131.535 CURVE"
);
},
{
closed = 0;
nodes = (
"119.136 -117.204 LINE",
"135.271 -128.54 OFFCURVE",
"149.783 -142.771 OFFCURVE",
"164.729 -155.673 CURVE"
);
},
{
closed = 0;
nodes = (
"183.601 -121.533 LINE",
"197.917 -135.982 OFFCURVE",
"211.654 -151.8 OFFCURVE",
"230.116 -160.649 CURVE"
);
},
{
closed = 0;
nodes = (
"250.86 -126.923 LINE",
"267.224 -139.58 OFFCURVE",
"281.549 -153.44 OFFCURVE",
"296.055 -167.974 CURVE"
);
},
{
closed = 0;
nodes = (
"314.036 -129.01 LINE",
"321.926 -147.391 OFFCURVE",
"342.377 -164.328 OFFCURVE",
"359.332 -174.734 CURVE"
);
},
{
closed = 0;
nodes = (
"378.325 -133.616 LINE",
"396.617 -147.238 OFFCURVE",
"409.487 -165.969 OFFCURVE",
"425.688 -181.827 CURVE"
);
},
{
closed = 0;
nodes = (
"447.254 -139.968 LINE",
"464.632 -155.547 OFFCURVE",
"481.912 -169.689 OFFCURVE",
"497.9 -186.661 CURVE"
);
},
{
closed = 0;
nodes = (
"508.878 -148.206 LINE",
"523.793 -160.745 OFFCURVE",
"533.809 -177.439 OFFCURVE",
"549.461 -189.102 CURVE"
);
},
{
closed = 0;
nodes = (
"573.541 -151.047 LINE",
"591.342 -162.68 OFFCURVE",
"608.056 -181.413 OFFCURVE",
"622.049 -197.468 CURVE"
);
},
{
closed = 0;
nodes = (
"0.337 88.894 LINE",
"78.995 88.894 OFFCURVE",
"155.388 70.699 OFFCURVE",
"233.961 70.699 CURVE"
);
},
{
closed = 0;
nodes = (
"-1.31 71.226 LINE",
"65.007 71.226 OFFCURVE",
"154.361 52.665 OFFCURVE",
"226.888 52.665 CURVE SMOOTH",
"245.058 52.665 OFFCURVE",
"262.172 53.83 OFFCURVE",
"277.603 56.744 CURVE"
);
},
{
closed = 0;
nodes = (
"18.39 49.435 LINE",
"109.02 49.435 OFFCURVE",
"213.392 48.486 OFFCURVE",
"302.619 34.243 CURVE SMOOTH",
"309.164 33.198 OFFCURVE",
"315.607 32.918 OFFCURVE",
"321.985 32.918 CURVE SMOOTH",
"329.381 32.918 OFFCURVE",
"336.691 33.295 OFFCURVE",
"343.976 33.295 CURVE SMOOTH",
"355.6 33.295 OFFCURVE",
"367.162 32.335 OFFCURVE",
"378.91 27.354 CURVE"
);
},
{
closed = 0;
nodes = (
"282.185 15.709 LINE",
"302.782 15.709 OFFCURVE",
"323.322 17.527 OFFCURVE",
"343.862 16.383 CURVE SMOOTH",
"358.659 15.558 OFFCURVE",
"375.283 7.274 OFFCURVE",
"390.791 5.542 CURVE"
);
},
{
closed = 0;
nodes = (
"-1.931 35.366 LINE",
"14.37 35.366 OFFCURVE",
"30.694 36.038 OFFCURVE",
"46.984 36.038 CURVE SMOOTH",
"55.388 36.038 OFFCURVE",
"63.782 35.859 OFFCURVE",
"72.159 35.317 CURVE"
);
},
{
closed = 0;
nodes = (
"-3.033 22.231 LINE",
"47.767 22.231 OFFCURVE",
"100.287 14.089 OFFCURVE",
"151.251 14.089 CURVE SMOOTH",
"196.498 14.089 OFFCURVE",
"241.119 21.252 OFFCURVE",
"287.072 21.252 CURVE"
);
},
{
closed = 1;
nodes = (
"19 -96 LINE",
"26 -96 LINE",
"26 -89 LINE",
"19 -89 LINE"
);
},
{
closed = 1;
nodes = (
"3 -110 LINE",
"10 -110 LINE",
"10 -101 LINE",
"3 -101 LINE"
);
},
{
closed = 1;
nodes = (
"34 -109 LINE",
"39 -109 LINE",
"39 -103 LINE",
"34 -103 LINE"
);
},
{
closed = 1;
nodes = (
"18 -122 LINE",
"27 -122 LINE",
"27 -118 LINE",
"18 -118 LINE"
);
},
{
closed = 1;
nodes = (
"5 -137 LINE",
"11 -137 LINE",
"11 -132 LINE",
"5 -132 LINE"
);
},
{
closed = 1;
nodes = (
"20 -152 LINE",
"28 -152 LINE",
"28 -143 LINE",
"20 -143 LINE"
);
},
{
closed = 1;
nodes = (
"34 -136 LINE",
"38 -136 LINE",
"38 -132 LINE",
"34 -132 LINE"
);
},
{
closed = 1;
nodes = (
"47 -122 LINE",
"54 -122 LINE",
"54 -116 LINE",
"47 -116 LINE"
);
},
{
closed = 1;
nodes = (
"6 -165 LINE",
"12 -165 LINE",
"12 -159 LINE",
"6 -159 LINE"
);
},
{
closed = 1;
nodes = (
"20 -178 LINE",
"26 -178 LINE",
"26 -173 LINE",
"20 -173 LINE"
);
},
{
closed = 1;
nodes = (
"4 -192 LINE",
"12 -192 LINE",
"12 -188 LINE",
"4 -188 LINE"
);
},
{
closed = 1;
nodes = (
"34 -192 LINE",
"38 -192 LINE",
"38 -189 LINE",
"34 -189 LINE"
);
},
{
closed = 1;
nodes = (
"34 -166 LINE",
"38 -166 LINE",
"38 -159 LINE",
"34 -159 LINE"
);
},
{
closed = 1;
nodes = (
"48 -151 LINE",
"53 -151 LINE",
"53 -143 LINE",
"48 -143 LINE"
);
},
{
closed = 1;
nodes = (
"62 -136 LINE",
"68 -136 LINE",
"68 -132 LINE",
"62 -132 LINE"
);
},
{
closed = 1;
nodes = (
"75 -151 LINE",
"82 -151 LINE",
"82 -143 LINE",
"75 -143 LINE"
);
},
{
closed = 1;
nodes = (
"63 -165 LINE",
"67 -165 LINE",
"67 -160 LINE",
"63 -160 LINE"
);
},
{
closed = 1;
nodes = (
"48 -178 LINE",
"53 -178 LINE",
"53 -174 LINE",
"48 -174 LINE"
);
},
{
closed = 1;
nodes = (
"76 -177 LINE",
"83 -177 LINE",
"83 -174 LINE",
"76 -174 LINE"
);
},
{
closed = 1;
nodes = (
"91 -165 LINE",
"95 -165 LINE",
"95 -159 LINE",
"91 -159 LINE"
);
},
{
closed = 1;
nodes = (
"60 -192 LINE",
"68 -192 LINE",
"68 -188 LINE",
"60 -188 LINE"
);
},
{
closed = 1;
nodes = (
"90 -192 LINE",
"94 -192 LINE",
"94 -187 LINE",
"90 -187 LINE"
);
},
{
closed = 1;
nodes = (
"105 -178 LINE",
"110 -178 LINE",
"110 -174 LINE",
"105 -174 LINE"
);
},
{
closed = 1;
nodes = (
"117 -192 LINE",
"123 -192 LINE",
"123 -188 LINE",
"117 -188 LINE"
);
},
{
closed = 1;
nodes = (
"5 -81 LINE",
"12 -81 LINE",
"12 -75 LINE",
"5 -75 LINE"
);
}
);
width = 600;
}
);
unicode = 0045;
},
{
glyphname = F;
lastChange = "2017-12-10 10:02:45 +0000";
layers = (
{
backgroundImage = {
crop = "{{0, 0}, {943, 391}}";
imagePath = "../../../../Desktop/Capture d’écran 2017-12-08 à 15.12.10.png";
transform = "{4.153, 0, 0, 4.153, -3271, -873}";
};
layerId = "0976EF58-E9BF-471C-8466-D2D06D69E717";
paths = (
{
closed = 0;
nodes = (
"-3.722 1.403 LINE",
"66.658 1.403 OFFCURVE",
"137.106 2.008 OFFCURVE",
"207.536 2.008 CURVE SMOOTH",
"255.246 2.008 OFFCURVE",
"302.949 1.73 OFFCURVE",
"350.617 0.799 CURVE SMOOTH",
"399.475 -0.156 OFFCURVE",
"449.103 -4.284 OFFCURVE",
"498.188 -4.284 CURVE SMOOTH",
"509.468 -4.284 OFFCURVE",
"520.719 -4.066 OFFCURVE",
"531.925 -3.542 CURVE"
);
},
{
closed = 0;
nodes = (
"-3.805 -86.574 LINE",
"51.377 -99.046 OFFCURVE",
"87.385 -149.13 OFFCURVE",
"124.414 -189.843 CURVE SMOOTH",
"128.258 -194.07 OFFCURVE",
"134.925 -207.94 OFFCURVE",
"139.642 -211.245 CURVE SMOOTH",
"151.458 -219.524 OFFCURVE",
"167.097 -223.452 OFFCURVE",
"180.218 -229.661 CURVE"
);
},
{
closed = 0;
nodes = (
"529.952 -4.409 LINE",
"543.711 -4.409 OFFCURVE",
"559.6 -5.944 OFFCURVE",
"575.038 -5.944 CURVE SMOOTH",
"585.557 -5.944 OFFCURVE",
"595.865 -5.231 OFFCURVE",
"605.148 -2.835 CURVE"
);
}
);
width = 600;
}
);
unicode = 0046;
},
{
glyphname = G;
lastChange = "2017-12-08 14:36:14 +0000";
layers = (
{
backgroundImage = {
crop = "{{0, 0}, {943, 391}}";
imagePath = "../../../../Desktop/Capture d’écran 2017-12-08 à 15.12.10.png";
transform = "{4.153, 0, 0, 4.153, -1701, -873}";
};
layerId = "0976EF58-E9BF-471C-8466-D2D06D69E717";
paths = (
{
closed = 0;
nodes = (
"-1.21 148.99 LINE",
"36.112 183.109 OFFCURVE",
"35.436 211.291 OFFCURVE",
"59.977 250.341 CURVE SMOOTH",
"82.368 285.972 OFFCURVE",
"107.429 313.985 OFFCURVE",
"138.361 340.554 CURVE SMOOTH",
"142.9 344.453 OFFCURVE",
"152.298 350.782 OFFCURVE",
"154.176 356.607 CURVE SMOOTH",
"156.645 364.262 OFFCURVE",
"156.703 375.835 OFFCURVE",
"163.672 381.161 CURVE SMOOTH",
"182.118 395.259 OFFCURVE",
"213.128 407.406 OFFCURVE",
"236.925 404.657 CURVE SMOOTH",
"263.434 401.595 OFFCURVE",
"267.769 354.421 OFFCURVE",
"285.645 338.988 CURVE SMOOTH",
"304.399 322.796 OFFCURVE",
"335.505 321.715 OFFCURVE",
"351.671 300.822 CURVE SMOOTH",
"368.81 278.672 OFFCURVE",
"373.532 251.644 OFFCURVE",
"386.164 226.38 CURVE SMOOTH",
"397.314 204.081 OFFCURVE",
"490.633 112.365 OFFCURVE",
"516.153 108.101 CURVE SMOOTH",
"553.974 101.782 OFFCURVE",
"593.55 146.925 OFFCURVE",
"622.938 163.908 CURVE"
);
},
{
closed = 0;
nodes = (
"373.45 252.814 LINE",
"411 253 OFFCURVE",
"452 225 OFFCURVE",
"488.326 216.139 CURVE SMOOTH",
"499.075 213.452 OFFCURVE",
"510.284 212.727 OFFCURVE",
"521.643 212.727 CURVE SMOOTH",
"534.931 212.727 OFFCURVE",
"548.425 213.719 OFFCURVE",
"561.63 213.719 CURVE SMOOTH",
"567.626 213.719 OFFCURVE",
"573.562 213.514 OFFCURVE",
"579.392 212.92 CURVE SMOOTH",
"594.463 211.384 OFFCURVE",
"607.099 204.341 OFFCURVE",
"622.56 202.982 CURVE"
);
},
{
closed = 0;
nodes = (
"5.455 -196.816 LINE",
"33.258 -184.875 OFFCURVE",
"60.239 -178.747 OFFCURVE",
"86.523 -178.747 CURVE SMOOTH",
"126.489 -178.747 OFFCURVE",
"164.845 -192.916 OFFCURVE",
"202.032 -222.364 CURVE SMOOTH",
"215.288 -232.861 OFFCURVE",
"227.279 -247.525 OFFCURVE",
"242.024 -256.317 CURVE SMOOTH",
"310.425 -297.105 OFFCURVE",
"365.088 -350.037 OFFCURVE",
"424.352 -402.824 CURVE"
);
}
);
width = 600;
}
);
unicode = 0047;
},
{
glyphname = H;
lastChange = "2017-12-08 14:39:31 +0000";
layers = (
{
backgroundImage = {
crop = "{{0, 0}, {943, 391}}";
imagePath = "../../../../Desktop/Capture d’écran 2017-12-08 à 15.12.10.png";
transform = "{4.153, 0, 0, 4.153, -2271, -873}";
};
layerId = "0976EF58-E9BF-471C-8466-D2D06D69E717";
paths = (
{
closed = 0;
nodes = (
"118 978 LINE"
);
},
{
closed = 0;
nodes = (
"-5.533 210.501 LINE",
"75.448 210.501 OFFCURVE",
"160.688 192.087 OFFCURVE",
"223.663 139.152 CURVE SMOOTH",
"226.575 136.705 OFFCURVE",
"234.423 139.634 OFFCURVE",
"238.965 139.152 CURVE SMOOTH",
"268.312 136.043 OFFCURVE",
"297.579 124.991 OFFCURVE",
"325.953 117.548 CURVE SMOOTH",
"335.966 114.922 OFFCURVE",
"416.368 95.841 OFFCURVE",
"416.371 95.836 CURVE",
"419.01 92.202 OFFCURVE",
"420.62 85.623 OFFCURVE",
"425.696 84.25 CURVE SMOOTH",
"431.658 82.637 OFFCURVE",
"437.792 82.099 OFFCURVE",
"444.024 82.099 CURVE SMOOTH",
"456.557 82.099 OFFCURVE",
"469.488 84.277 OFFCURVE",
"482.214 84.277 CURVE SMOOTH",
"488.581 84.277 OFFCURVE",
"494.896 83.732 OFFCURVE",
"501.085 82.096 CURVE SMOOTH",
"522.093 76.545 OFFCURVE",
"542.406 57.77 OFFCURVE",
"563.329 57.77 CURVE SMOOTH",
"571.524 57.77 OFFCURVE",
"578.431 61.932 OFFCURVE",
"586.885 61.932 CURVE SMOOTH",
"589.52 61.932 OFFCURVE",
"592.305 61.528 OFFCURVE",
"595.327 60.467 CURVE SMOOTH",
"606.142 56.67 OFFCURVE",
"612.745 47.58 OFFCURVE",
"625.817 44.243 CURVE"
);
},
{
closed = 0;
nodes = (
"-12.139 120.197 LINE",
"34.425 120.197 OFFCURVE",
"44.39 188.3 OFFCURVE",
"95.322 185.263 CURVE SMOOTH",
"104.988 184.687 OFFCURVE",
"163.518 59.694 OFFCURVE",
"170.602 41.804 CURVE SMOOTH",
"194.452 -18.427 OFFCURVE",
"231.455 10.372 OFFCURVE",
"260.512 -24.812 CURVE"
);
},
{
closed = 0;
nodes = (
"231.984 -17.469 LINE",
"231.313 -28.839 OFFCURVE",
"233.631 -38.74 OFFCURVE",
"236.012 -49.897 CURVE"
);
},
{
closed = 0;
nodes = (
"227.398 -113.591 LINE",
"225.932 -127.51 OFFCURVE",
"221.772 -137.03 OFFCURVE",
"211.212 -146.229 CURVE"
);
},
{
closed = 0;
nodes = (
"171.892 -186.655 LINE",
"157.231 -186.655 OFFCURVE",
"150.055 -197.106 OFFCURVE",
"145.352 -209.853 CURVE"
);
},
{
closed = 0;
nodes = (
"143.643 -273.185 LINE",
"141.571 -283.221 OFFCURVE",
"129.64 -291.741 OFFCURVE",
"124.587 -301.008 CURVE"
);
},
{
closed = 0;
nodes = (
"281.043 -39.657 LINE",
"293.565 -43.285 OFFCURVE",
"304.18 -53.755 OFFCURVE",
"312.778 -63.332 CURVE"
);
},
{
closed = 0;
nodes = (
"350.46 -95.563 LINE",
"365.616 -104.006 OFFCURVE",
"380.296 -121.063 OFFCURVE",
"394.31 -132.838 CURVE"
);
},
{
closed = 0;
nodes = (
"427.1 -155.351 LINE",
"444.829 -165.777 OFFCURVE",
"460.104 -180.925 OFFCURVE",
"473.306 -196.869 CURVE"
);
},
{
closed = 0;
nodes = (
"160.941 64.761 LINE",
"182.027 64.761 OFFCURVE",
"200.686 56.217 OFFCURVE",
"221.662 56.217 CURVE SMOOTH",
"229.043 56.217 OFFCURVE",
"236.641 62.874 OFFCURVE",
"244.061 62.874 CURVE SMOOTH",
"245.168 62.874 OFFCURVE",
"246.272 62.726 OFFCURVE",
"247.369 62.385 CURVE SMOOTH",
"263.367 57.422 OFFCURVE",
"274.871 47.106 OFFCURVE",
"292.972 47.106 CURVE SMOOTH",
"303.213 47.106 OFFCURVE",
"313.658 51.094 OFFCURVE",
"323.466 51.094 CURVE SMOOTH",
"339.746 51.094 OFFCURVE",
"354.253 36.753 OFFCURVE",
"370.522 36.753 CURVE SMOOTH",
"386.809 36.753 OFFCURVE",
"404.027 46.861 OFFCURVE",
"420.201 46.861 CURVE SMOOTH",
"436.516 46.861 OFFCURVE",
"457.267 33.355 OFFCURVE",
"476.025 33.355 CURVE SMOOTH",
"494.747 33.355 OFFCURVE",
"516.398 37.483 OFFCURVE",
"537.282 37.483 CURVE SMOOTH",
"572.488 37.483 OFFCURVE",
"605.513 29.233 OFFCURVE",
"618.246 -8.69 CURVE"
);
},
{
closed = 0;
nodes = (
"-2.326 197.16 LINE",
"21.181 191.922 OFFCURVE",
"39.408 187.072 OFFCURVE",
"60.413 187.072 CURVE SMOOTH",
"68.108 187.072 OFFCURVE",
"76.175 187.723 OFFCURVE",
"85.011 189.244 CURVE"
);
},
{
closed = 0;
nodes = (
"-0.623 180.778 LINE",
"18.57 180.778 OFFCURVE",
"41.071 177.316 OFFCURVE",
"59.614 171.372 CURVE"
);
},
{
closed = 0;
nodes = (
"-0.889 166.342 LINE",
"15.142 165.938 OFFCURVE",
"30.091 163.938 OFFCURVE",
"45.32 159.068 CURVE"
);
},
{
closed = 0;
nodes = (
"-0.868 151.168 LINE",
"11.33 150.254 OFFCURVE",
"24.482 149.285 OFFCURVE",
"36.544 147.254 CURVE"
);
},
{
closed = 0;
nodes = (
"-1.809 141.412 LINE",
"9.369 141.412 OFFCURVE",
"18.974 140.939 OFFCURVE",
"29.441 136.692 CURVE"
);
},
{
closed = 0;
nodes = (
"146.039 184.741 LINE",
"122.457 184.741 OFFCURVE",
"98.661 187.491 OFFCURVE",
"76.328 187.912 CURVE"
);
},
{
closed = 0;
nodes = (
"106.536 168.935 LINE",
"124.922 168.935 OFFCURVE",
"143.665 167.608 OFFCURVE",
"162.191 167.608 CURVE SMOOTH",
"168.933 167.608 OFFCURVE",
"175.647 167.784 OFFCURVE",
"182.304 168.263 CURVE"
);
},
{
closed = 0;
nodes = (
"114.966 151.968 LINE",
"135.818 151.968 OFFCURVE",
"155.997 153.194 OFFCURVE",
"176.437 153.194 CURVE SMOOTH",
"186.806 153.194 OFFCURVE",
"197.242 152.879 OFFCURVE",
"207.867 151.927 CURVE"
);
},
{
closed = 0;
nodes = (
"121.504 142.123 LINE",
"153.031 142.123 OFFCURVE",
"183.66 136.077 OFFCURVE",
"214.566 136.077 CURVE SMOOTH",
"223.401 136.077 OFFCURVE",
"232.26 136.571 OFFCURVE",
"241.168 137.842 CURVE"
);
},
{
closed = 0;
nodes = (
"126.24 130.74 LINE",
"175.18 130.74 OFFCURVE",
"224.76 123.812 OFFCURVE",
"273.886 123.812 CURVE SMOOTH",
"284.355 123.812 OFFCURVE",
"294.803 124.127 OFFCURVE",
"305.221 124.89 CURVE"
);
},
{
closed = 0;
nodes = (
"132.727 117.076 LINE",
"167.68 117.921 OFFCURVE",
"200.216 107.739 OFFCURVE",
"235.057 107.739 CURVE SMOOTH",
"251 107.739 OFFCURVE",
"267.113 109.765 OFFCURVE",
"283.083 109.765 CURVE SMOOTH",
"288.698 109.765 OFFCURVE",
"294.295 109.515 OFFCURVE",
"299.861 108.838 CURVE SMOOTH",
"325.779 105.685 OFFCURVE",
"351.467 101.289 OFFCURVE",
"377.557 101.289 CURVE SMOOTH",
"383.459 101.289 OFFCURVE",
"389.382 101.514 OFFCURVE",
"395.332 102.029 CURVE"
);
},
{
closed = 0;
nodes = (
"139.384 101.869 LINE",
"181.369 101.869 OFFCURVE",
"219.17 89.454 OFFCURVE",
"261.664 89.454 CURVE SMOOTH",
"272.663 89.454 OFFCURVE",
"283.686 89.844 OFFCURVE",
"294.69 89.844 CURVE SMOOTH",
"305.433 89.844 OFFCURVE",
"316.157 89.472 OFFCURVE",
"326.823 88.002 CURVE SMOOTH",
"347.656 85.132 OFFCURVE",
"369.412 81.339 OFFCURVE",
"390.982 81.339 CURVE SMOOTH",
"403.231 81.339 OFFCURVE",
"415.421 82.562 OFFCURVE",
"427.346 85.873 CURVE"
);
},
{
closed = 0;
nodes = (
"150.927 81.232 LINE",
"287.935 81.232 OFFCURVE",
"423.367 56.641 OFFCURVE",
"559.413 59.429 CURVE"
);
},
{
closed = 0;
nodes = (
"168.943 44.089 LINE",
"210.482 44.089 OFFCURVE",
"252.107 47.127 OFFCURVE",
"293.401 47.127 CURVE"
);
},
{
closed = 0;
nodes = (
"170.335 33.259 LINE",
"195.53 33.259 OFFCURVE",
"221.101 32.977 OFFCURVE",
"246.758 32.977 CURVE SMOOTH",
"292.123 32.977 OFFCURVE",
"337.759 33.857 OFFCURVE",
"382.07 38.729 CURVE"
);
},
{
closed = 0;
nodes = (
"180.008 20.105 LINE",
"229.397 20.105 OFFCURVE",
"279.046 23.687 OFFCURVE",
"328.184 21.917 CURVE SMOOTH",
"360.392 20.757 OFFCURVE",
"395.171 14.738 OFFCURVE",
"428.042 14.738 CURVE SMOOTH",
"436.224 14.738 OFFCURVE",
"444.288 15.111 OFFCURVE",
"452.164 16.025 CURVE SMOOTH",
"473.113 18.455 OFFCURVE",
"510.137 20.956 OFFCURVE",
"544.239 20.956 CURVE SMOOTH",
"569.725 20.956 OFFCURVE",
"593.58 19.559 OFFCURVE",
"607.871 15.69 CURVE"
);
}
);
width = 600;
}
);
unicode = 0048;
},
{
glyphname = I;
lastChange = "2017-12-10 09:59:45 +0000";
layers = (
{
backgroundImage = {
crop = "{{0, 0}, {943, 391}}";
imagePath = "../../../../Desktop/Capture d’écran 2017-12-08 à 15.12.10.png";
transform = "{4.153, 0, 0, 4.153, -1591, -873}";
};
layerId = "0976EF58-E9BF-471C-8466-D2D06D69E717";
paths = (
{
closed = 0;
nodes = (
"-3.84 296.279 LINE",
"24.466 304.154 OFFCURVE",
"9.293 332.095 OFFCURVE",
"18.052 337.45 CURVE SMOOTH",
"32.594 346.342 OFFCURVE",
"50.596 321.04 OFFCURVE",
"60.168 326.592 CURVE SMOOTH",
"77.493 336.641 OFFCURVE",
"93.362 339.93 OFFCURVE",
"108.72 339.93 CURVE SMOOTH",
"137.812 339.93 OFFCURVE",
"165.07 328.129 OFFCURVE",
"196.912 328.129 CURVE SMOOTH",
"205.753 328.129 OFFCURVE",
"214.947 329.039 OFFCURVE",
"224.632 331.363 CURVE SMOOTH",
"256.869 339.1 OFFCURVE",
"291.051 402.062 OFFCURVE",
"329.055 402.062 CURVE SMOOTH",
"333.834 402.062 OFFCURVE",
"338.674 401.066 OFFCURVE",
"343.578 398.84 CURVE SMOOTH",
"354.62 393.826 OFFCURVE",
"479.69 272.129 OFFCURVE",
"482.89 266.991 CURVE SMOOTH",
"490.354 255.008 OFFCURVE",
"489.513 239.216 OFFCURVE",
"497.568 227.095 CURVE SMOOTH",
"526.955 182.872 OFFCURVE",
"563.991 119.904 OFFCURVE",
"619.713 107.791 CURVE"
);
},
{
closed = 0;
nodes = (
"487.749 249.263 LINE",
"531.061 237.035 OFFCURVE",
"571.981 228.556 OFFCURVE",
"615.488 222.081 CURVE"
);
},
{
closed = 0;
nodes = (
"-16.236 -11.384 LINE",
"23.06 12.774 OFFCURVE",
"32.845 50.656 OFFCURVE",
"57.698 86.352 CURVE SMOOTH",
"94.335 138.972 OFFCURVE",
"138.31 182.721 OFFCURVE",
"171.34 237.757 CURVE SMOOTH",
"187.465 264.626 OFFCURVE",
"218.059 329.614 OFFCURVE",
"246.186 342.653 CURVE"
);
},
{
closed = 0;
nodes = (
"14.902 320.054 LINE",
"65.942 320.054 OFFCURVE",
"116.046 325.017 OFFCURVE",
"166.702 325.017 CURVE SMOOTH",
"185.197 325.017 OFFCURVE",
"203.765 324.355 OFFCURVE",
"222.48 322.549 CURVE"
);
},
{
closed = 0;
nodes = (
"13.79 310.073 LINE",
"41.237 310.073 OFFCURVE",
"73.258 303.495 OFFCURVE",
"102.207 303.495 CURVE SMOOTH",
"110.459 303.495 OFFCURVE",
"118.461 304.029 OFFCURVE",
"126.037 305.403 CURVE SMOOTH",
"136.324 307.269 OFFCURVE",
"144.376 313.94 OFFCURVE",
"154.936 313.94 CURVE SMOOTH",
"176.9 313.94 OFFCURVE",
"198.708 308.66 OFFCURVE",
"221.002 308.66 CURVE"
);
},
{
closed = 0;
nodes = (
"7.599 299.804 LINE",
"75.141 299.804 OFFCURVE",
"142.168 300.406 OFFCURVE",
"209.726 300.406 CURVE"
);
},
{
closed = 0;
nodes = (
"-3.059 281.801 LINE",
"46.145 281.801 OFFCURVE",
"101.949 289.661 OFFCURVE",
"153.764 289.661 CURVE SMOOTH",
"170.641 289.661 OFFCURVE",
"187.095 288.827 OFFCURVE",
"202.759 286.616 CURVE"
);
},
{
closed = 0;
nodes = (
"-1.242 265.92 LINE",
"32.105 265.92 OFFCURVE",
"66.966 263.613 OFFCURVE",
"101.011 263.613 CURVE SMOOTH",
"115.126 263.613 OFFCURVE",
"129.102 264.009 OFFCURVE",
"142.771 265.132 CURVE SMOOTH",
"160.433 266.582 OFFCURVE",
"175.216 270.993 OFFCURVE",
"193.24 269.116 CURVE"
);
},
{
closed = 0;
nodes = (
"-3.047 252.173 LINE",
"59.369 252.173 OFFCURVE",
"121.252 251.083 OFFCURVE",
"183.701 251.083 CURVE"
);
},
{
closed = 0;
nodes = (
"-1.775 233.698 LINE",
"22.017 233.698 OFFCURVE",
"45.143 239.187 OFFCURVE",
"68.52 239.187 CURVE SMOOTH",
"96.38 239.187 OFFCURVE",
"121.621 235.17 OFFCURVE",
"148.626 235.17 CURVE SMOOTH",
"156.217 235.17 OFFCURVE",
"163.947 235.459 OFFCURVE",
"171.916 236.189 CURVE"
);
},
{
closed = 0;
nodes = (
"-2.586 216.956 LINE",
"32.823 216.956 OFFCURVE",
"68.837 214.975 OFFCURVE",
"104.544 214.975 CURVE SMOOTH",
"121.466 214.975 OFFCURVE",
"138.319 215.42 OFFCURVE",
"155.006 216.731 CURVE"
);
},
{
closed = 0;
nodes = (
"-2.727 200.992 LINE",
"24.593 200.992 OFFCURVE",
"52.564 202.911 OFFCURVE",
"80.381 202.911 CURVE SMOOTH",
"102.388 202.911 OFFCURVE",
"124.298 201.71 OFFCURVE",
"145.715 197.407 CURVE"
);
},
{
closed = 0;
nodes = (
"-2.171 188.055 LINE",
"27.621 188.055 OFFCURVE",
"59.132 194.131 OFFCURVE",
"89.733 194.131 CURVE SMOOTH",
"105.398 194.131 OFFCURVE",
"120.824 192.539 OFFCURVE",
"135.659 187.724 CURVE"
);
},
{
closed = 0;
nodes = (
"-6.46 172.578 LINE",
"12.392 177.303 OFFCURVE",
"31.48 179.101 OFFCURVE",
"50.635 179.101 CURVE SMOOTH",
"78.552 179.101 OFFCURVE",
"106.61 175.283 OFFCURVE",
"134.28 171.146 CURVE"
);
},
{
closed = 0;
nodes = (
"-0.164 164.514 LINE",
"41.674 164.514 OFFCURVE",
"83.506 164.107 OFFCURVE",
"125.313 164.107 CURVE"
);
},
{
closed = 0;
nodes = (
"-2.255 152.054 LINE",
"18.202 152.054 OFFCURVE",
"38.241 152.909 OFFCURVE",
"58.265 152.909 CURVE SMOOTH",
"75.744 152.909 OFFCURVE",
"93.212 152.257 OFFCURVE",
"110.933 149.818 CURVE"
);
},
{
closed = 0;
nodes = (
"-1.756 132.886 LINE",
"33.548 132.886 OFFCURVE",
"68.135 139.045 OFFCURVE",
"102.983 139.045 CURVE"
);
},
{
closed = 0;
nodes = (
"-4.792 119.154 LINE",
"13.751 119.154 OFFCURVE",
"32.512 119.795 OFFCURVE",
"51.217 119.795 CURVE SMOOTH",
"64.455 119.795 OFFCURVE",
"77.666 119.474 OFFCURVE",
"90.752 118.376 CURVE"
);
},
{
closed = 0;
nodes = (
"-1.158 101.81 LINE",
"25.318 101.81 OFFCURVE",
"50.803 103.666 OFFCURVE",
"76.977 105.676 CURVE"
);
},
{
closed = 0;
nodes = (
"-2.526 84.272 LINE",
"12.647 84.272 OFFCURVE",
"31.024 88.436 OFFCURVE",
"47.665 88.436 CURVE SMOOTH",
"54.208 88.436 OFFCURVE",
"60.484 87.792 OFFCURVE",
"66.19 85.998 CURVE"
);
},
{
closed = 0;
nodes = (
"-3.977 69.5 LINE",
"14.322 69.5 OFFCURVE",
"32.242 71.561 OFFCURVE",
"50.473 71.561 CURVE"
);
},
{
closed = 0;
nodes = (
"0.19 56.122 LINE",
"15.332 56.122 OFFCURVE",
"30.742 56.855 OFFCURVE",
"45.837 55.566 CURVE"
);
},
{
closed = 0;
nodes = (
"-0.545 41.967 LINE",
"8.511 41.967 OFFCURVE",
"17.577 42.783 OFFCURVE",
"26.617 42.783 CURVE SMOOTH",
"30.565 42.783 OFFCURVE",
"34.508 42.628 OFFCURVE",
"38.443 42.18 CURVE"
);
},
{
closed = 0;
nodes = (
"-0.701 34.752 LINE",
"9.62 34.752 OFFCURVE",
"19.336 35.562 OFFCURVE",
"29.297 32.95 CURVE"
);
},
{
closed = 0;
nodes = (
"-2.545 20.322 LINE",
"10.199 20.322 OFFCURVE",
"17.72 19.821 OFFCURVE",
"29.495 15.892 CURVE"
);
},
{
closed = 1;
nodes = (
"128 64 LINE",
"143 73 LINE",
"145 71 OFFCURVE",
"147 69 OFFCURVE",
"147 66 CURVE SMOOTH",
"147 63 OFFCURVE",
"137 63 OFFCURVE",
"137 55 CURVE SMOOTH",
"137 47 OFFCURVE",
"147 52 OFFCURVE",
"147 46 CURVE SMOOTH",
"147 40 OFFCURVE",
"137 45 OFFCURVE",
"137 35 CURVE SMOOTH",
"137 25 OFFCURVE",
"147 32 OFFCURVE",
"147 25 CURVE SMOOTH",
"147 18 OFFCURVE",
"137 22 OFFCURVE",
"137 15 CURVE SMOOTH",
"137 8 OFFCURVE",
"144 6 OFFCURVE",
"145 3 CURVE",
"149 5 LINE",
"147 8 OFFCURVE",
"143 11 OFFCURVE",
"143 14 CURVE SMOOTH",
"143 17 OFFCURVE",
"153 18 OFFCURVE",
"153 25 CURVE SMOOTH",
"153 32 OFFCURVE",
"143 31 OFFCURVE",
"143 35 CURVE SMOOTH",
"143 39 OFFCURVE",
"153 39 OFFCURVE",
"153 46 CURVE SMOOTH",
"153 53 OFFCURVE",
"145 51 OFFCURVE",
"145 56 CURVE SMOOTH",
"145 61 OFFCURVE",
"153 59 OFFCURVE",
"153 65 CURVE",
"150 73 LINE",
"162 65 LINE",
"146 109 LINE"
);
},
{
closed = 1;
nodes = (
"355 64 LINE",
"370 73 LINE",
"372 71 OFFCURVE",
"374 69 OFFCURVE",
"374 66 CURVE SMOOTH",
"374 63 OFFCURVE",
"364 63 OFFCURVE",
"364 55 CURVE SMOOTH",
"364 47 OFFCURVE",
"374 52 OFFCURVE",
"374 46 CURVE SMOOTH",
"374 40 OFFCURVE",
"364 45 OFFCURVE",
"364 35 CURVE SMOOTH",
"364 25 OFFCURVE",
"374 32 OFFCURVE",
"374 25 CURVE SMOOTH",
"374 18 OFFCURVE",
"364 22 OFFCURVE",
"364 15 CURVE SMOOTH",
"364 8 OFFCURVE",
"371 6 OFFCURVE",
"372 3 CURVE",
"376 5 LINE",
"374 8 OFFCURVE",
"370 11 OFFCURVE",
"370 14 CURVE SMOOTH",
"370 17 OFFCURVE",
"380 18 OFFCURVE",
"380 25 CURVE SMOOTH",
"380 32 OFFCURVE",
"370 31 OFFCURVE",
"370 35 CURVE SMOOTH",
"370 39 OFFCURVE",
"380 39 OFFCURVE",
"380 46 CURVE SMOOTH",
"380 53 OFFCURVE",
"372 51 OFFCURVE",
"372 56 CURVE SMOOTH",
"372 61 OFFCURVE",
"380 59 OFFCURVE",
"380 65 CURVE",
"377 73 LINE",
"389 65 LINE",
"373 109 LINE"
);
}
);
width = 600;
}
);
unicode = 0049;
},
{
glyphname = J;
lastChange = "2017-12-09 16:12:19 +0000";
layers = (
{
backgroundImage = {
crop = "{{0, 0}, {943, 391}}";
imagePath = "../../../../Desktop/Capture d’écran 2017-12-08 à 15.12.10.png";
transform = "{4.153, 0, 0, 4.153, -961, -873}";
};
layerId = "0976EF58-E9BF-471C-8466-D2D06D69E717";
paths = (
{
closed = 0;
nodes = (
"611.487 281.572 LINE",
"606.574 299.588 OFFCURVE",
"597.218 309.594 OFFCURVE",
"585.911 322.924 CURVE SMOOTH",
"580.876 328.86 OFFCURVE",
"581.72 341.126 OFFCURVE",
"575.803 344.108 CURVE SMOOTH",
"574.656 344.686 OFFCURVE",
"545.168 323.468 OFFCURVE",
"540.579 321.208 CURVE SMOOTH",
"533.969 317.952 OFFCURVE",
"524.567 316.892 OFFCURVE",
"514.257 316.892 CURVE SMOOTH",
"495.034 316.892 OFFCURVE",
"472.651 320.575 OFFCURVE",
"459.294 320.575 CURVE SMOOTH",
"451.971 320.575 OFFCURVE",
"438.302 318.569 OFFCURVE",
"426.486 318.569 CURVE SMOOTH",
"419.806 318.569 OFFCURVE",
"413.718 319.21 OFFCURVE",
"409.704 321.217 CURVE SMOOTH",
"408.089 322.024 OFFCURVE",
"406.575 323.019 OFFCURVE",
"404.995 323.893 CURVE SMOOTH",
"358.013 349.888 OFFCURVE",
"348.727 415.462 OFFCURVE",
"312.183 452.006 CURVE SMOOTH",
"310.371 453.817 OFFCURVE",
"301.227 464.49 OFFCURVE",
"295.382 464.49 CURVE SMOOTH",
"294.365 464.49 OFFCURVE",
"293.448 464.167 OFFCURVE",
"292.687 463.418 CURVE SMOOTH",
"291.225 461.979 OFFCURVE",
"271.363 357.747 OFFCURVE",
"268.789 346.094 CURVE SMOOTH",
"259.411 303.645 OFFCURVE",
"249.435 255.08 OFFCURVE",
"234.6 214.874 CURVE SMOOTH",
"224.996 188.842 OFFCURVE",
"211.074 165.839 OFFCURVE",
"207.259 137.636 CURVE SMOOTH",
"201.936 98.285 OFFCURVE",
"207.457 50.609 OFFCURVE",
"190.793 14.059 CURVE SMOOTH",
"185.189 1.767 OFFCURVE",
"133.809 -7.483 OFFCURVE",
"125.265 -10.549 CURVE SMOOTH",
"96.501 -20.871 OFFCURVE",
"69.804 -35.51 OFFCURVE",
"41.515 -46.665 CURVE SMOOTH",
"2.796 -61.933 OFFCURVE",
"-35.401 -61.804 OFFCURVE",
"-71.493 -87.969 CURVE"
);
},
{
closed = 0;
nodes = (
"-3.632 1.697 LINE",
"28.778 1.697 OFFCURVE",
"61.755 4.345 OFFCURVE",
"94.53 4.345 CURVE SMOOTH",
"117.96 4.345 OFFCURVE",
"141.286 2.992 OFFCURVE",
"164.229 -1.649 CURVE"
);
},
{
closed = 1;
nodes = (
"416.759 -203.44 LINE",
"380.36 -183.964 OFFCURVE",
"341.845 -152.813 OFFCURVE",
"336.622 -108.738 CURVE SMOOTH",
"335.246 -97.128 OFFCURVE",
"336.634 -80.417 OFFCURVE",
"331.262 -69.693 CURVE SMOOTH",
"328.53 -64.238 OFFCURVE",
"324.507 -65.606 OFFCURVE",
"320.091 -61.714 CURVE SMOOTH",
"317.695 -59.601 OFFCURVE",
"312.221 -51.971 OFFCURVE",
"313.261 -54.991 CURVE SMOOTH",
"319.775 -73.905 OFFCURVE",
"324.361 -91.584 OFFCURVE",
"324.361 -111.483 CURVE SMOOTH",
"324.361 -118.515 OFFCURVE",
"325.509 -123.552 OFFCURVE",
"328.666 -129.859 CURVE SMOOTH",
"328.798 -130.122 OFFCURVE",
"332.486 -137.239 OFFCURVE",
"330.286 -135.575 CURVE SMOOTH",
"301.124 -113.518 OFFCURVE",
"283.346 -80.166 OFFCURVE",
"269.84 -47.274 CURVE SMOOTH",
"264.24 -33.634 OFFCURVE",
"255.634 -24.838 OFFCURVE",
"245.617 -14.821 CURVE SMOOTH",
"243.124 -12.328 OFFCURVE",
"235.205 -5.394 OFFCURVE",
"238.156 -7.324 CURVE SMOOTH",
"269.121 -27.583 OFFCURVE",
"257.877 -77.519 OFFCURVE",
"277.313 -103.593 CURVE SMOOTH",
"287.612 -117.408 OFFCURVE",
"392.685 -206.383 OFFCURVE",
"401.61 -206.298 CURVE SMOOTH",
"405.895 -206.258 OFFCURVE",
"412 -204 OFFCURVE",
"416 -203 CURVE"
);
},
{
closed = 1;
nodes = (
"548.164 -201.35 LINE",
"545.359 -196.732 OFFCURVE",
"544.668 -191.679 OFFCURVE",
"544.668 -186.473 CURVE SMOOTH",
"544.668 -181.411 OFFCURVE",
"545.322 -176.203 OFFCURVE",
"545.322 -171.106 CURVE SMOOTH",
"545.322 -167.115 OFFCURVE",
"544.921 -163.193 OFFCURVE",
"543.492 -159.462 CURVE SMOOTH",
"531.539 -128.261 OFFCURVE",
"525 -115.744 OFFCURVE",
"519.753 -82.079 CURVE SMOOTH",
"517.148 -65.37 OFFCURVE",
"515.599 -57.237 OFFCURVE",
"506.131 -44.51 CURVE SMOOTH",
"503.691 -41.23 OFFCURVE",
"499.797 -37.269 OFFCURVE",
"498.584 -33.294 CURVE SMOOTH",
"497.817 -30.776 OFFCURVE",
"497.98 -22.783 OFFCURVE",
"498.174 -25.408 CURVE SMOOTH",
"500.795 -60.801 OFFCURVE",
"503.75 -87.318 OFFCURVE",
"516.373 -120.906 CURVE SMOOTH",
"522.644 -137.592 OFFCURVE",
"530.316 -152.209 OFFCURVE",
"530.316 -171.15 CURVE SMOOTH",
"530.316 -172.337 OFFCURVE",
"530.111 -173.121 OFFCURVE",
"529.353 -172.62 CURVE SMOOTH",
"500.857 -153.739 OFFCURVE",
"491.825 -108.69 OFFCURVE",
"473.73 -81.854 CURVE SMOOTH",
"461.014 -62.996 OFFCURVE",
"444.207 -44.476 OFFCURVE",
"430.066 -25.833 CURVE SMOOTH",
"421.726 -14.839 OFFCURVE",
"416.592 8.871 OFFCURVE",
"413.786 22.839 CURVE SMOOTH",
"412.885 27.324 OFFCURVE",
"412.843 34.981 OFFCURVE",
"410.7 39.004 CURVE SMOOTH",
"409.504 41.251 OFFCURVE",
"408.038 47.787 OFFCURVE",
"407.388 47.787 CURVE SMOOTH",
"407.175 47.787 OFFCURVE",
"407.05 47.086 OFFCURVE",
"407.05 45.304 CURVE SMOOTH",
"407.05 -33.19 OFFCURVE",
"458.767 -80.858 OFFCURVE",
"495.022 -143.178 CURVE SMOOTH",
"506.44 -162.805 OFFCURVE",
"521 -204 OFFCURVE",
"548 -201 CURVE"
);
},
{
closed = 0;
nodes = (
"373.642 353.383 LINE",
"396.67 271.805 OFFCURVE",
"484.877 185.372 OFFCURVE",
"525.317 111.433 CURVE SMOOTH",
"546.508 72.687 OFFCURVE",
"563.754 19.169 OFFCURVE",
"603.096 -5.113 CURVE"
);
},
{
closed = 0;
nodes = (
"391.567 309.362 LINE",
"460.709 309.362 OFFCURVE",
"526.754 311.987 OFFCURVE",
"595.49 311.987 CURVE"
);
},
{
closed = 0;
nodes = (
"396.816 299.302 LINE",
"466.348 299.302 OFFCURVE",
"535.512 302.592 OFFCURVE",
"604.549 302.592 CURVE"
);
},
{
closed = 0;
nodes = (
"405.188 283.844 LINE",
"433.846 283.844 OFFCURVE",
"462.109 284.006 OFFCURVE",
"490.289 284.006 CURVE SMOOTH",
"527.592 284.006 OFFCURVE",
"564.75 283.721 OFFCURVE",
"602.492 282.397 CURVE"
);
},
{
closed = 0;
nodes = (
"413.911 267.106 LINE",
"478.581 267.106 OFFCURVE",
"541.989 270.839 OFFCURVE",
"607.539 269.509 CURVE"
);
},
{
closed = 0;
nodes = (
"424.514 252.218 LINE",
"461.878 252.218 OFFCURVE",
"502.447 255.151 OFFCURVE",
"542.084 255.151 CURVE SMOOTH",
"565.765 255.151 OFFCURVE",
"589.114 254.104 OFFCURVE",
"611.249 250.76 CURVE"
);
},
{
closed = 0;
nodes = (
"434.257 237.984 LINE",
"491.292 237.984 OFFCURVE",
"547.488 234.462 OFFCURVE",
"604.634 234.462 CURVE"
);
},
{
closed = 0;
nodes = (
"452.377 216.799 LINE",
"483.033 216.799 OFFCURVE",
"513.455 222.785 OFFCURVE",
"543.799 222.785 CURVE SMOOTH",
"563.504 222.785 OFFCURVE",
"582.415 216.215 OFFCURVE",
"602.921 217.533 CURVE"
);
},
{
closed = 0;
nodes = (
"457.926 205.238 LINE",
"480.855 205.238 OFFCURVE",
"503.259 205.424 OFFCURVE",
"525.621 205.424 CURVE SMOOTH",
"551.309 205.424 OFFCURVE",
"576.941 205.178 OFFCURVE",
"603.248 204.122 CURVE"
);
},
{
closed = 0;
nodes = (
"469.722 191.808 LINE",
"493.715 191.808 OFFCURVE",
"518.714 196.953 OFFCURVE",
"542.231 196.953 CURVE SMOOTH",
"564.659 196.953 OFFCURVE",
"581.644 188.749 OFFCURVE",
"603.625 191.02 CURVE"
);
},
{
closed = 0;
nodes = (
"479.371 175.179 LINE",
"507.461 175.179 OFFCURVE",
"535.809 179.783 OFFCURVE",
"563.973 179.783 CURVE SMOOTH",
"576.759 179.783 OFFCURVE",
"589.508 178.834 OFFCURVE",
"602.176 176.074 CURVE"
);
},
{
closed = 0;
nodes = (
"484.744 167.046 LINE",
"511.977 167.046 OFFCURVE",
"540.872 169.641 OFFCURVE",
"568.932 169.641 CURVE SMOOTH",
"581.089 169.641 OFFCURVE",
"593.09 169.154 OFFCURVE",
"604.73 167.757 CURVE"
);
},
{
closed = 0;
nodes = (
"496.215 151.525 LINE",
"522.415 151.525 OFFCURVE",
"547.787 158.016 OFFCURVE",
"573.608 158.016 CURVE SMOOTH",
"584.078 158.016 OFFCURVE",
"594.49 151.673 OFFCURVE",
"605.868 151.673 CURVE"
);
},
{
closed = 0;
nodes = (
"511.522 130.494 LINE",
"534.849 131.548 OFFCURVE",
"562.748 138.623 OFFCURVE",
"587.838 138.623 CURVE SMOOTH",
"594.67 138.623 OFFCURVE",
"601.294 138.098 OFFCURVE",
"607.56 136.784 CURVE"
);
},
{
closed = 0;
nodes = (
"519.338 117.274 LINE",
"537.896 117.501 OFFCURVE",
"560.625 121.116 OFFCURVE",
"581.574 121.116 CURVE SMOOTH",
"591.562 121.116 OFFCURVE",
"601.146 120.295 OFFCURVE",
"609.68 117.892 CURVE"
);
},
{
closed = 0;
nodes = (
"527.898 102.942 LINE",
"539.087 102.942 OFFCURVE",
"550.325 103.189 OFFCURVE",
"561.554 103.189 CURVE SMOOTH",
"575.976 103.189 OFFCURVE",
"590.385 102.782 OFFCURVE",
"604.659 100.918 CURVE"
);
},
{
closed = 0;
nodes = (
"535.953 87.202 LINE",
"559.192 87.202 OFFCURVE",
"582.49 87.067 OFFCURVE",
"605.729 86.533 CURVE"
);
},
{
closed = 0;
nodes = (
"544.926 70.689 LINE",
"564.649 70.689 OFFCURVE",
"584.343 70.183 OFFCURVE",
"604.056 70.183 CURVE"
);
},
{
closed = 0;
nodes = (
"549.979 59.113 LINE",
"567.707 59.113 OFFCURVE",
"585.408 59.224 OFFCURVE",
"603.127 58.633 CURVE"
);
},
{
closed = 0;
nodes = (
"556.535 43.274 LINE",
"572.939 43.274 OFFCURVE",
"589.155 42.915 OFFCURVE",
"605.449 44.072 CURVE"
);
},
{
closed = 0;
nodes = (
"562.099 32.2 LINE",
"576.067 32.35 OFFCURVE",
"590.035 32.329 OFFCURVE",
"604.002 32.166 CURVE"
);
},
{
closed = 0;
nodes = (
"572.406 20.076 LINE",
"583.936 20.076 OFFCURVE",
"595.327 19.611 OFFCURVE",
"606.757 18.062 CURVE"
);
},
{
closed = 0;
nodes = (
"587.357 4.723 LINE",
"596.442 4.805 OFFCURVE",
"602.813 4.547 OFFCURVE",
"612.307 4.045 CURVE"
);
}
);
width = 600;
}
);
unicode = 004A;
},
{
glyphname = K;
lastChange = "2017-12-09 16:15:03 +0000";
layers = (
{
backgroundImage = {
crop = "{{0, 0}, {943, 391}}";
imagePath = "../../../../Desktop/Capture d’écran 2017-12-08 à 15.12.10.png";
transform = "{4.153, 0, 0, 4.153, -2671, -873}";
};
layerId = "0976EF58-E9BF-471C-8466-D2D06D69E717";
paths = (
{
closed = 0;
nodes = (
"-2.567 97.189 LINE",
"16.018 97.189 OFFCURVE",
"19.028 96.433 OFFCURVE",
"19.028 94.83 CURVE SMOOTH",
"19.028 94.062 OFFCURVE",
"18.337 93.101 OFFCURVE",
"18.337 91.935 CURVE SMOOTH",
"18.337 90.5 OFFCURVE",
"19.383 88.757 OFFCURVE",
"24.047 86.686 CURVE SMOOTH",
"33.492 82.493 OFFCURVE",
"51.835 90.118 OFFCURVE",
"63.216 88.164 CURVE SMOOTH",
"113.995 79.443 OFFCURVE",
"159.829 61.179 OFFCURVE",
"209.697 50.48 CURVE SMOOTH",
"214.891 49.365 OFFCURVE",
"220.544 48.987 OFFCURVE",
"226.44 48.987 CURVE SMOOTH",
"238.947 48.987 OFFCURVE",
"252.548 50.69 OFFCURVE",
"265.186 50.69 CURVE SMOOTH",
"275.896 50.69 OFFCURVE",
"285.913 49.467 OFFCURVE",
"293.986 44.947 CURVE SMOOTH",
"306.795 37.775 OFFCURVE",
"308.143 0.504 OFFCURVE",
"312.53 -2.289 CURVE SMOOTH",
"330.204 -13.541 OFFCURVE",
"362.467 -10.33 OFFCURVE",
"382.024 -14.87 CURVE SMOOTH",
"398.402 -18.671 OFFCURVE",
"413.21 -27.686 OFFCURVE",
"429.445 -31.536 CURVE SMOOTH",
"455.081 -37.616 OFFCURVE",
"480.723 -38.921 OFFCURVE",
"506.105 -45.806 CURVE SMOOTH",
"544.991 -56.353 OFFCURVE",
"582.101 -81.157 OFFCURVE",
"619.535 -94.138 CURVE"
);
},
{
closed = 0;
nodes = (
"306.682 3.118 LINE",
"355.518 3.118 OFFCURVE",
"405.756 -5 OFFCURVE",
"454.893 -5 CURVE SMOOTH",
"465.028 -5 OFFCURVE",
"475.116 -4.655 OFFCURVE",
"485.135 -3.822 CURVE SMOOTH",
"514.648 -1.367 OFFCURVE",
"547.23 6.067 OFFCURVE",
"578.217 6.067 CURVE SMOOTH",
"588.443 6.067 OFFCURVE",
"598.495 5.258 OFFCURVE",
"608.205 3.192 CURVE"
);
},
{
closed = 0;
nodes = (
"0.326 40.902 LINE",
"34.659 40.902 OFFCURVE",
"67.193 33.647 OFFCURVE",
"100.798 33.647 CURVE SMOOTH",
"114.755 33.647 OFFCURVE",
"129.38 34.771 OFFCURVE",
"143.544 34.771 CURVE SMOOTH",
"173.906 34.771 OFFCURVE",
"202.154 29.605 OFFCURVE",
"217.182 -2.874 CURVE"
);
},
{
closed = 0;
nodes = (
"-6.007 2.804 LINE",
"32.111 2.804 OFFCURVE",
"71.59 5.853 OFFCURVE",
"110.398 5.853 CURVE SMOOTH",
"126.359 5.853 OFFCURVE",
"142.206 5.337 OFFCURVE",
"157.798 3.881 CURVE SMOOTH",
"179.706 1.836 OFFCURVE",
"200.46 -3.575 OFFCURVE",
"223.092 -3.575 CURVE SMOOTH",
"255.026 -3.575 OFFCURVE",
"286.525 1.674 OFFCURVE",
"318.53 1.674 CURVE"
);
},
{
closed = 0;
nodes = (
"-1.182 83.799 LINE",
"43.51 83.799 OFFCURVE",
"86.286 68.439 OFFCURVE",
"130.854 71.866 CURVE"
);
},
{
closed = 0;
nodes = (
"-2.973 66.869 LINE",
"64.87 66.869 OFFCURVE",
"133.324 52.744 OFFCURVE",
"201.781 52.744 CURVE"
);
},
{
closed = 0;
nodes = (
"-1.005 52.827 LINE",
"40.698 52.827 OFFCURVE",
"79.571 40.845 OFFCURVE",
"121.86 40.845 CURVE SMOOTH",
"136.264 40.845 OFFCURVE",
"150.767 41.99 OFFCURVE",
"165.147 41.99 CURVE SMOOTH",
"172.429 41.99 OFFCURVE",
"179.679 41.696 OFFCURVE",
"186.868 40.812 CURVE SMOOTH",
"195.95 39.694 OFFCURVE",
"202.367 35.52 OFFCURVE",
"211.076 33.041 CURVE SMOOTH",
"227.822 28.275 OFFCURVE",
"282.901 30.614 OFFCURVE",
"306.12 28.959 CURVE"
);
},
{
closed = 0;
nodes = (
"203.646 15.092 LINE",
"240.199 15.092 OFFCURVE",
"275.055 10.977 OFFCURVE",
"310.915 5.565 CURVE"
);
},
{
closed = 0;
nodes = (
"-2.418 19.067 LINE",
"20.867 19.067 OFFCURVE",
"44.309 18.929 OFFCURVE",
"67.766 18.929 CURVE SMOOTH",
"99.205 18.929 OFFCURVE",
"130.669 19.177 OFFCURVE",
"161.814 20.341 CURVE SMOOTH",
"175.68 20.859 OFFCURVE",
"187.23 25.248 OFFCURVE",
"201.3 24.052 CURVE"
);
},
{
closed = 0;
nodes = (
"26.981 1.83 LINE",
"37.274 -0.944 OFFCURVE",
"46.123 -6.406 OFFCURVE",
"56.501 -9.082 CURVE"
);
},
{
closed = 0;
nodes = (
"77.293 6.274 LINE",
"94.953 2.157 OFFCURVE",
"107.749 -9.868 OFFCURVE",
"125.308 -14.888 CURVE"
);
},
{
closed = 0;
nodes = (
"130.304 7.049 LINE",
"152.338 0.63 OFFCURVE",
"171.359 -10.369 OFFCURVE",
"192.475 -19.161 CURVE"
);
},
{
closed = 0;
nodes = (
"199.621 -1.589 LINE",
"223.708 -1.589 OFFCURVE",
"237.739 -9.531 OFFCURVE",
"256.94 -22.927 CURVE"
);
},
{
closed = 0;
nodes = (
"262.563 -0.226 LINE",
"282.774 -8.155 OFFCURVE",
"306.658 -13.411 OFFCURVE",
"322.709 -28.55 CURVE"
);
},
{
closed = 0;
nodes = (
"336.64 -9.639 LINE",
"355.169 -14.949 OFFCURVE",
"374.527 -25.851 OFFCURVE",
"391.197 -35.887 CURVE"
);
},
{
closed = 0;
nodes = (
"21.49 -18.46 LINE",
"38.085 -31.536 OFFCURVE",
"51.886 -43.059 OFFCURVE",
"71.311 -50.768 CURVE"
);
},
{
closed = 0;
nodes = (
"82.352 -23.075 LINE",
"106.898 -25.736 OFFCURVE",
"123.653 -36.51 OFFCURVE",
"142.766 -51.041 CURVE"
);
},
{
closed = 0;
nodes = (
"152.062 -30.053 LINE",
"168.848 -40.252 OFFCURVE",
"183.651 -50.276 OFFCURVE",
"201.845 -57.256 CURVE"
);
},
{
closed = 0;
nodes = (
"215.328 -33.488 LINE",
"233.614 -43.218 OFFCURVE",
"254.801 -50.127 OFFCURVE",
"270.123 -64.585 CURVE"
);
},
{
closed = 0;
nodes = (
"280.949 -38.029 LINE",
"299.612 -47.097 OFFCURVE",
"318.474 -59.744 OFFCURVE",
"334.973 -72.53 CURVE"
);
},
{
closed = 0;
nodes = (
"346.559 -44.058 LINE",
"365.064 -52.61 OFFCURVE",
"381.457 -63.62 OFFCURVE",
"398.452 -74.843 CURVE"
);
},
{
closed = 0;
nodes = (
"411.612 -47.765 LINE",
"435.087 -51.749 OFFCURVE",
"446.307 -64.054 OFFCURVE",
"463.123 -77.901 CURVE"
);
},
{
closed = 0;
nodes = (
"481.061 -51.909 LINE",
"501.903 -58.773 OFFCURVE",
"521.422 -71.027 OFFCURVE",
"538.68 -84.498 CURVE"
);
},
{
closed = 0;
nodes = (
"33.819 -63.129 LINE",
"48.831 -79.682 OFFCURVE",
"65.431 -89.594 OFFCURVE",
"83.629 -101.793 CURVE"
);
},
{
closed = 0;
nodes = (
"96.948 -67.545 LINE",
"115.535 -72.602 OFFCURVE",
"126.326 -92.726 OFFCURVE",
"142.241 -103.265 CURVE"
);
},
{
closed = 0;
nodes = (
"163.388 -75.182 LINE",
"180.609 -86.43 OFFCURVE",
"197.86 -97.39 OFFCURVE",
"213.992 -110.135 CURVE"
);
},
{
closed = 0;
nodes = (
"228.351 -78.298 LINE",
"246.497 -87.887 OFFCURVE",
"260.988 -102.633 OFFCURVE",
"275.618 -116.806 CURVE"
);
},
{
closed = 0;
nodes = (
"295.549 -82.889 LINE",
"315.618 -91.908 OFFCURVE",
"331.202 -106.301 OFFCURVE",
"346.952 -121.363 CURVE"
);
},
{
closed = 0;
nodes = (
"357.74 -89.046 LINE",
"376.132 -99.51 OFFCURVE",
"390.745 -111.875 OFFCURVE",
"406.627 -125.46 CURVE"
);
},
{
closed = 0;
nodes = (
"427.1 -90.351 LINE",
"447.441 -100.354 OFFCURVE",
"466.769 -108.214 OFFCURVE",
"477.646 -128.883 CURVE"
);
},
{
closed = 0;
nodes = (
"491.88 -96.8 LINE",
"504.185 -109.636 OFFCURVE",
"516.692 -124.748 OFFCURVE",
"530.587 -135.628 CURVE"
);
},
{
closed = 0;
nodes = (
"561.135 -101.516 LINE",
"579.216 -112.498 OFFCURVE",
"596.594 -123.772 OFFCURVE",
"611.79 -138.592 CURVE"
);
},
{
closed = 0;
nodes = (
"38.532 -116.319 LINE",
"51.284 -135.109 OFFCURVE",
"68.06 -145.192 OFFCURVE",
"86.94 -156.818 CURVE"
);
},
{
closed = 0;
nodes = (
"102.443 -119.178 LINE",
"122.089 -134.831 OFFCURVE",
"137.576 -150.797 OFFCURVE",
"159.879 -161.787 CURVE"
);
},
{
closed = 0;
nodes = (
"164.575 -124.646 LINE",
"180.552 -141.526 OFFCURVE",
"196.272 -155.354 OFFCURVE",
"214.892 -168.957 CURVE"
);
},
{
closed = 0;
nodes = (
"234.383 -132.664 LINE",
"251.555 -145.391 OFFCURVE",
"267.008 -160.412 OFFCURVE",
"285.708 -170.736 CURVE"
);
},
{
closed = 0;
nodes = (
"300.005 -133.755 LINE",
"311.905 -152.767 OFFCURVE",
"329.229 -164.355 OFFCURVE",
"345.316 -179.277 CURVE"
);
},
{
closed = 0;
nodes = (
"365.131 -141.158 LINE",
"380.611 -156.129 OFFCURVE",
"401.492 -169.15 OFFCURVE",
"415.23 -185.407 CURVE"
);
},
{
closed = 0;
nodes = (
"428.436 -144.901 LINE",
"437.94 -160.348 OFFCURVE",
"454.534 -181.439 OFFCURVE",
"471.886 -189.153 CURVE"
);
},
{
closed = 0;
nodes = (
"493.788 -152.32 LINE",
"510.083 -167.859 OFFCURVE",
"525.887 -183.86 OFFCURVE",
"542.905 -198.679 CURVE"
);
},
{
closed = 0;
nodes = (
"561.31 -163.282 LINE",
"573.902 -178.789 OFFCURVE",
"586.606 -195.544 OFFCURVE",
"603.421 -206.554 CURVE"
);
}
);
width = 600;
}
);
unicode = 004B;
},
{
glyphname = L;
lastChange = "2017-12-09 16:42:06 +0000";
layers = (
{
backgroundImage = {
crop = "{{0, 0}, {943, 391}}";
imagePath = "../../../../Desktop/Capture d’écran 2017-12-08 à 15.12.10.png";
transform = "{4.153, 0, 0, 4.153, -1, -873}";
};
layerId = "0976EF58-E9BF-471C-8466-D2D06D69E717";
paths = (
{
closed = 1;
nodes = (
"206 645 LINE",
"206 -200 LINE",
"213 -200 LINE",
"213 645 LINE"
);
},
{
closed = 1;
nodes = (
"206 639 LINE",
"601 639 LINE",
"601 646 LINE",
"206 646 LINE"
);
},
{
closed = 1;
nodes = (
"77 494 OFFCURVE",
"77 493 OFFCURVE",
"82 493 CURVE",
"82 493 OFFCURVE",
"83 492 OFFCURVE",
"83 492 CURVE",
"83 492 OFFCURVE",
"82 491 OFFCURVE",
"82 491 CURVE",
"67 491 LINE",
"67 491 OFFCURVE",
"67 492 OFFCURVE",
"67 492 CURVE",
"67 492 OFFCURVE",
"67 493 OFFCURVE",
"67 493 CURVE",
"72 493 OFFCURVE",
"73 494 OFFCURVE",
"73 497 CURVE",
"73 507 LINE",
"73 508 OFFCURVE",
"72 508 OFFCURVE",
"72 508 CURVE",
"67 508 LINE",
"66 508 OFFCURVE",
"66 508 OFFCURVE",
"66 508 CURVE",
"66 509 OFFCURVE",
"66 509 OFFCURVE",
"67 509 CURVE",
"76 511 LINE",
"76 511 OFFCURVE",
"76 511 OFFCURVE",
"76 511 CURVE",
"77 511 OFFCURVE",
"77 511 OFFCURVE",
"77 510 CURVE",
"77 497 LINE"
);
},
{
closed = 1;
nodes = (
"102 511 OFFCURVE",
"102 511 OFFCURVE",
"102 510 CURVE",
"102 508 LINE",
"102 508 OFFCURVE",
"102 508 OFFCURVE",
"101 508 CURVE",
"90 508 LINE",
"90 501 LINE",
"99 499 OFFCURVE",
"102 496 OFFCURVE",
"102 491 CURVE",
"102 485 OFFCURVE",
"99 481 OFFCURVE",
"91 481 CURVE",
"89 481 OFFCURVE",
"86 482 OFFCURVE",
"86 483 CURVE",
"86 483 OFFCURVE",
"86 484 OFFCURVE",
"87 484 CURVE",
"87 484 OFFCURVE",
"88 483 OFFCURVE",
"90 483 CURVE",
"97 483 OFFCURVE",
"98 486 OFFCURVE",
"98 488 CURVE",
"98 493 OFFCURVE",
"95 497 OFFCURVE",
"88 499 CURVE",
"88 499 OFFCURVE",
"88 499 OFFCURVE",
"88 499 CURVE",
"88 500 OFFCURVE",
"88 500 OFFCURVE",
"88 500 CURVE",
"89 510 LINE",
"89 511 OFFCURVE",
"89 511 OFFCURVE",
"90 511 CURVE",
"102 511 LINE"
);
},
{
closed = 1;
nodes = (
"125 511 OFFCURVE",
"128 508 OFFCURVE",
"128 500 CURVE",
"128 495 OFFCURVE",
"125 491 OFFCURVE",
"120 491 CURVE",
"112 491 OFFCURVE",
"108 495 OFFCURVE",
"108 500 CURVE",
"108 508 OFFCURVE",
"112 511 OFFCURVE",
"120 511 CURVE"
);
},
{
closed = 1;
nodes = (
"124 493 OFFCURVE",
"126 496 OFFCURVE",
"126 500 CURVE",
"126 506 OFFCURVE",
"124 509 OFFCURVE",
"120 509 CURVE",
"114 509 OFFCURVE",
"112 506 OFFCURVE",
"112 500 CURVE",
"112 496 OFFCURVE",
"114 493 OFFCURVE",
"120 493 CURVE"
);
},
{
closed = 1;
nodes = (
"168 510 OFFCURVE",
"170 511 OFFCURVE",
"172 511 CURVE",
"175 511 OFFCURVE",
"177 510 OFFCURVE",
"177 507 CURVE",
"177 495 LINE",
"177 493 OFFCURVE",
"179 493 OFFCURVE",
"181 493 CURVE",
"181 493 OFFCURVE",
"181 492 OFFCURVE",
"181 492 CURVE",
"181 492 OFFCURVE",
"181 491 OFFCURVE",
"181 491 CURVE",
"170 491 LINE",
"170 491 OFFCURVE",
"170 492 OFFCURVE",
"170 492 CURVE",
"170 492 OFFCURVE",
"170 493 OFFCURVE",
"170 493 CURVE",
"174 493 OFFCURVE",
"174 493 OFFCURVE",
"174 500 CURVE",
"174 505 LINE",
"174 508 OFFCURVE",
"171 509 OFFCURVE",
"170 509 CURVE",
"168 509 OFFCURVE",
"167 508 OFFCURVE",
"164 507 CURVE",
"164 495 LINE",
"164 493 OFFCURVE",
"165 493 OFFCURVE",
"168 493 CURVE",
"168 493 OFFCURVE",
"168 492 OFFCURVE",
"168 492 CURVE",
"168 492 OFFCURVE",
"168 491 OFFCURVE",
"168 491 CURVE",
"157 491 LINE",
"157 491 OFFCURVE",
"157 492 OFFCURVE",
"157 492 CURVE",
"157 492 OFFCURVE",
"157 493 OFFCURVE",
"157 493 CURVE",
"160 493 OFFCURVE",
"160 493 OFFCURVE",
"160 500 CURVE",
"160 505 LINE",
"160 508 OFFCURVE",
"158 509 OFFCURVE",
"157 509 CURVE",
"155 509 OFFCURVE",
"153 508 OFFCURVE",
"150 507 CURVE",
"150 495 LINE",
"150 493 OFFCURVE",
"152 493 OFFCURVE",
"155 493 CURVE",
"155 493 OFFCURVE",
"155 492 OFFCURVE",
"155 492 CURVE",
"155 492 OFFCURVE",
"155 491 OFFCURVE",
"155 491 CURVE",
"144 491 LINE",
"144 491 OFFCURVE",
"144 492 OFFCURVE",
"144 492 CURVE",
"144 492 OFFCURVE",
"144 493 OFFCURVE",
"144 493 CURVE",
"146 493 OFFCURVE",
"147 493 OFFCURVE",
"147 495 CURVE",
"147 496 OFFCURVE",
"147 498 OFFCURVE",
"147 499 CURVE",
"147 501 LINE",
"147 506 OFFCURVE",
"147 509 OFFCURVE",
"145 509 CURVE",
"144 509 LINE",
"144 509 OFFCURVE",
"143 509 OFFCURVE",
"143 509 CURVE",
"143 510 OFFCURVE",
"144 510 OFFCURVE",
"144 510 CURVE",
"145 510 OFFCURVE",
"148 511 OFFCURVE",
"149 511 CURVE",
"150 511 OFFCURVE",
"150 510 OFFCURVE",
"150 508 CURVE",
"153 509 LINE",
"155 510 OFFCURVE",
"157 511 OFFCURVE",
"159 511 CURVE",
"161 511 OFFCURVE",
"163 510 OFFCURVE",
"164 508 CURVE",
"167 509 LINE"
);
},
{
closed = 1;
nodes = (
"188 497 LINE",
"207 497 LINE",
"207 504 LINE",
"188 504 LINE"
);
},
{
closed = 1;
nodes = (
"188 331 LINE",
"207 331 LINE",
"207 338 LINE",
"188 338 LINE"
);
},
{
closed = 1;
nodes = (
"188 165 LINE",
"207 165 LINE",
"207 172 LINE",
"188 172 LINE"
);
},
{
closed = 1;
nodes = (
"188 0 LINE",
"207 0 LINE",
"207 7 LINE",
"188 7 LINE"
);
},
{
closed = 1;
nodes = (
"188 -167 LINE",
"207 -167 LINE",
"207 -160 LINE",
"188 -160 LINE"
);
},
{
closed = 1;
nodes = (
"168 343 OFFCURVE",
"170 344 OFFCURVE",
"172 344 CURVE",
"175 344 OFFCURVE",
"177 343 OFFCURVE",
"177 340 CURVE",
"177 328 LINE",
"177 326 OFFCURVE",
"179 326 OFFCURVE",
"181 326 CURVE",
"181 326 OFFCURVE",
"181 325 OFFCURVE",
"181 325 CURVE",
"181 325 OFFCURVE",
"181 324 OFFCURVE",
"181 324 CURVE",
"170 324 LINE",
"170 324 OFFCURVE",
"170 325 OFFCURVE",
"170 325 CURVE",
"170 325 OFFCURVE",
"170 326 OFFCURVE",
"170 326 CURVE",
"174 326 OFFCURVE",
"174 326 OFFCURVE",
"174 333 CURVE",
"174 338 LINE",
"174 341 OFFCURVE",
"171 342 OFFCURVE",
"170 342 CURVE",
"168 342 OFFCURVE",
"167 341 OFFCURVE",
"164 340 CURVE",
"164 328 LINE",
"164 326 OFFCURVE",
"165 326 OFFCURVE",
"168 326 CURVE",
"168 326 OFFCURVE",
"168 325 OFFCURVE",
"168 325 CURVE",
"168 325 OFFCURVE",
"168 324 OFFCURVE",
"168 324 CURVE",
"157 324 LINE",
"157 324 OFFCURVE",
"157 325 OFFCURVE",
"157 325 CURVE",
"157 325 OFFCURVE",
"157 326 OFFCURVE",
"157 326 CURVE",
"160 326 OFFCURVE",
"160 326 OFFCURVE",
"160 333 CURVE",
"160 338 LINE",
"160 341 OFFCURVE",
"158 342 OFFCURVE",
"157 342 CURVE",
"155 342 OFFCURVE",
"153 341 OFFCURVE",
"150 340 CURVE",
"150 328 LINE",
"150 326 OFFCURVE",
"152 326 OFFCURVE",
"155 326 CURVE",
"155 326 OFFCURVE",
"155 325 OFFCURVE",
"155 325 CURVE",
"155 325 OFFCURVE",
"155 324 OFFCURVE",
"155 324 CURVE",
"144 324 LINE",
"144 324 OFFCURVE",
"144 325 OFFCURVE",
"144 325 CURVE",
"144 325 OFFCURVE",
"144 326 OFFCURVE",
"144 326 CURVE",
"146 326 OFFCURVE",
"147 326 OFFCURVE",
"147 328 CURVE",
"147 329 OFFCURVE",
"147 331 OFFCURVE",
"147 332 CURVE",
"147 334 LINE",
"147 339 OFFCURVE",
"147 342 OFFCURVE",
"145 342 CURVE",
"144 342 LINE",
"144 342 OFFCURVE",
"143 342 OFFCURVE",
"143 342 CURVE",
"143 343 OFFCURVE",
"144 343 OFFCURVE",
"144 343 CURVE",
"145 343 OFFCURVE",
"148 344 OFFCURVE",
"149 344 CURVE",
"150 344 OFFCURVE",
"150 343 OFFCURVE",
"150 341 CURVE",
"153 342 LINE",
"155 343 OFFCURVE",
"157 344 OFFCURVE",
"159 344 CURVE",
"161 344 OFFCURVE",
"163 343 OFFCURVE",
"164 341 CURVE",
"167 342 LINE"
);
},
{
closed = 1;
nodes = (
"168 175 OFFCURVE",
"170 176 OFFCURVE",
"172 176 CURVE",
"175 176 OFFCURVE",
"177 175 OFFCURVE",
"177 172 CURVE",
"177 160 LINE",
"177 158 OFFCURVE",
"179 158 OFFCURVE",
"181 158 CURVE",
"181 158 OFFCURVE",
"181 157 OFFCURVE",
"181 157 CURVE",
"181 157 OFFCURVE",
"181 156 OFFCURVE",
"181 156 CURVE",
"170 156 LINE",
"170 156 OFFCURVE",
"170 157 OFFCURVE",
"170 157 CURVE",
"170 157 OFFCURVE",
"170 158 OFFCURVE",
"170 158 CURVE",
"174 158 OFFCURVE",
"174 158 OFFCURVE",
"174 165 CURVE",
"174 170 LINE",
"174 173 OFFCURVE",
"171 174 OFFCURVE",
"170 174 CURVE",
"168 174 OFFCURVE",
"167 173 OFFCURVE",
"164 172 CURVE",
"164 160 LINE",
"164 158 OFFCURVE",
"165 158 OFFCURVE",
"168 158 CURVE",
"168 158 OFFCURVE",
"168 157 OFFCURVE",
"168 157 CURVE",
"168 157 OFFCURVE",
"168 156 OFFCURVE",
"168 156 CURVE",
"157 156 LINE",
"157 156 OFFCURVE",
"157 157 OFFCURVE",
"157 157 CURVE",
"157 157 OFFCURVE",
"157 158 OFFCURVE",
"157 158 CURVE",
"160 158 OFFCURVE",
"160 158 OFFCURVE",
"160 165 CURVE",
"160 170 LINE",
"160 173 OFFCURVE",
"158 174 OFFCURVE",
"157 174 CURVE",
"155 174 OFFCURVE",
"153 173 OFFCURVE",
"150 172 CURVE",
"150 160 LINE",
"150 158 OFFCURVE",
"152 158 OFFCURVE",
"155 158 CURVE",
"155 158 OFFCURVE",
"155 157 OFFCURVE",
"155 157 CURVE",
"155 157 OFFCURVE",
"155 156 OFFCURVE",
"155 156 CURVE",
"144 156 LINE",
"144 156 OFFCURVE",
"144 157 OFFCURVE",
"144 157 CURVE",
"144 157 OFFCURVE",
"144 158 OFFCURVE",
"144 158 CURVE",
"146 158 OFFCURVE",
"147 158 OFFCURVE",
"147 160 CURVE",
"147 161 OFFCURVE",
"147 163 OFFCURVE",
"147 164 CURVE",
"147 166 LINE",
"147 171 OFFCURVE",
"147 174 OFFCURVE",
"145 174 CURVE",
"144 174 LINE",
"144 174 OFFCURVE",
"143 174 OFFCURVE",
"143 174 CURVE",
"143 175 OFFCURVE",
"144 175 OFFCURVE",
"144 175 CURVE",
"145 175 OFFCURVE",
"148 176 OFFCURVE",
"149 176 CURVE",
"150 176 OFFCURVE",
"150 175 OFFCURVE",
"150 173 CURVE",
"153 174 LINE",
"155 175 OFFCURVE",
"157 176 OFFCURVE",
"159 176 CURVE",
"161 176 OFFCURVE",
"163 175 OFFCURVE",
"164 173 CURVE",
"167 174 LINE"
);
},
{
closed = 1;
nodes = (
"168 11 OFFCURVE",
"170 12 OFFCURVE",
"172 12 CURVE",
"175 12 OFFCURVE",
"177 11 OFFCURVE",
"177 8 CURVE",
"177 -4 LINE",
"177 -6 OFFCURVE",
"179 -6 OFFCURVE",
"181 -6 CURVE",
"181 -6 OFFCURVE",
"181 -7 OFFCURVE",
"181 -7 CURVE",
"181 -7 OFFCURVE",
"181 -8 OFFCURVE",
"181 -8 CURVE",
"170 -8 LINE",
"170 -8 OFFCURVE",
"170 -7 OFFCURVE",
"170 -7 CURVE",
"170 -7 OFFCURVE",
"170 -6 OFFCURVE",
"170 -6 CURVE",
"174 -6 OFFCURVE",
"174 -6 OFFCURVE",
"174 1 CURVE",
"174 6 LINE",
"174 9 OFFCURVE",
"171 10 OFFCURVE",
"170 10 CURVE",
"168 10 OFFCURVE",
"167 9 OFFCURVE",
"164 8 CURVE",
"164 -4 LINE",
"164 -6 OFFCURVE",
"165 -6 OFFCURVE",
"168 -6 CURVE",
"168 -6 OFFCURVE",
"168 -7 OFFCURVE",
"168 -7 CURVE",
"168 -7 OFFCURVE",
"168 -8 OFFCURVE",
"168 -8 CURVE",
"157 -8 LINE",
"157 -8 OFFCURVE",
"157 -7 OFFCURVE",
"157 -7 CURVE",
"157 -7 OFFCURVE",
"157 -6 OFFCURVE",
"157 -6 CURVE",
"160 -6 OFFCURVE",
"160 -6 OFFCURVE",
"160 1 CURVE",
"160 6 LINE",
"160 9 OFFCURVE",
"158 10 OFFCURVE",
"157 10 CURVE",
"155 10 OFFCURVE",
"153 9 OFFCURVE",
"150 8 CURVE",
"150 -4 LINE",
"150 -6 OFFCURVE",
"152 -6 OFFCURVE",
"155 -6 CURVE",
"155 -6 OFFCURVE",
"155 -7 OFFCURVE",
"155 -7 CURVE",
"155 -7 OFFCURVE",
"155 -8 OFFCURVE",
"155 -8 CURVE",
"144 -8 LINE",
"144 -8 OFFCURVE",
"144 -7 OFFCURVE",
"144 -7 CURVE",
"144 -7 OFFCURVE",
"144 -6 OFFCURVE",
"144 -6 CURVE",
"146 -6 OFFCURVE",
"147 -6 OFFCURVE",
"147 -4 CURVE",
"147 -3 OFFCURVE",
"147 -1 OFFCURVE",
"147 0 CURVE",
"147 2 LINE",
"147 7 OFFCURVE",
"147 10 OFFCURVE",
"145 10 CURVE",
"144 10 LINE",
"144 10 OFFCURVE",
"143 10 OFFCURVE",
"143 10 CURVE",
"143 11 OFFCURVE",
"144 11 OFFCURVE",
"144 11 CURVE",
"145 11 OFFCURVE",
"148 12 OFFCURVE",
"149 12 CURVE",
"150 12 OFFCURVE",
"150 11 OFFCURVE",
"150 9 CURVE",
"153 10 LINE",
"155 11 OFFCURVE",
"157 12 OFFCURVE",
"159 12 CURVE",
"161 12 OFFCURVE",
"163 11 OFFCURVE",
"164 9 CURVE",
"167 10 LINE"
);
},
{
closed = 1;
nodes = (
"168 -157 OFFCURVE",
"170 -156 OFFCURVE",
"172 -156 CURVE",
"175 -156 OFFCURVE",
"177 -157 OFFCURVE",
"177 -160 CURVE",
"177 -172 LINE",
"177 -174 OFFCURVE",
"179 -174 OFFCURVE",
"181 -174 CURVE",
"181 -174 OFFCURVE",
"181 -175 OFFCURVE",
"181 -175 CURVE",
"181 -175 OFFCURVE",
"181 -176 OFFCURVE",
"181 -176 CURVE",
"170 -176 LINE",
"170 -176 OFFCURVE",
"170 -175 OFFCURVE",
"170 -175 CURVE",
"170 -175 OFFCURVE",
"170 -174 OFFCURVE",
"170 -174 CURVE",
"174 -174 OFFCURVE",
"174 -174 OFFCURVE",
"174 -167 CURVE",
"174 -162 LINE",
"174 -159 OFFCURVE",
"171 -158 OFFCURVE",
"170 -158 CURVE",
"168 -158 OFFCURVE",
"167 -159 OFFCURVE",
"164 -160 CURVE",
"164 -172 LINE",
"164 -174 OFFCURVE",
"165 -174 OFFCURVE",
"168 -174 CURVE",
"168 -174 OFFCURVE",
"168 -175 OFFCURVE",
"168 -175 CURVE",
"168 -175 OFFCURVE",
"168 -176 OFFCURVE",
"168 -176 CURVE",
"157 -176 LINE",
"157 -176 OFFCURVE",
"157 -175 OFFCURVE",
"157 -175 CURVE",
"157 -175 OFFCURVE",
"157 -174 OFFCURVE",
"157 -174 CURVE",
"160 -174 OFFCURVE",
"160 -174 OFFCURVE",
"160 -167 CURVE",
"160 -162 LINE",
"160 -159 OFFCURVE",
"158 -158 OFFCURVE",
"157 -158 CURVE",
"155 -158 OFFCURVE",
"153 -159 OFFCURVE",
"150 -160 CURVE",
"150 -172 LINE",
"150 -174 OFFCURVE",
"152 -174 OFFCURVE",
"155 -174 CURVE",
"155 -174 OFFCURVE",
"155 -175 OFFCURVE",
"155 -175 CURVE",
"155 -175 OFFCURVE",
"155 -176 OFFCURVE",
"155 -176 CURVE",
"144 -176 LINE",
"144 -176 OFFCURVE",
"144 -175 OFFCURVE",
"144 -175 CURVE",
"144 -175 OFFCURVE",
"144 -174 OFFCURVE",
"144 -174 CURVE",
"146 -174 OFFCURVE",
"147 -174 OFFCURVE",
"147 -172 CURVE",
"147 -171 OFFCURVE",
"147 -169 OFFCURVE",
"147 -168 CURVE",
"147 -166 LINE",
"147 -161 OFFCURVE",
"147 -158 OFFCURVE",
"145 -158 CURVE",
"144 -158 LINE",
"144 -158 OFFCURVE",
"143 -158 OFFCURVE",
"143 -158 CURVE",
"143 -157 OFFCURVE",
"144 -157 OFFCURVE",
"144 -157 CURVE",
"145 -157 OFFCURVE",
"148 -156 OFFCURVE",
"149 -156 CURVE",
"150 -156 OFFCURVE",
"150 -157 OFFCURVE",
"150 -159 CURVE",
"153 -158 LINE",
"155 -157 OFFCURVE",
"157 -156 OFFCURVE",
"159 -156 CURVE",
"161 -156 OFFCURVE",
"163 -157 OFFCURVE",
"164 -159 CURVE",
"167 -158 LINE"
);
},
{
closed = 1;
nodes = (
"73 325 OFFCURVE",
"76 325 OFFCURVE",
"79 325 CURVE",
"79 325 OFFCURVE",
"79 325 OFFCURVE",
"79 323 CURVE",
"79 323 OFFCURVE",
"79 323 OFFCURVE",
"79 323 CURVE",
"65 323 LINE",
"65 323 OFFCURVE",
"65 323 OFFCURVE",
"65 323 CURVE",
"65 325 OFFCURVE",
"65 325 OFFCURVE",
"65 325 CURVE",
"68 325 OFFCURVE",
"70 325 OFFCURVE",
"70 328 CURVE",
"70 340 LINE",
"70 340 OFFCURVE",
"70 343 OFFCURVE",
"68 343 CURVE",
"65 343 LINE",
"65 343 OFFCURVE",
"62 343 OFFCURVE",
"62 343 CURVE",
"62 343 OFFCURVE",
"65 343 OFFCURVE",
"65 343 CURVE",
"73 345 LINE",
"73 345 OFFCURVE",
"73 345 OFFCURVE",
"73 345 CURVE",
"73 345 OFFCURVE",
"73 345 OFFCURVE",
"73 345 CURVE",
"73 328 LINE"
);
},
{
closed = 1;
nodes = (
"85 343 OFFCURVE",
"90 345 OFFCURVE",
"96 345 CURVE",
"102 345 OFFCURVE",
"105 343 OFFCURVE",
"105 334 CURVE",
"105 325 OFFCURVE",
"99 323 OFFCURVE",
"93 323 CURVE",
"88 323 OFFCURVE",
"85 325 OFFCURVE",
"85 334 CURVE"
);
},
{
closed = 1;
nodes = (
"102 340 OFFCURVE",
"99 343 OFFCURVE",
"93 343 CURVE",
"90 343 OFFCURVE",
"88 340 OFFCURVE",
"88 334 CURVE",
"88 328 OFFCURVE",
"90 325 OFFCURVE",
"96 325 CURVE",
"99 325 OFFCURVE",
"102 328 OFFCURVE",
"102 334 CURVE"
);
},
{
closed = 1;
nodes = (
"127 345 OFFCURVE",
"133 340 OFFCURVE",
"133 334 CURVE",
"133 328 OFFCURVE",
"127 323 OFFCURVE",
"122 323 CURVE",
"113 323 OFFCURVE",
"110 328 OFFCURVE",
"110 334 CURVE",
"110 340 OFFCURVE",
"116 345 OFFCURVE",
"122 345 CURVE"
);
},
{
closed = 1;
nodes = (
"127 325 OFFCURVE",
"130 328 OFFCURVE",
"130 334 CURVE",
"130 340 OFFCURVE",
"127 343 OFFCURVE",
"122 343 CURVE",
"116 343 OFFCURVE",
"113 340 OFFCURVE",
"113 334 CURVE",
"113 328 OFFCURVE",
"116 325 OFFCURVE",
"122 325 CURVE"
);
},
{
closed = 1;
nodes = (
"102 181 OFFCURVE",
"102 181 OFFCURVE",
"102 180 CURVE",
"102 178 LINE",
"102 178 OFFCURVE",
"102 178 OFFCURVE",
"101 178 CURVE",
"90 178 LINE",
"90 171 LINE",
"99 169 OFFCURVE",
"102 166 OFFCURVE",
"102 161 CURVE",
"102 155 OFFCURVE",
"99 151 OFFCURVE",
"91 151 CURVE",
"89 151 OFFCURVE",
"86 152 OFFCURVE",
"86 153 CURVE",
"86 153 OFFCURVE",
"86 154 OFFCURVE",
"87 154 CURVE",
"87 154 OFFCURVE",
"88 153 OFFCURVE",
"90 153 CURVE",
"97 153 OFFCURVE",
"98 156 OFFCURVE",
"98 158 CURVE",
"98 163 OFFCURVE",
"95 167 OFFCURVE",
"88 169 CURVE",
"88 169 OFFCURVE",
"88 169 OFFCURVE",
"88 169 CURVE",
"88 170 OFFCURVE",
"88 170 OFFCURVE",
"88 170 CURVE",
"89 180 LINE",
"89 181 OFFCURVE",
"89 181 OFFCURVE",
"90 181 CURVE",
"102 181 LINE"
);
},
{
closed = 1;
nodes = (
"125 181 OFFCURVE",
"128 178 OFFCURVE",
"128 170 CURVE",
"128 165 OFFCURVE",
"125 161 OFFCURVE",
"120 161 CURVE",
"112 161 OFFCURVE",
"108 165 OFFCURVE",
"108 170 CURVE",
"108 178 OFFCURVE",
"112 181 OFFCURVE",
"120 181 CURVE"
);
},
{
closed = 1;
nodes = (
"124 163 OFFCURVE",
"126 166 OFFCURVE",
"126 170 CURVE",
"126 176 OFFCURVE",
"124 179 OFFCURVE",
"120 179 CURVE",
"114 179 OFFCURVE",
"112 176 OFFCURVE",
"112 170 CURVE",
"112 166 OFFCURVE",
"114 163 OFFCURVE",
"120 163 CURVE"
);
},
{
closed = 1;
nodes = (
"125 181 OFFCURVE",
"128 178 OFFCURVE",
"128 170 CURVE",
"128 165 OFFCURVE",
"125 161 OFFCURVE",
"120 161 CURVE",
"112 161 OFFCURVE",
"108 165 OFFCURVE",
"108 170 CURVE",
"108 178 OFFCURVE",
"112 181 OFFCURVE",
"120 181 CURVE"
);
},
{
closed = 1;
nodes = (
"124 163 OFFCURVE",
"126 166 OFFCURVE",
"126 170 CURVE",
"126 176 OFFCURVE",
"124 179 OFFCURVE",
"120 179 CURVE",
"114 179 OFFCURVE",
"112 176 OFFCURVE",
"112 170 CURVE",
"112 166 OFFCURVE",
"114 163 OFFCURVE",
"120 163 CURVE"
);
},
{
closed = 1;
nodes = (
"125 11 OFFCURVE",
"128 8 OFFCURVE",
"128 0 CURVE",
"128 -5 OFFCURVE",
"125 -9 OFFCURVE",
"120 -9 CURVE",
"112 -9 OFFCURVE",
"108 -5 OFFCURVE",
"108 0 CURVE",
"108 8 OFFCURVE",
"112 11 OFFCURVE",
"120 11 CURVE"
);
},
{
closed = 1;
nodes = (
"124 -7 OFFCURVE",
"126 -4 OFFCURVE",
"126 0 CURVE",
"126 6 OFFCURVE",
"124 9 OFFCURVE",
"120 9 CURVE",
"114 9 OFFCURVE",
"112 6 OFFCURVE",
"112 0 CURVE",
"112 -4 OFFCURVE",
"114 -7 OFFCURVE",
"120 -7 CURVE"
);
},
{
closed = 1;
nodes = (
"102 -156 OFFCURVE",
"102 -156 OFFCURVE",
"102 -157 CURVE",
"102 -159 LINE",
"102 -159 OFFCURVE",
"102 -159 OFFCURVE",
"101 -159 CURVE",
"90 -159 LINE",
"90 -166 LINE",
"99 -168 OFFCURVE",
"102 -171 OFFCURVE",
"102 -176 CURVE",
"102 -182 OFFCURVE",
"99 -186 OFFCURVE",
"91 -186 CURVE",
"89 -186 OFFCURVE",
"86 -185 OFFCURVE",
"86 -184 CURVE",
"86 -184 OFFCURVE",
"86 -183 OFFCURVE",
"87 -183 CURVE",
"87 -183 OFFCURVE",
"88 -184 OFFCURVE",
"90 -184 CURVE",
"97 -184 OFFCURVE",
"98 -181 OFFCURVE",
"98 -179 CURVE",
"98 -174 OFFCURVE",
"95 -170 OFFCURVE",
"88 -168 CURVE",
"88 -168 OFFCURVE",
"88 -168 OFFCURVE",
"88 -168 CURVE",
"88 -167 OFFCURVE",
"88 -167 OFFCURVE",
"88 -167 CURVE",
"89 -157 LINE",
"89 -156 OFFCURVE",
"89 -156 OFFCURVE",
"90 -156 CURVE",
"102 -156 LINE"
);
},
{
closed = 1;
nodes = (
"125 -156 OFFCURVE",
"128 -159 OFFCURVE",
"128 -167 CURVE",
"128 -172 OFFCURVE",
"125 -176 OFFCURVE",
"120 -176 CURVE",
"112 -176 OFFCURVE",
"108 -172 OFFCURVE",
"108 -167 CURVE",
"108 -159 OFFCURVE",
"112 -156 OFFCURVE",
"120 -156 CURVE"
);
},
{
closed = 1;
nodes = (
"124 -174 OFFCURVE",
"126 -171 OFFCURVE",
"126 -167 CURVE",
"126 -161 OFFCURVE",
"124 -158 OFFCURVE",
"120 -158 CURVE",
"114 -158 OFFCURVE",
"112 -161 OFFCURVE",
"112 -167 CURVE",
"112 -171 OFFCURVE",
"114 -174 OFFCURVE",
"120 -174 CURVE"
);
},
{
closed = 1;
nodes = (
"68 -168 LINE",
"81 -168 LINE",
"81 -165 LINE",
"68 -165 LINE"
);
}
);
width = 600;
}
);
unicode = 004C;
},
{
glyphname = M;
lastChange = "2017-12-10 10:01:15 +0000";
layers = (
{
backgroundImage = {
crop = "{{0, 0}, {943, 391}}";
imagePath = "../../../../Desktop/Capture d’écran 2017-12-08 à 15.12.10.png";
transform = "{4.153, 0, 0, 4.153, -541, -873}";
};
layerId = "0976EF58-E9BF-471C-8466-D2D06D69E717";
paths = (
{
closed = 0;
nodes = (
"-1.895 -138.32 LINE",
"24.477 -133.866 OFFCURVE",
"49.067 -125.075 OFFCURVE",
"75.974 -125.075 CURVE SMOOTH",
"87.612 -125.075 OFFCURVE",
"101.738 -126.27 OFFCURVE",
"111.415 -124.048 CURVE SMOOTH",
"136.787 -118.223 OFFCURVE",
"156.066 -108.594 OFFCURVE",
"183.522 -103.966 CURVE SMOOTH",
"221.757 -97.521 OFFCURVE",
"260.452 -95.429 OFFCURVE",
"298.001 -85.659 CURVE SMOOTH",
"336.653 -75.601 OFFCURVE",
"370.242 -48.748 OFFCURVE",
"407.991 -35.884 CURVE SMOOTH",
"458.222 -18.765 OFFCURVE",
"511.935 -8.65 OFFCURVE",
"564.248 0.063 CURVE SMOOTH",
"579.416 2.589 OFFCURVE",
"591.425 11.336 OFFCURVE",
"606.354 13.98 CURVE"
);
},
{
closed = 0;
nodes = (
"-7.319 5.674 LINE",
"97.563 5.674 OFFCURVE",
"203.126 7.86 OFFCURVE",
"308.564 7.86 CURVE SMOOTH",
"396.731 7.86 OFFCURVE",
"484.811 6.332 OFFCURVE",
"572.329 0.72 CURVE"
);
},
{
closed = 0;
nodes = (
"193.707 -185.652 LINE",
"216.65 -176.094 OFFCURVE",
"228.693 -165.196 OFFCURVE",
"244.499 -146.876 CURVE"
);
},
{
closed = 0;
nodes = (
"265.365 -132.306 LINE",
"283.557 -121.484 OFFCURVE",
"298.168 -106.408 OFFCURVE",
"318.219 -98.526 CURVE"
);
},
{
closed = 0;
nodes = (
"349.253 -83.189 LINE",
"367.013 -75.657 OFFCURVE",
"382.228 -62.288 OFFCURVE",
"400.871 -57.621 CURVE"
);
},
{
closed = 0;
nodes = (
"430.089 -44.367 LINE",
"450.788 -39.436 OFFCURVE",
"470.475 -33.345 OFFCURVE",
"490.241 -25.569 CURVE"
);
},
{
closed = 0;
nodes = (
"515.867 -16.981 LINE",
"539.543 -13.249 OFFCURVE",
"581.803 2.714 OFFCURVE",
"606.642 11.521 CURVE"
);
},
{
closed = 0;
nodes = (
"536 77 LINE",
"592 20 LINE"
);
},
{
closed = 1;
nodes = (
"414 -64 LINE",
"425 -47 LINE",
"366 -69 LINE",
"423 -91 LINE",
"414 -75 LINE",
"536 -75 LINE",
"536 -64 LINE"
);
}
);
width = 600;
}
);
unicode = 004D;
},
{
glyphname = N;
lastChange = "2017-12-09 17:45:29 +0000";
layers = (
{
backgroundImage = {
crop = "{{0, 0}, {943, 391}}";
imagePath = "../../../../Desktop/Capture d’écran 2017-12-08 à 15.12.10.png";
transform = "{4.153, 0, 0, 4.153, -1851, -874}";
};
layerId = "0976EF58-E9BF-471C-8466-D2D06D69E717";
paths = (
{
closed = 0;
nodes = (
"215.189 265.068 LINE",
"255.071 212.291 OFFCURVE",
"296.289 98.124 OFFCURVE",
"373.486 98.124 CURVE SMOOTH",
"383.051 98.124 OFFCURVE",
"393.169 99.877 OFFCURVE",
"403.906 103.717 CURVE SMOOTH",
"450.957 120.545 OFFCURVE",
"452.855 188.878 OFFCURVE",
"514.262 182.381 CURVE SMOOTH",
"528.516 180.873 OFFCURVE",
"594.163 40.41 OFFCURVE",
"609.695 13.298 CURVE"
);
},
{
closed = 0;
nodes = (
"215.967 264.156 LINE",
"237.962 259.488 OFFCURVE",
"253.059 235.82 OFFCURVE",
"274.768 229.998 CURVE SMOOTH",
"311.074 220.262 OFFCURVE",
"347.451 224.156 OFFCURVE",
"384.138 222.543 CURVE SMOOTH",
"398.107 221.928 OFFCURVE",
"414 211 OFFCURVE",
"428.447 210.798 CURVE SMOOTH",
"501 210 OFFCURVE",
"558.229 196.335 OFFCURVE",
"618.076 151.726 CURVE"
);
},
{
closed = 1;
nodes = (
"236.417 257.802 LINE",
"236.417 232.728 OFFCURVE",
"281 151 OFFCURVE",
"296 98 CURVE SMOOTH",
"298 92 OFFCURVE",
"306.664 81.467 OFFCURVE",
"308.455 75.102 CURVE SMOOTH",
"309.287 72.148 OFFCURVE",
"309.614 68.955 OFFCURVE",
"309.614 65.623 CURVE SMOOTH",
"309.614 53.362 OFFCURVE",
"311 42 OFFCURVE",
"311 31 CURVE SMOOTH",
"311 27 OFFCURVE",
"311 18 OFFCURVE",
"311 15 CURVE SMOOTH",
"311 13 OFFCURVE",
"307.499 11.938 OFFCURVE",
"305.833 11.487 CURVE SMOOTH",
"302.869 10.686 OFFCURVE",
"301 8 OFFCURVE",
"297 8 CURVE SMOOTH",
"290 8 OFFCURVE",
"281 8 OFFCURVE",
"275 8 CURVE SMOOTH",
"272 8 OFFCURVE",
"234 7 OFFCURVE",
"234 3 CURVE SMOOTH",
"235 2 OFFCURVE",
"238 -3 OFFCURVE",
"243 -3 CURVE SMOOTH",
"261 -3 OFFCURVE",
"307 -4 OFFCURVE",
"306.93 -5.29 CURVE SMOOTH",
"310 -23 OFFCURVE",
"311 -46 OFFCURVE",
"311 -68 CURVE SMOOTH",
"311 -113 OFFCURVE",
"311 -166 OFFCURVE",
"311 -201 CURVE",
"319 -201 LINE",
"321 -182 OFFCURVE",
"321 -129 OFFCURVE",
"352 -101 CURVE SMOOTH",
"363 -91 OFFCURVE",
"376 -78 OFFCURVE",
"385 -65 CURVE SMOOTH",
"389 -60 OFFCURVE",
"391.771 -55.444 OFFCURVE",
"393.976 -50.11 CURVE",
"387 -50 OFFCURVE",
"367 -67 OFFCURVE",
"346 -86 CURVE SMOOTH",
"338 -96 OFFCURVE",
"322 -140 OFFCURVE",
"320.606 -115.51 CURVE SMOOTH",
"319 -96 OFFCURVE",
"323.588 -76.853 OFFCURVE",
"324.509 -57.164 CURVE SMOOTH",
"325 -42 OFFCURVE",
"332 -28 OFFCURVE",
"336 -15 CURVE SMOOTH",
"344 8 OFFCURVE",
"348 31 OFFCURVE",
"358 53 CURVE SMOOTH",
"373 86 OFFCURVE",
"377 102 OFFCURVE",
"389 137 CURVE SMOOTH",
"397 156 OFFCURVE",
"403.538 173.898 OFFCURVE",
"412.135 192.998 CURVE SMOOTH",
"421.385 213.549 OFFCURVE",
"421 203 OFFCURVE",
"427 211 CURVE",
"419 211 OFFCURVE",
"406 216 OFFCURVE",
"400 219 CURVE",
"405 209 OFFCURVE",
"402.815 197.396 OFFCURVE",
"401.224 188.901 CURVE SMOOTH",
"399.641 180.448 OFFCURVE",
"383 124 OFFCURVE",
"368 101 CURVE SMOOTH",
"360 89 OFFCURVE",
"359 78 OFFCURVE",
"355.086 66.933 CURVE SMOOTH",
"347 43 OFFCURVE",
"344 18 OFFCURVE",
"334 -6 CURVE SMOOTH",
"330 -14 OFFCURVE",
"331 -14 OFFCURVE",
"328 -22 CURVE SMOOTH",
"327 -26 OFFCURVE",
"319.635 -44.665 OFFCURVE",
"319.161 -44.665 CURVE SMOOTH",
"318.987 -44.665 OFFCURVE",
"318.888 -43.231 OFFCURVE",
"318.888 -39.494 CURVE SMOOTH",
"318.888 -23.166 OFFCURVE",
"322.21 -7.192 OFFCURVE",
"322.749 9.096 CURVE SMOOTH",
"324.268 55.019 OFFCURVE",
"319.551 100.501 OFFCURVE",
"319.551 146.385 CURVE SMOOTH",
"319.551 168.158 OFFCURVE",
"319 188 OFFCURVE",
"327 210 CURVE SMOOTH",
"328 213 OFFCURVE",
"328 215 OFFCURVE",
"330 218 CURVE SMOOTH",
"331 219 OFFCURVE",
"331 221 OFFCURVE",
"344 223 CURVE",
"321 223 LINE",
"315 224 OFFCURVE",
"313 223 OFFCURVE",
"308 224 CURVE",
"293 226 LINE",
"299 210 OFFCURVE",
"308.545 200.766 OFFCURVE",
"308.545 184.22 CURVE SMOOTH",
"308.545 168.013 OFFCURVE",
"303.606 137.301 OFFCURVE",
"303.606 115.85 CURVE SMOOTH",
"303.606 106.656 OFFCURVE",
"304.513 99.163 OFFCURVE",
"307.105 95.243 CURVE SMOOTH",
"309.893 91.026 OFFCURVE",
"306 105 OFFCURVE",
"303.004 109.845 CURVE SMOOTH",
"288 130 OFFCURVE",
"295.069 140.438 OFFCURVE",
"286.992 154.26 CURVE SMOOTH",
"271 181 OFFCURVE",
"250 223 OFFCURVE",
"258 238 CURVE SMOOTH",
"262 245 OFFCURVE",
"240 251 OFFCURVE",
"236 258 CURVE"
);
},
{
closed = 1;
nodes = (
"451.221 -200.019 LINE",
"464.927 -170.352 OFFCURVE",
"477 -141 OFFCURVE",
"489 -110 CURVE SMOOTH",
"507 -65 OFFCURVE",
"490 -75 OFFCURVE",
"522.373 -28.007 CURVE SMOOTH",
"539 -3 OFFCURVE",
"581 -4 OFFCURVE",
"598.438 3.979 CURVE SMOOTH",
"599 4 OFFCURVE",
"575.294 6.079 OFFCURVE",
"569.573 6.079 CURVE SMOOTH",
"569.105 6.079 OFFCURVE",
"568.756 6.067 OFFCURVE",
"568.549 6.043 CURVE SMOOTH",
"548.373 3.68 OFFCURVE",
"525 -2 OFFCURVE",
"514 -21 CURVE SMOOTH",
"502 -42 OFFCURVE",
"457.861 -183.937 OFFCURVE",
"442.672 -184.091 CURVE SMOOTH",
"436.294 -184.156 OFFCURVE",
"429 -144 OFFCURVE",
"409 -143 CURVE SMOOTH",
"403 -143 OFFCURVE",
"376 -150 OFFCURVE",
"376 -161 CURVE SMOOTH",
"376 -178 OFFCURVE",
"404 -144 OFFCURVE",
"414 -155 CURVE SMOOTH",
"427 -171 OFFCURVE",
"428 -190 OFFCURVE",
"429.692 -202.667 CURVE SMOOTH",
"431 -209 OFFCURVE",
"435 -201 OFFCURVE",
"443 -204 CURVE SMOOTH",
"449 -206 OFFCURVE",
"450 -200 OFFCURVE",
"451 -200 CURVE"
);
}
);
width = 600;
}
);
unicode = 004E;
},
{
glyphname = O;
lastChange = "2017-12-09 18:14:57 +0000";
layers = (
{
backgroundImage = {
crop = "{{0, 0}, {943, 391}}";
imagePath = "../../../../Desktop/Capture d’écran 2017-12-08 à 15.12.10.png";
transform = "{4.153, 0, 0, 4.153, -831, -873}";
};
layerId = "0976EF58-E9BF-471C-8466-D2D06D69E717";
paths = (
{
closed = 1;
nodes = (
"127 -64 LINE",
"138 -47 LINE",
"79 -69 LINE",
"136 -91 LINE",
"127 -75 LINE",
"244 -75 LINE",
"244 -64 LINE"
);
},
{
closed = 1;
nodes = (
"351 -70 LINE",
"288 -69 LINE",
"333 -111 LINE",
"331 -89 LINE",
"364 -107 OFFCURVE",
"392 -117 OFFCURVE",
"420 -167 CURVE",
"428 -163 LINE",
"397 -112 OFFCURVE",
"375 -103 OFFCURVE",
"335 -81 CURVE"
);
},
{
closed = 1;
nodes = (
"476 -278 LINE",
"434 -234 LINE",
"436 -296 LINE",
"448 -279 LINE",
"455 -296 OFFCURVE",
"460 -323 OFFCURVE",
"440 -342 CURVE",
"446 -347 LINE",
"461 -328 OFFCURVE",
"465 -309 OFFCURVE",
"455 -276 CURVE"
);
},
{
closed = 1;
nodes = (
"157 -361 LINE",
"321 -361 LINE",
"312 -377 LINE",
"369 -355 LINE",
"310 -333 LINE",
"321 -350 LINE",
"157 -350 LINE"
);
}
);
width = 600;
}
);
unicode = 004F;
},
{
glyphname = P;
lastChange = "2017-12-09 17:48:17 +0000";
layers = (
{
backgroundImage = {
crop = "{{0, 0}, {943, 391}}";
imagePath = "../../../../Desktop/Capture d’écran 2017-12-08 à 15.12.10.png";
transform = "{4.153, 0, 0, 4.153, -1161, -873}";
};
layerId = "0976EF58-E9BF-471C-8466-D2D06D69E717";
paths = (
{
closed = 0;
nodes = (
"-2.695 92.27 LINE",
"-1.65 112.223 OFFCURVE",
"10.045 129.764 OFFCURVE",
"14.032 149.348 CURVE SMOOTH",
"21.078 183.951 OFFCURVE",
"25.159 219.182 OFFCURVE",
"29.949 254.182 CURVE SMOOTH",
"35.228 292.746 OFFCURVE",
"54.251 328.625 OFFCURVE",
"64.752 365.768 CURVE SMOOTH",
"72.063 391.627 OFFCURVE",
"72.348 448.869 OFFCURVE",
"100.698 464.067 CURVE SMOOTH",
"102.757 465.171 OFFCURVE",
"108.467 451.386 OFFCURVE",
"109.094 450.429 CURVE SMOOTH",
"128.428 420.942 OFFCURVE",
"148.258 391.49 OFFCURVE",
"167.937 361.993 CURVE SMOOTH",
"168.609 360.987 OFFCURVE",
"169.358 360.028 OFFCURVE",
"169.952 358.974 CURVE SMOOTH",
"184.5 333.137 OFFCURVE",
"192.663 305.63 OFFCURVE",
"206.565 279.523 CURVE SMOOTH",
"225.316 244.309 OFFCURVE",
"258.676 214.004 OFFCURVE",
"279.671 179.621 CURVE SMOOTH",
"315.216 121.412 OFFCURVE",
"350.327 64.648 OFFCURVE",
"393.758 11.689 CURVE SMOOTH",
"398.689 5.676 OFFCURVE",
"398.788 -9.558 OFFCURVE",
"408.128 -9.558 CURVE SMOOTH",
"424.626 -9.558 OFFCURVE",
"456.283 39.739 OFFCURVE",
"457.593 41.745 CURVE SMOOTH",
"491.933 94.346 OFFCURVE",
"530.746 148.944 OFFCURVE",
"570.457 197.761 CURVE SMOOTH",
"584.908 215.526 OFFCURVE",
"593.286 236.435 OFFCURVE",
"609.187 253.506 CURVE"
);
},
{
closed = 1;
nodes = (
"380 325 OFFCURVE",
"390.879 312.219 OFFCURVE",
"398.199 292.481 CURVE SMOOTH",
"401.371 283.929 OFFCURVE",
"402.351 273.988 OFFCURVE",
"402.351 263.594 CURVE SMOOTH",
"402.351 246.777 OFFCURVE",
"403 229 OFFCURVE",
"403 214 CURVE SMOOTH",
"403 191 OFFCURVE",
"405.186 173.423 OFFCURVE",
"409.402 152.835 CURVE SMOOTH",
"411.301 143.561 OFFCURVE",
"406 133 OFFCURVE",
"406 124 CURVE SMOOTH",
"406 90 OFFCURVE",
"407.777 55.216 OFFCURVE",
"407.777 20.794 CURVE SMOOTH",
"407.777 11.591 OFFCURVE",
"407.414 2.4 OFFCURVE",
"406.452 -6.766 CURVE SMOOTH",
"403.443 -35.447 OFFCURVE",
"402.616 -64.549 OFFCURVE",
"402.616 -93.723 CURVE SMOOTH",
"402.616 -129.29 OFFCURVE",
"403.844 -164.963 OFFCURVE",
"403.844 -200.109 CURVE SMOOTH",
"403.844 -204.65 OFFCURVE",
"404.973 -209.116 OFFCURVE",
"408.875 -209.116 CURVE SMOOTH",
"409.882 -209.116 OFFCURVE",
"411.073 -208.819 OFFCURVE",
"412.477 -208.149 CURVE SMOOTH",
"414.577 -207.147 OFFCURVE",
"415.254 -196.086 OFFCURVE",
"415.254 -180.768 CURVE SMOOTH",
"415.254 -146.504 OFFCURVE",
"411.865 -90.936 OFFCURVE",
"413.426 -78.992 CURVE SMOOTH",
"415.085 -66.302 OFFCURVE",
"415.684 -53.629 OFFCURVE",
"415.684 -40.976 CURVE SMOOTH",
"415.684 -8.121 OFFCURVE",
"411.646 24.598 OFFCURVE",
"411.646 57.134 CURVE SMOOTH",
"411.646 64.275 OFFCURVE",
"411.84 71.407 OFFCURVE",
"412.315 78.529 CURVE SMOOTH",
"413.784 100.594 OFFCURVE",
"416 122 OFFCURVE",
"416 144 CURVE SMOOTH",
"416 166 OFFCURVE",
"410 190 OFFCURVE",
"416 214 CURVE SMOOTH",
"420 230 OFFCURVE",
"415 246 OFFCURVE",
"419 262 CURVE SMOOTH",
"422 273 OFFCURVE",
"428 290 OFFCURVE",
"432.007 304.721 CURVE SMOOTH",
"434 311 OFFCURVE",
"430.765 317.869 OFFCURVE",
"427.57 322.981 CURVE SMOOTH",
"427.053 323.807 OFFCURVE",
"420.399 330.323 OFFCURVE",
"420.211 330.053 CURVE SMOOTH",
"417.82 326.625 OFFCURVE",
"419.034 317.677 OFFCURVE",
"413.358 317.677 CURVE SMOOTH",
"412.488 317.677 OFFCURVE",
"411 318 OFFCURVE",
"410.226 318.359 CURVE SMOOTH",
"389 323 OFFCURVE",
"371 356 OFFCURVE",
"371 348 CURVE"
);
}
);
width = 600;
}
);
unicode = 0050;
},
{
glyphname = Q;
lastChange = "2017-12-09 18:02:46 +0000";
layers = (
{
backgroundImage = {
crop = "{{0, 0}, {943, 391}}";
imagePath = "../../../../Desktop/Capture d’écran 2017-12-08 à 15.12.10.png";
transform = "{4.153, 0, 0, 4.153, -1421, -873}";
};
layerId = "0976EF58-E9BF-471C-8466-D2D06D69E717";
paths = (
{
closed = 0;
nodes = (
"-3.547 327.269 LINE",
"13.801 325.215 OFFCURVE",
"35.234 319.373 OFFCURVE",
"54.872 319.373 CURVE SMOOTH",
"63.666 319.373 OFFCURVE",
"72.1 320.544 OFFCURVE",
"79.645 323.752 CURVE SMOOTH",
"86.076 326.486 OFFCURVE",
"107.077 345.176 OFFCURVE",
"112.447 343.896 CURVE SMOOTH",
"126.021 340.661 OFFCURVE",
"137.072 314.206 OFFCURVE",
"149.542 314.206 CURVE SMOOTH",
"158.063 314.206 OFFCURVE",
"156 326 OFFCURVE",
"164.423 322.275 CURVE SMOOTH",
"172 319 OFFCURVE",
"177.114 304.102 OFFCURVE",
"178.589 301.415 CURVE SMOOTH",
"179.648 299.484 OFFCURVE",
"180.042 293.402 OFFCURVE",
"180.185 293.402 CURVE SMOOTH",
"180.251 293.402 OFFCURVE",
"180.263 294.709 OFFCURVE",
"180.263 298.342 CURVE SMOOTH",
"180.263 305.689 OFFCURVE",
"179.166 313.798 OFFCURVE",
"179.166 321.582 CURVE SMOOTH",
"179.166 329.449 OFFCURVE",
"180.286 336.985 OFFCURVE",
"184.79 343.073 CURVE SMOOTH",
"186.278 345.085 OFFCURVE",
"189.122 345.872 OFFCURVE",
"192.769 345.872 CURVE SMOOTH",
"205.894 345.872 OFFCURVE",
"229.431 335.679 OFFCURVE",
"237.682 335.679 CURVE SMOOTH",
"259.187 335.679 OFFCURVE",
"281 343.246 OFFCURVE",
"304.886 343.246 CURVE SMOOTH",
"326.042 343.246 OFFCURVE",
"355.566 331.975 OFFCURVE",
"382.151 331.975 CURVE SMOOTH",
"389.581 331.975 OFFCURVE",
"396.781 332.933 OFFCURVE",
"403.505 335.409 CURVE SMOOTH",
"431.461 345.705 OFFCURVE",
"467.45 407.075 OFFCURVE",
"502.323 407.075 CURVE SMOOTH",
"507.001 407.075 OFFCURVE",
"511.659 405.971 OFFCURVE",
"516.276 403.49 CURVE SMOOTH",
"532.555 394.742 OFFCURVE",
"534.297 379.829 OFFCURVE",
"544.145 364.81 CURVE SMOOTH",
"558.207 343.362 OFFCURVE",
"599.727 329.007 OFFCURVE",
"617.019 304.239 CURVE"
);
},
{
closed = 0;
nodes = (
"1.031 204.604 LINE",
"17.476 171.244 OFFCURVE",
"44.297 144.75 OFFCURVE",
"62.325 112.101 CURVE SMOOTH",
"75.139 88.894 OFFCURVE",
"126.422 -3.498 OFFCURVE",
"145.472 -13.096 CURVE SMOOTH",
"166.597 -23.739 OFFCURVE",
"208.03 62.083 OFFCURVE",
"220.716 75.79 CURVE SMOOTH",
"252.563 110.202 OFFCURVE",
"281.5 147.195 OFFCURVE",
"308.44 185.552 CURVE SMOOTH",
"332.08 219.21 OFFCURVE",
"395.922 333.044 OFFCURVE",
"425.804 349.59 CURVE"
);
},
{
closed = 0;
nodes = (
"8.535 136.563 LINE",
"9.296 147.339 OFFCURVE",
"17.866 157.225 OFFCURVE",
"24.635 165.294 CURVE"
);
},
{
closed = 0;
nodes = (
"-1.907 107.532 LINE",
"13.641 113.65 OFFCURVE",
"28.667 120.137 OFFCURVE",
"45.006 124.093 CURVE"
);
},
{
closed = 0;
nodes = (
"38.143 102.919 LINE",
"46.583 89.302 OFFCURVE",
"55.756 76.68 OFFCURVE",
"63.578 62.622 CURVE"
);
},
{
closed = 0;
nodes = (
"38.686 49.666 LINE",
"38.727 41.668 OFFCURVE",
"42.847 35.989 OFFCURVE",
"46.543 29.079 CURVE"
);
},
{
closed = 0;
nodes = (
"21.912 6.489 LINE",
"32.75 12.521 OFFCURVE",
"39.039 20.625 OFFCURVE",
"50.982 24.8 CURVE"
);
},
{
closed = 0;
nodes = (
"68.529 42.4 LINE",
"85.027 42.319 OFFCURVE",
"94.97 36.411 OFFCURVE",
"107.128 25.938 CURVE"
);
},
{
closed = 0;
nodes = (
"57.475 -11.102 LINE",
"61.984 1.495 OFFCURVE",
"71.332 10.147 OFFCURVE",
"76.985 21.908 CURVE"
);
},
{
closed = 0;
nodes = (
"87.331 4.838 LINE",
"97.527 -3.737 OFFCURVE",
"106.58 -16.022 OFFCURVE",
"118.26 -22.099 CURVE"
);
},
{
closed = 0;
nodes = (
"40.662 9.104 LINE",
"40.662 -4.538 OFFCURVE",
"40.605 -11.989 OFFCURVE",
"46.938 -23.654 CURVE"
);
},
{
closed = 0;
nodes = (
"-5.816 4.786 LINE",
"8.567 -8.708 OFFCURVE",
"16.559 -18.537 OFFCURVE",
"22.377 -36.562 CURVE"
);
},
{
closed = 0;
nodes = (
"41.97 -38.586 LINE",
"62.251 -38.586 OFFCURVE",
"75.245 -34.767 OFFCURVE",
"93.104 -25.743 CURVE"
);
},
{
closed = 0;
nodes = (
"88.799 -46.825 LINE",
"100.915 -58.21 OFFCURVE",
"106.625 -71.927 OFFCURVE",
"115.029 -86.115 CURVE"
);
},
{
closed = 0;
nodes = (
"110.716 -48.233 LINE",
"122.662 -40.58 OFFCURVE",
"134.914 -33.469 OFFCURVE",
"147.043 -26.142 CURVE"
);
},
{
closed = 0;
nodes = (
"19.306 -88.387 LINE",
"21.418 -80.651 OFFCURVE",
"20.319 -83.768 OFFCURVE",
"26.79 -75.444 CURVE"
);
},
{
closed = 0;
nodes = (
"21.056 -53.697 LINE",
"29.785 -53.697 OFFCURVE",
"35.343 -59.383 OFFCURVE",
"42.495 -64.103 CURVE"
);
},
{
closed = 0;
nodes = (
"72.937 -46.339 LINE",
"72.06 -58.048 OFFCURVE",
"69.908 -68.278 OFFCURVE",
"65.919 -79.231 CURVE"
);
},
{
closed = 0;
nodes = (
"78.905 -76.16 LINE",
"82.243 -91.342 OFFCURVE",
"85.38 -103.116 OFFCURVE",
"94.146 -115.619 CURVE"
);
},
{
closed = 0;
nodes = (
"39.885 -90.988 LINE",
"52.966 -96.357 OFFCURVE",
"62.831 -103.632 OFFCURVE",
"73.011 -113.161 CURVE"
);
},
{
closed = 0;
nodes = (
"-3.275 -133.032 LINE",
"14.704 -133.032 OFFCURVE",
"29.954 -130.679 OFFCURVE",
"46.452 -123.846 CURVE"
);
},
{
closed = 0;
nodes = (
"63.869 -141.762 LINE",
"76.637 -135.572 OFFCURVE",
"88.753 -128.298 OFFCURVE",
"101.642 -122.195 CURVE"
);
},
{
closed = 0;
nodes = (
"105.856 -155.917 LINE",
"112.161 -144.506 OFFCURVE",
"117.918 -134.118 OFFCURVE",
"126.417 -124.228 CURVE"
);
},
{
closed = 0;
nodes = (
"119.433 -101.612 LINE",
"132.61 -103.444 OFFCURVE",
"139.37 -106.412 OFFCURVE",
"150.722 -112.809 CURVE"
);
},
{
closed = 0;
nodes = (
"132.515 -87.657 LINE",
"151.502 -87.657 OFFCURVE",
"171.113 -90.174 OFFCURVE",
"188.083 -80.352 CURVE"
);
},
{
closed = 0;
nodes = (
"169.689 -101.764 LINE",
"169.689 -114.553 OFFCURVE",
"169.692 -112.785 OFFCURVE",
"167.214 -127.485 CURVE"
);
},
{
closed = 0;
nodes = (
"177.655 -127.22 LINE",
"177.655 -142.707 OFFCURVE",
"181.112 -151.598 OFFCURVE",
"189.599 -164.734 CURVE"
);
},
{
closed = 0;
nodes = (
"137.948 -138.022 LINE",
"152.803 -144.861 OFFCURVE",
"158.883 -148.117 OFFCURVE",
"169.129 -160.725 CURVE"
);
},
{
closed = 0;
nodes = (
"21.843 -175.657 LINE",
"21.843 -166.113 OFFCURVE",
"21.705 -156.57 OFFCURVE",
"22.129 -147.035 CURVE"
);
},
{
closed = 0;
nodes = (
"33.926 -173.26 LINE",
"37.127 -189.316 OFFCURVE",
"41.842 -202.049 OFFCURVE",
"49.292 -216.41 CURVE"
);
},
{
closed = 0;
nodes = (
"85.368 -184.161 LINE",
"108.521 -184.161 OFFCURVE",
"127.101 -176.842 OFFCURVE",
"147.447 -166.145 CURVE"
);
},
{
closed = 0;
nodes = (
"122.247 -193.122 LINE",
"122.247 -201.908 OFFCURVE",
"122.247 -210.695 OFFCURVE",
"122.247 -219.481 CURVE"
);
},
{
closed = 0;
nodes = (
"137.067 -189.751 LINE",
"145.23 -198.35 OFFCURVE",
"152.044 -207.995 OFFCURVE",
"159.821 -216.992 CURVE"
);
},
{
closed = 0;
nodes = (
"157.776 -191.697 LINE",
"172.289 -184.815 OFFCURVE",
"183.943 -174.232 OFFCURVE",
"198.273 -166.992 CURVE"
);
},
{
closed = 0;
nodes = (
"190.259 -91.249 LINE",
"196.664 -103.996 OFFCURVE",
"203.849 -114.628 OFFCURVE",
"212.91 -125.57 CURVE"
);
},
{
closed = 0;
nodes = (
"164.451 -76.334 LINE",
"176.768 -73.166 OFFCURVE",
"175.988 -73.31 OFFCURVE",
"187.063 -68.238 CURVE"
);
},
{
closed = 0;
nodes = (
"183.358 -43.681 LINE",
"202.087 -49.594 OFFCURVE",
"210.94 -55.905 OFFCURVE",
"224.619 -69.584 CURVE"
);
},
{
closed = 0;
nodes = (
"171.944 -8.448 LINE",
"182.858 -8.448 OFFCURVE",
"192.086 -12.686 OFFCURVE",
"201.522 -18.016 CURVE"
);
},
{
closed = 0;
nodes = (
"185.999 12.226 LINE",
"204.836 12.226 OFFCURVE",
"220.704 20.018 OFFCURVE",
"236.863 29.074 CURVE"
);
},
{
closed = 0;
nodes = (
"217.839 3.257 LINE",
"217.839 -8.231 OFFCURVE",
"217.95 -18.255 OFFCURVE",
"214.239 -29.092 CURVE"
);
},
{
closed = 0;
nodes = (
"226.804 -29.092 LINE",
"232.061 -43.2 OFFCURVE",
"236.293 -57.55 OFFCURVE",
"241.875 -71.482 CURVE"
);
},
{
closed = 0;
nodes = (
"208.388 -94.602 LINE",
"218.33 -88.918 OFFCURVE",
"228.032 -81.51 OFFCURVE",
"239.339 -79.174 CURVE"
);
},
{
closed = 0;
nodes = (
"237.007 -92.248 LINE",
"237.007 -98.152 OFFCURVE",
"237.007 -104.056 OFFCURVE",
"237.007 -109.96 CURVE"
);
},
{
closed = 0;
nodes = (
"240.924 -133.657 LINE",
"255.344 -133.657 OFFCURVE",
"266.77 -125.456 OFFCURVE",
"279.106 -118.703 CURVE"
);
},
{
closed = 0;
nodes = (
"238.179 7.375 LINE",
"246.959 -4.963 OFFCURVE",
"256.3 -17.466 OFFCURVE",
"263.388 -30.803 CURVE"
);
},
{
closed = 0;
nodes = (
"254.766 3.609 LINE",
"266.162 13.346 OFFCURVE",
"274.805 20.59 OFFCURVE",
"288.54 26.03 CURVE"
);
},
{
closed = 0;
nodes = (
"232.959 55.416 LINE",
"245.043 48.119 OFFCURVE",
"253.067 37.582 OFFCURVE",
"263.97 28.779 CURVE"
);
},
{
closed = 0;
nodes = (
"264.078 100.179 LINE",
"264.078 87.102 OFFCURVE",
"265.683 73.729 OFFCURVE",
"261.355 61.237 CURVE"
);
},
{
closed = 0;
nodes = (
"273.347 67.799 LINE",
"273.347 52.772 OFFCURVE",
"279.748 42.735 OFFCURVE",
"289.135 31.016 CURVE"
);
},
{
closed = 0;
nodes = (
"282.624 107.341 LINE",
"289.672 94.975 OFFCURVE",
"296.966 82.939 OFFCURVE",
"303.611 70.614 CURVE"
);
},
{
closed = 0;
nodes = (
"307.677 100.348 LINE",
"319.118 107.967 OFFCURVE",
"324.412 115.271 OFFCURVE",
"331.834 126.947 CURVE"
);
},
{
closed = 0;
nodes = (
"284.444 148.042 LINE",
"297.782 148.042 OFFCURVE",
"308.263 127.678 OFFCURVE",
"315.225 119.046 CURVE"
);
},
{
closed = 0;
nodes = (
"318.531 170.323 LINE",
"322.934 161.105 OFFCURVE",
"328.111 152.099 OFFCURVE",
"333.702 143.351 CURVE"
);
},
{
closed = 0;
nodes = (
"330.54 202.017 LINE",
"334.758 186.562 OFFCURVE",
"343.409 174.542 OFFCURVE",
"353.903 162.875 CURVE"
);
},
{
closed = 0;
nodes = (
"350.81 196.21 LINE",
"362.607 206.802 OFFCURVE",
"372.246 218.127 OFFCURVE",
"386.925 224.05 CURVE"
);
},
{
closed = 0;
nodes = (
"342.897 238.475 LINE",
"356.174 233.409 OFFCURVE",
"349.383 236.853 OFFCURVE",
"362.88 227.403 CURVE"
);
},
{
closed = 0;
nodes = (
"364.735 270.324 LINE",
"368.335 257.806 OFFCURVE",
"373.479 244.345 OFFCURVE",
"381.053 233.71 CURVE"
);
},
{
closed = 0;
nodes = (
"379.567 294.408 LINE",
"389.903 283.98 OFFCURVE",
"396.553 273.629 OFFCURVE",
"403.86 261.095 CURVE"
);
},
{
closed = 0;
nodes = (
"396.098 294.89 LINE",
"410.201 301.534 OFFCURVE",
"421.422 312.129 OFFCURVE",
"435.835 318.01 CURVE"
);
},
{
closed = 0;
nodes = (
"422.388 343.713 LINE",
"428.451 337.286 OFFCURVE",
"432.144 333.524 OFFCURVE",
"435.249 325.198 CURVE"
);
},
{
closed = 0;
nodes = (
"443.84 368.553 LINE",
"448.691 360.917 OFFCURVE",
"446.412 364.138 OFFCURVE",
"450.459 358.737 CURVE"
);
},
{
closed = 0;
nodes = (
"473.566 397.71 LINE",
"473.566 387.157 OFFCURVE",
"474.217 380.356 OFFCURVE",
"476.641 370.116 CURVE"
);
},
{
closed = 0;
nodes = (
"492.264 380.141 LINE",
"493.127 393.286 OFFCURVE",
"490.039 403.094 OFFCURVE",
"503.309 407.169 CURVE"
);
},
{
closed = 0;
nodes = (
"469.218 352.339 LINE",
"490.452 352.339 OFFCURVE",
"508.087 359.406 OFFCURVE",
"527.475 367.258 CURVE"
);
},
{
closed = 0;
nodes = (
"503.761 345.26 LINE",
"503.761 333.828 OFFCURVE",
"502.77 323.368 OFFCURVE",
"500.568 312.203 CURVE"
);
},
{
closed = 0;
nodes = (
"453.513 337.867 LINE",
"467.866 336.861 OFFCURVE",
"477.616 331.688 OFFCURVE",
"490.031 324.598 CURVE"
);
},
{
closed = 0;
nodes = (
"525 348.812 LINE",
"531.963 337.325 OFFCURVE",
"538.789 325.733 OFFCURVE",
"545.96 314.383 CURVE"
);
},
{
closed = 0;
nodes = (
"541.374 346.011 LINE",
"549.43 349.658 OFFCURVE",
"547.652 348.92 OFFCURVE",
"557.144 354.884 CURVE"
);
},
{
closed = 0;
nodes = (
"568.063 305.618 LINE",
"582.671 307.469 OFFCURVE",
"596.028 312.67 OFFCURVE",
"610.663 313.175 CURVE"
);
},
{
closed = 0;
nodes = (
"442.62 284.44 LINE",
"447.833 296.116 OFFCURVE",
"455.634 306.162 OFFCURVE",
"460.805 318.235 CURVE"
);
},
{
closed = 0;
nodes = (
"423.969 300.858 LINE",
"423.254 290.918 OFFCURVE",
"430.288 280.538 OFFCURVE",
"433.598 271.297 CURVE"
);
},
{
closed = 0;
nodes = (
"472.024 302.895 LINE",
"487.74 296.897 OFFCURVE",
"495.868 287.907 OFFCURVE",
"507.921 276.909 CURVE"
);
},
{
closed = 0;
nodes = (
"513.754 313.571 LINE",
"517.535 299.838 OFFCURVE",
"522.553 288.232 OFFCURVE",
"529.16 275.649 CURVE"
);
},
{
closed = 0;
nodes = (
"550.603 288.623 LINE",
"563.575 287.507 OFFCURVE",
"576.931 279.06 OFFCURVE",
"588.573 272.939 CURVE"
);
},
{
closed = 0;
nodes = (
"542.894 236.438 LINE",
"549.349 248.761 OFFCURVE",
"556.907 257.698 OFFCURVE",
"560.176 271.336 CURVE"
);
},
{
closed = 0;
nodes = (
"497.276 248.964 LINE",
"508.95 255.308 OFFCURVE",
"520.687 261.49 OFFCURVE",
"532.605 267.349 CURVE"
);
},
{
closed = 0;
nodes = (
"419.409 257.199 LINE",
"440.548 257.199 OFFCURVE",
"457.576 268.629 OFFCURVE",
"477.983 271.215 CURVE"
);
},
{
closed = 0;
nodes = (
"403.708 239.104 LINE",
"419.728 239.104 OFFCURVE",
"431.879 231.938 OFFCURVE",
"445.621 224.215 CURVE"
);
},
{
closed = 0;
nodes = (
"459.867 247.635 LINE",
"458.163 234.886 OFFCURVE",
"452.301 224.887 OFFCURVE",
"448.444 212.545 CURVE"
);
},
{
closed = 0;
nodes = (
"472.541 252.1 LINE",
"484.626 239.192 OFFCURVE",
"494.117 226.314 OFFCURVE",
"502.896 211.012 CURVE"
);
},
{
closed = 0;
nodes = (
"413.593 219.833 LINE",
"407.772 208.288 OFFCURVE",
"402.19 196.656 OFFCURVE",
"396.433 185.091 CURVE"
);
},
{
closed = 0;
nodes = (
"377.93 206.764 LINE",
"380.544 194.97 OFFCURVE",
"383.183 183.303 OFFCURVE",
"385.909 171.57 CURVE"
);
},
{
closed = 0;
nodes = (
"375.068 156.351 LINE",
"392.822 156.87 OFFCURVE",
"405.873 162.707 OFFCURVE",
"421.732 170.428 CURVE"
);
},
{
closed = 0;
nodes = (
"424.842 199.954 LINE",
"440.703 199.954 OFFCURVE",
"451.716 187.476 OFFCURVE",
"463.242 177.777 CURVE"
);
},
{
closed = 0;
nodes = (
"465.192 217.7 LINE",
"469.911 205.577 OFFCURVE",
"475.321 193.6 OFFCURVE",
"479.29 181.221 CURVE"
);
},
{
closed = 0;
nodes = (
"516.591 204.249 LINE",
"535.912 205.853 OFFCURVE",
"553.778 215.8 OFFCURVE",
"572.263 221.679 CURVE"
);
},
{
closed = 0;
nodes = (
"520.382 263.001 LINE",
"520.922 248.256 OFFCURVE",
"526.503 239.172 OFFCURVE",
"532.987 226.704 CURVE"
);
},
{
closed = 0;
nodes = (
"570.426 254.098 LINE",
"593.552 247.321 OFFCURVE",
"588.407 249.262 OFFCURVE",
"609.898 235.986 CURVE"
);
},
{
closed = 0;
nodes = (
"573.992 205.461 LINE",
"580.287 190.792 OFFCURVE",
"588.443 178.161 OFFCURVE",
"597.502 165.007 CURVE"
);
},
{
closed = 0;
nodes = (
"561.006 171.64 LINE",
"564.914 157.568 OFFCURVE",
"573.058 146.245 OFFCURVE",
"580.546 133.761 CURVE"
);
},
{
closed = 0;
nodes = (
"556.584 199.35 LINE",
"556.584 188.314 OFFCURVE",
"553.534 178.57 OFFCURVE",
"550.295 167.843 CURVE"
);
},
{
closed = 0;
nodes = (
"507.656 192.479 LINE",
"519.705 188.994 OFFCURVE",
"528.649 183.056 OFFCURVE",
"539.823 177.112 CURVE"
);
},
{
closed = 0;
nodes = (
"447.658 147.643 LINE",
"460.958 157.246 OFFCURVE",
"475.08 164.632 OFFCURVE",
"489.306 172.665 CURVE"
);
},
{
closed = 0;
nodes = (
"474.856 155.07 LINE",
"474.856 143.419 OFFCURVE",
"478.825 134.527 OFFCURVE",
"482.574 123.594 CURVE"
);
},
{
closed = 0;
nodes = (
"494.644 138.318 LINE",
"495.114 154.064 OFFCURVE",
"500.702 163.522 OFFCURVE",
"511.413 174.428 CURVE"
);
},
{
closed = 0;
nodes = (
"428.339 153.319 LINE",
"434.941 138.787 OFFCURVE",
"443.514 130.179 OFFCURVE",
"453.708 118.321 CURVE"
);
},
{
closed = 0;
nodes = (
"410.996 150.031 LINE",
"410.996 138.172 OFFCURVE",
"408.689 128.412 OFFCURVE",
"405.571 117.061 CURVE"
);
},
{
closed = 0;
nodes = (
"361.894 142.196 LINE",
"376.1 141.778 OFFCURVE",
"385.911 138.362 OFFCURVE",
"398.357 131.737 CURVE"
);
},
{
closed = 0;
nodes = (
"347.74 92.834 LINE",
"354.51 103.07 OFFCURVE",
"359.925 113.776 OFFCURVE",
"366.094 124.488 CURVE"
);
},
{
closed = 0;
nodes = (
"329.068 107.35 LINE",
"331.403 95.885 OFFCURVE",
"334.447 87.817 OFFCURVE",
"339.596 77.607 CURVE"
);
},
{
closed = 0;
nodes = (
"327.53 61.619 LINE",
"347.903 61.619 OFFCURVE",
"362.134 66.554 OFFCURVE",
"380.532 75.279 CURVE"
);
},
{
closed = 0;
nodes = (
"376.909 103.519 LINE",
"395.858 102.926 OFFCURVE",
"404.003 92.647 OFFCURVE",
"418.162 81.885 CURVE"
);
},
{
closed = 0;
nodes = (
"419.726 119.693 LINE",
"425.342 105.907 OFFCURVE",
"432.369 93.426 OFFCURVE",
"439.249 80.178 CURVE"
);
},
{
closed = 0;
nodes = (
"456.444 92.96 LINE",
"469.712 91.276 OFFCURVE",
"480.538 84.337 OFFCURVE",
"492.403 78.48 CURVE"
);
},
{
closed = 0;
nodes = (
"471.481 111.615 LINE",
"489.114 111.615 OFFCURVE",
"506.456 117.945 OFFCURVE",
"523.479 122.521 CURVE"
);
},
{
closed = 0;
nodes = (
"523.957 152.729 LINE",
"537.363 147.958 OFFCURVE",
"546.822 140.669 OFFCURVE",
"557.418 131.451 CURVE"
);
},
{
closed = 0;
nodes = (
"549.782 102.268 LINE",
"561.789 108.342 OFFCURVE",
"572.377 116.837 OFFCURVE",
"583.243 124.775 CURVE"
);
},
{
closed = 0;
nodes = (
"573.81 108.657 LINE",
"574.165 96.448 OFFCURVE",
"575.058 88.809 OFFCURVE",
"579.365 77.111 CURVE"
);
},
{
closed = 0;
nodes = (
"568.737 64.663 LINE",
"586.003 66.525 OFFCURVE",
"578.379 65.146 OFFCURVE",
"599.878 71.387 CURVE"
);
},
{
closed = 0;
nodes = (
"527.966 102.02 LINE",
"538.808 88.593 OFFCURVE",
"534.383 93.883 OFFCURVE",
"541.057 85.998 CURVE"
);
},
{
closed = 0;
nodes = (
"510.923 104.735 LINE",
"510.058 90.499 OFFCURVE",
"506.036 77.159 OFFCURVE",
"502.327 63.439 CURVE"
);
},
{
closed = 0;
nodes = (
"403.551 54.891 LINE",
"413.151 63.163 OFFCURVE",
"421.761 72.403 OFFCURVE",
"433.633 76.977 CURVE"
);
},
{
closed = 0;
nodes = (
"381.696 57.888 LINE",
"389.459 43.444 OFFCURVE",
"399.596 30.958 OFFCURVE",
"407.486 16.752 CURVE"
);
},
{
closed = 0;
nodes = (
"362.099 54.344 LINE",
"362.099 41.192 OFFCURVE",
"360.548 28.376 OFFCURVE",
"358.65 15.38 CURVE"
);
},
{
closed = 0;
nodes = (
"326.053 37.066 LINE",
"337.135 36.7 OFFCURVE",
"340.203 37.34 OFFCURVE",
"348.478 30.112 CURVE"
);
},
{
closed = 0;
nodes = (
"331.213 5.963 LINE",
"344.696 1.644 OFFCURVE",
"354.178 -4.508 OFFCURVE",
"364.735 -13.981 CURVE"
);
},
{
closed = 0;
nodes = (
"371.042 22.451 LINE",
"373.239 7.642 OFFCURVE",
"380.257 -6.197 OFFCURVE",
"387.125 -19.58 CURVE"
);
},
{
closed = 0;
nodes = (
"427.207 59.691 LINE",
"429.451 49.804 OFFCURVE",
"434.428 39.102 OFFCURVE",
"438.247 29.694 CURVE"
);
},
{
closed = 0;
nodes = (
"445.096 41.719 LINE",
"450.23 53.895 OFFCURVE",
"455.374 66.205 OFFCURVE",
"463.519 76.644 CURVE"
);
},
{
closed = 0;
nodes = (
"472.855 58.239 LINE",
"486.907 51.31 OFFCURVE",
"497.094 42.434 OFFCURVE",
"509.786 34.046 CURVE"
);
},
{
closed = 0;
nodes = (
"422.576 12.864 LINE",
"441.514 13.709 OFFCURVE",
"460.311 23.307 OFFCURVE",
"478.905 28.067 CURVE"
);
},
{
closed = 0;
nodes = (
"459.522 5.773 LINE",
"459.522 -5.802 OFFCURVE",
"458.326 -15.219 OFFCURVE",
"455.542 -26.56 CURVE"
);
},
{
closed = 0;
nodes = (
"405.742 -1.3 LINE",
"419.461 -4.59 OFFCURVE",
"429.859 -12.622 OFFCURVE",
"442.853 -17.706 CURVE"
);
},
{
closed = 0;
nodes = (
"353.131 -45.103 LINE",
"364.247 -37.011 OFFCURVE",
"375.787 -28.39 OFFCURVE",
"388.435 -22.824 CURVE"
);
},
{
closed = 0;
nodes = (
"397.106 -55.882 LINE",
"400.72 -41.218 OFFCURVE",
"405.549 -31.919 OFFCURVE",
"416.205 -21.087 CURVE"
);
},
{
closed = 0;
nodes = (
"377.345 -37.399 LINE",
"382.456 -55.258 OFFCURVE",
"381.492 -52.185 OFFCURVE",
"390.493 -69.722 CURVE"
);
},
{
closed = 0;
nodes = (
"425.975 -40.495 LINE",
"438.304 -47.299 OFFCURVE",
"449.475 -54.456 OFFCURVE",
"460.976 -62.447 CURVE"
);
},
{
closed = 0;
nodes = (
"465.432 -21.121 LINE",
"473.183 -36.392 OFFCURVE",
"482.176 -49.494 OFFCURVE",
"486.078 -66.292 CURVE"
);
},
{
closed = 0;
nodes = (
"476.114 10.288 LINE",
"484.051 -3.909 OFFCURVE",
"490.971 -14.587 OFFCURVE",
"501.693 -26.274 CURVE"
);
},
{
closed = 0;
nodes = (
"496.991 3.208 LINE",
"509.001 11.663 OFFCURVE",
"518.332 23.612 OFFCURVE",
"531.299 30.423 CURVE"
);
},
{
closed = 0;
nodes = (
"515.155 72.313 LINE",
"521.196 61.077 OFFCURVE",
"526.007 49.424 OFFCURVE",
"531.864 38.074 CURVE"
);
},
{
closed = 0;
nodes = (
"523.918 12.174 LINE",
"525.52 1.08 OFFCURVE",
"529.239 -8.946 OFFCURVE",
"532.907 -19.487 CURVE"
);
},
{
closed = 0;
nodes = (
"542.015 -6.264 LINE",
"546.735 6.268 OFFCURVE",
"552.659 18.546 OFFCURVE",
"558.489 30.603 CURVE"
);
},
{
closed = 0;
nodes = (
"551.872 47.508 LINE",
"565.611 43.66 OFFCURVE",
"578.135 38.526 OFFCURVE",
"590.988 32.358 CURVE"
);
},
{
closed = 0;
nodes = (
"573.737 10.646 LINE",
"584.831 1.924 OFFCURVE",
"596.224 -7.438 OFFCURVE",
"608.394 -14.675 CURVE"
);
},
{
closed = 0;
nodes = (
"591.297 89.767 LINE",
"594.801 100.768 OFFCURVE",
"601.686 116.045 OFFCURVE",
"608.604 125.195 CURVE"
);
},
{
closed = 0;
nodes = (
"575.656 338.085 LINE",
"575.656 328.234 OFFCURVE",
"575.37 331.002 OFFCURVE",
"578.92 319.529 CURVE"
);
},
{
closed = 0;
nodes = (
"603.696 299.132 LINE",
"603.696 286.373 OFFCURVE",
"602.117 275.046 OFFCURVE",
"598.657 262.912 CURVE"
);
},
{
closed = 0;
nodes = (
"521.295 -35.447 LINE",
"541.597 -32.68 OFFCURVE",
"558.128 -21.807 OFFCURVE",
"577.386 -16.506 CURVE"
);
},
{
closed = 0;
nodes = (
"574.454 -36.953 LINE",
"580.944 -51.637 OFFCURVE",
"588.516 -66.258 OFFCURVE",
"598.693 -78.744 CURVE"
);
},
{
closed = 0;
nodes = (
"558.151 -40.265 LINE",
"558.151 -54.748 OFFCURVE",
"557.211 -67.486 OFFCURVE",
"553.959 -81.393 CURVE"
);
},
{
closed = 0;
nodes = (
"504.998 -50.384 LINE",
"517.578 -53.872 OFFCURVE",
"528.326 -59.289 OFFCURVE",
"540.249 -64.412 CURVE"
);
},
{
closed = 0;
nodes = (
"564.123 -68.84 LINE",
"568.213 -83.054 OFFCURVE",
"574.042 -96.011 OFFCURVE",
"580.304 -109.39 CURVE"
);
},
{
closed = 0;
nodes = (
"523.969 -89.6 LINE",
"537.561 -96.593 OFFCURVE",
"547.697 -101.818 OFFCURVE",
"558.89 -111.897 CURVE"
);
},
{
closed = 0;
nodes = (
"513.677 -68.735 LINE",
"506.683 -79.504 OFFCURVE",
"500.004 -90.784 OFFCURVE",
"494.534 -102.407 CURVE"
);
},
{
closed = 0;
nodes = (
"476.874 -82.903 LINE",
"478.021 -96.432 OFFCURVE",
"480.861 -107.323 OFFCURVE",
"486.508 -119.929 CURVE"
);
},
{
closed = 0;
nodes = (
"449.973 -91.675 LINE",
"463.104 -83.312 OFFCURVE",
"475.741 -73.629 OFFCURVE",
"489.349 -66.132 CURVE"
);
},
{
closed = 0;
nodes = (
"429.096 -88.134 LINE",
"436.361 -102.052 OFFCURVE",
"445.979 -114.894 OFFCURVE",
"454.289 -128.254 CURVE"
);
},
{
closed = 0;
nodes = (
"376.312 -85.403 LINE",
"397.201 -82.778 OFFCURVE",
"412.707 -75.02 OFFCURVE",
"431.606 -68.021 CURVE"
);
},
{
closed = 0;
nodes = (
"331.894 -39.565 LINE",
"340.48 -52.089 OFFCURVE",
"347.412 -65.764 OFFCURVE",
"357.214 -77.382 CURVE"
);
},
{
closed = 0;
nodes = (
"291.601 -33.514 LINE",
"306.891 -30.883 OFFCURVE",
"319.496 -25.492 OFFCURVE",
"334.112 -20.594 CURVE"
);
},
{
closed = 0;
nodes = (
"262.208 -51.456 LINE",
"273.84 -56.49 OFFCURVE",
"285.344 -61.392 OFFCURVE",
"297.305 -65.569 CURVE"
);
},
{
closed = 0;
nodes = (
"280.161 -88.897 LINE",
"294.607 -94.957 OFFCURVE",
"304.159 -103.115 OFFCURVE",
"315.745 -113.241 CURVE"
);
},
{
closed = 0;
nodes = (
"313.347 -43.96 LINE",
"313.347 -56.348 OFFCURVE",
"311.13 -67.996 OFFCURVE",
"308.497 -80.023 CURVE"
);
},
{
closed = 0;
nodes = (
"320.578 -71.037 LINE",
"325.043 -86.825 OFFCURVE",
"331.754 -100.758 OFFCURVE",
"339.901 -114.985 CURVE"
);
},
{
closed = 0;
nodes = (
"301.845 -143.517 LINE",
"314.71 -132.338 OFFCURVE",
"325.136 -120.498 OFFCURVE",
"342.262 -116.798 CURVE"
);
},
{
closed = 0;
nodes = (
"232.393 -185.814 LINE",
"241.084 -191.605 OFFCURVE",
"249.444 -197.814 OFFCURVE",
"258.138 -203.644 CURVE"
);
},
{
closed = 0;
nodes = (
"266.488 -138.577 LINE",
"266.488 -151.426 OFFCURVE",
"264.99 -162.427 OFFCURVE",
"262.916 -175.11 CURVE"
);
},
{
closed = 0;
nodes = (
"283.087 -135.989 LINE",
"292.581 -150.059 OFFCURVE",
"302.028 -163.253 OFFCURVE",
"310.39 -178.002 CURVE"
);
},
{
closed = 0;
nodes = (
"274.192 -170.278 LINE",
"278.831 -180.632 OFFCURVE",
"283.035 -191.011 OFFCURVE",
"287.38 -201.523 CURVE"
);
},
{
closed = 0;
nodes = (
"332.603 -135.297 LINE",
"334.68 -146.357 OFFCURVE",
"337.349 -156.488 OFFCURVE",
"342.113 -166.764 CURVE"
);
},
{
closed = 0;
nodes = (
"350.108 -152.074 LINE",
"353.438 -138.008 OFFCURVE",
"359.447 -129.027 OFFCURVE",
"368.785 -118.25 CURVE"
);
},
{
closed = 0;
nodes = (
"376.683 -135.831 LINE",
"389.494 -143.471 OFFCURVE",
"400.709 -153.888 OFFCURVE",
"412.304 -163.271 CURVE"
);
},
{
closed = 0;
nodes = (
"346.41 -177.911 LINE",
"360.446 -173.445 OFFCURVE",
"374.137 -168.669 OFFCURVE",
"388.383 -164.921 CURVE"
);
},
{
closed = 0;
nodes = (
"411.673 -91.794 LINE",
"411.673 -104.705 OFFCURVE",
"411.264 -115.34 OFFCURVE",
"406.943 -127.857 CURVE"
);
},
{
closed = 0;
nodes = (
"358.648 -99.516 LINE",
"372.463 -102.943 OFFCURVE",
"384.225 -106.792 OFFCURVE",
"396.886 -113.159 CURVE"
);
},
{
closed = 0;
nodes = (
"417.884 -119.816 LINE",
"421.843 -134.989 OFFCURVE",
"428.408 -148.704 OFFCURVE",
"436.117 -162.34 CURVE"
);
},
{
closed = 0;
nodes = (
"401.017 -191.272 LINE",
"412.444 -182.954 OFFCURVE",
"422.958 -172.212 OFFCURVE",
"436.073 -166.856 CURVE"
);
},
{
closed = 0;
nodes = (
"430.851 -182.03 LINE",
"432.224 -191.064 OFFCURVE",
"433.543 -198.727 OFFCURVE",
"436.889 -207.294 CURVE"
);
},
{
closed = 0;
nodes = (
"446.386 -200.729 LINE",
"452.296 -190.059 OFFCURVE",
"458.701 -179.815 OFFCURVE",
"465.257 -169.53 CURVE"
);
},
{
closed = 0;
nodes = (
"456.508 -146.47 LINE",
"468.929 -151.694 OFFCURVE",
"481.326 -157.72 OFFCURVE",
"494.094 -162.031 CURVE"
);
},
{
closed = 0;
nodes = (
"474.38 -133.237 LINE",
"492.066 -130.146 OFFCURVE",
"509.247 -124.866 OFFCURVE",
"526.14 -118.757 CURVE"
);
},
{
closed = 0;
nodes = (
"508.713 -139.666 LINE",
"508.713 -151.116 OFFCURVE",
"507.325 -160.683 OFFCURVE",
"506.151 -172.089 CURVE"
);
},
{
closed = 0;
nodes = (
"514.737 -167.236 LINE",
"519.376 -176.122 OFFCURVE",
"521.945 -183.494 OFFCURVE",
"524.303 -193.467 CURVE"
);
},
{
closed = 0;
nodes = (
"473.47 -184.588 LINE",
"486.715 -191.658 OFFCURVE",
"499.184 -199.044 OFFCURVE",
"511.525 -207.53 CURVE"
);
},
{
closed = 0;
nodes = (
"554.311 -194.712 LINE",
"567.882 -200.028 OFFCURVE",
"580.747 -205.831 OFFCURVE",
"593.898 -211.969 CURVE"
);
},
{
closed = 0;
nodes = (
"569.401 -181.345 LINE",
"598.696 -168.928 OFFCURVE",
"583.476 -175.232 OFFCURVE",
"615.083 -162.491 CURVE"
);
},
{
closed = 0;
nodes = (
"573.624 -131.014 LINE",
"577.63 -142.181 OFFCURVE",
"581.995 -153.113 OFFCURVE",
"586.558 -164.059 CURVE"
);
},
{
closed = 0;
nodes = (
"525.563 -136.935 LINE",
"536.43 -148.598 OFFCURVE",
"544.518 -160.231 OFFCURVE",
"553.079 -173.884 CURVE"
);
},
{
closed = 0;
nodes = (
"546.736 -142.118 LINE",
"558.934 -133.566 OFFCURVE",
"570.43 -123.652 OFFCURVE",
"583.744 -116.89 CURVE"
);
},
{
closed = 0;
nodes = (
"591.319 -153.902 LINE",
"596.012 -139.481 OFFCURVE",
"602.289 -127.114 OFFCURVE",
"612.435 -115.972 CURVE"
);
},
{
closed = 1;
nodes = (
"120 325 OFFCURVE",
"131 312 OFFCURVE",
"138 292 CURVE SMOOTH",
"141 284 OFFCURVE",
"142 274 OFFCURVE",
"142 264 CURVE SMOOTH",
"142 247 OFFCURVE",
"143 229 OFFCURVE",
"143 214 CURVE SMOOTH",
"143 191 OFFCURVE",
"145 173 OFFCURVE",
"149 153 CURVE SMOOTH",
"151 144 OFFCURVE",
"146 133 OFFCURVE",
"146 124 CURVE SMOOTH",
"146 90 OFFCURVE",
"148 55 OFFCURVE",
"148 21 CURVE SMOOTH",
"148 12 OFFCURVE",
"147 2 OFFCURVE",
"146 -7 CURVE SMOOTH",
"143 -35 OFFCURVE",
"143 -65 OFFCURVE",
"143 -94 CURVE SMOOTH",
"143 -129 OFFCURVE",
"144 -165 OFFCURVE",
"144 -200 CURVE SMOOTH",
"144 -205 OFFCURVE",
"145 -209 OFFCURVE",
"149 -209 CURVE SMOOTH",
"150 -209 OFFCURVE",
"151 -209 OFFCURVE",
"152 -208 CURVE SMOOTH",
"154 -206 OFFCURVE",
"155 -196 OFFCURVE",
"155 -181 CURVE SMOOTH",
"155 -147 OFFCURVE",
"152 -91 OFFCURVE",
"153 -79 CURVE SMOOTH",
"154 -66 OFFCURVE",
"156 -54 OFFCURVE",
"156 -41 CURVE SMOOTH",
"156 -8 OFFCURVE",
"152 25 OFFCURVE",
"152 57 CURVE SMOOTH",
"152 64 OFFCURVE",
"152 71 OFFCURVE",
"152 79 CURVE SMOOTH",
"152 101 OFFCURVE",
"156 122 OFFCURVE",
"156 144 CURVE SMOOTH",
"156 166 OFFCURVE",
"150 190 OFFCURVE",
"156 214 CURVE SMOOTH",
"160 230 OFFCURVE",
"155 246 OFFCURVE",
"159 262 CURVE SMOOTH",
"162 273 OFFCURVE",
"168 283 OFFCURVE",
"173 298 CURVE SMOOTH",
"175 304 OFFCURVE",
"176 311 OFFCURVE",
"172 315 CURVE SMOOTH",
"171 316 OFFCURVE",
"166 325 OFFCURVE",
"162 324 CURVE SMOOTH",
"156 322 OFFCURVE",
"159 318 OFFCURVE",
"153 318 CURVE SMOOTH",
"152 318 OFFCURVE",
"151 318 OFFCURVE",
"150 318 CURVE SMOOTH",
"128 318 OFFCURVE",
"111 356 OFFCURVE",
"111 348 CURVE"
);
}
);
width = 600;
}
);
unicode = 0051;
},
{
glyphname = R;
lastChange = "2017-12-09 18:21:12 +0000";
layers = (
{
backgroundImage = {
crop = "{{0, 0}, {943, 391}}";
imagePath = "../../../../Desktop/Capture d’écran 2017-12-08 à 15.12.10.png";
transform = "{4.153, 0, 0, 4.153, -2011, -873}";
};
layerId = "0976EF58-E9BF-471C-8466-D2D06D69E717";
paths = (
{
closed = 0;
nodes = (
"-5.239 337.234 LINE",
"53.858 304.263 OFFCURVE",
"66.902 244.314 OFFCURVE",
"99.019 189.535 CURVE SMOOTH",
"114.719 162.756 OFFCURVE",
"135.419 138.942 OFFCURVE",
"152.598 113.127 CURVE SMOOTH",
"156.936 106.609 OFFCURVE",
"167.585 108.533 OFFCURVE",
"174.863 105.65 CURVE SMOOTH",
"185.023 101.626 OFFCURVE",
"194.608 99.87 OFFCURVE",
"203.702 99.87 CURVE SMOOTH",
"268.274 99.87 OFFCURVE",
"308.087 188.378 OFFCURVE",
"353.058 181.617 CURVE SMOOTH",
"371.967 178.775 OFFCURVE",
"386.722 102.972 OFFCURVE",
"400.501 83.603 CURVE SMOOTH",
"420.264 55.822 OFFCURVE",
"443.583 9.594 OFFCURVE",
"476.622 -5.032 CURVE SMOOTH",
"492.308 -11.976 OFFCURVE",
"504.364 -10.494 OFFCURVE",
"518.877 -21.93 CURVE"
);
},
{
closed = 0;
nodes = (
"541.058 -37.399 LINE",
"559.913 -43.424 OFFCURVE",
"570.494 -58.113 OFFCURVE",
"582.947 -72.295 CURVE"
);
},
{
closed = 0;
nodes = (
"493.201 -10.064 LINE",
"493.201 -25.703 OFFCURVE",
"496.363 -41.05 OFFCURVE",
"496.363 -56.789 CURVE"
);
},
{
closed = 0;
nodes = (
"486.415 -112.537 LINE",
"483.184 -123.985 OFFCURVE",
"481.135 -136.016 OFFCURVE",
"472.185 -144.309 CURVE"
);
},
{
closed = 0;
nodes = (
"429.966 -188.392 LINE",
"415.957 -190.162 OFFCURVE",
"406.495 -197.962 OFFCURVE",
"404.693 -211.938 CURVE"
);
},
{
closed = 0;
nodes = (
"62.89 258.61 LINE",
"90.009 252.981 OFFCURVE",
"107.731 227.696 OFFCURVE",
"138.595 227.696 CURVE SMOOTH",
"147.884 227.696 OFFCURVE",
"157.355 229.13 OFFCURVE",
"166.473 227.858 CURVE SMOOTH",
"205.756 222.381 OFFCURVE",
"243.762 218.476 OFFCURVE",
"281.481 206.401 CURVE SMOOTH",
"299.052 200.776 OFFCURVE",
"320.613 202.382 OFFCURVE",
"342.282 202.382 CURVE SMOOTH",
"360.955 202.382 OFFCURVE",
"379.708 201.189 OFFCURVE",
"396.058 193.148 CURVE SMOOTH",
"422.207 180.288 OFFCURVE",
"446.358 158.88 OFFCURVE",
"472.971 147.965 CURVE SMOOTH",
"518.66 129.224 OFFCURVE",
"564.095 118.978 OFFCURVE",
"612.343 109.301 CURVE"
);
},
{
closed = 0;
nodes = (
"82.263 220.63 LINE",
"123.844 220.63 OFFCURVE",
"161.908 215.102 OFFCURVE",
"203.044 208.264 CURVE SMOOTH",
"218.994 205.612 OFFCURVE",
"235.111 212.308 OFFCURVE",
"250.768 213.48 CURVE"
);
},
{
closed = 0;
nodes = (
"90.884 204.77 LINE",
"130.112 204.77 OFFCURVE",
"163.864 193.036 OFFCURVE",
"204.214 193.036 CURVE SMOOTH",
"221.57 193.036 OFFCURVE",
"238.877 194.68 OFFCURVE",
"256.301 193.871 CURVE SMOOTH",
"275.286 192.991 OFFCURVE",
"293.192 184.908 OFFCURVE",
"311.581 184.135 CURVE SMOOTH",
"334.763 183.159 OFFCURVE",
"357.884 184.053 OFFCURVE",
"381.057 184.053 CURVE SMOOTH",
"391.397 184.053 OFFCURVE",
"401.748 183.875 OFFCURVE",
"412.12 183.274 CURVE"
);
},
{
closed = 0;
nodes = (
"101.506 186.151 LINE",
"118.703 187.73 OFFCURVE",
"136.803 188.517 OFFCURVE",
"155.306 188.517 CURVE SMOOTH",
"209.833 188.517 OFFCURVE",
"267.862 181.681 OFFCURVE",
"316.629 168.139 CURVE"
);
},
{
closed = 0;
nodes = (
"106.498 171.597 LINE",
"126.678 171.935 OFFCURVE",
"158.925 173.61 OFFCURVE",
"192.594 173.61 CURVE SMOOTH",
"237.532 173.61 OFFCURVE",
"285.003 170.627 OFFCURVE",
"309.703 157.504 CURVE"
);
},
{
closed = 0;
nodes = (
"115.809 159.89 LINE",
"174.941 159.89 OFFCURVE",
"229.863 153.246 OFFCURVE",
"288.151 146.563 CURVE"
);
},
{
closed = 0;
nodes = (
"118.983 149.15 LINE",
"131.113 149.15 OFFCURVE",
"151.155 149.629 OFFCURVE",
"173.635 149.629 CURVE SMOOTH",
"216.935 149.629 OFFCURVE",
"269.275 147.851 OFFCURVE",
"291.52 137.444 CURVE"
);
},
{
closed = 0;
nodes = (
"135.437 135.015 LINE",
"148.529 135.238 OFFCURVE",
"163.943 135.782 OFFCURVE",
"179.995 135.782 CURVE SMOOTH",
"209.667 135.782 OFFCURVE",
"241.519 133.924 OFFCURVE",
"264.913 124.747 CURVE"
);
},
{
closed = 0;
nodes = (
"155.317 119.234 LINE",
"186.162 119.234 OFFCURVE",
"208.127 120.202 OFFCURVE",
"235.085 104.937 CURVE"
);
},
{
closed = 0;
nodes = (
"366.9 169.323 LINE",
"391.129 169.323 OFFCURVE",
"415.359 169.323 OFFCURVE",
"439.588 169.323 CURVE"
);
},
{
closed = 0;
nodes = (
"369.969 153.981 LINE",
"383.097 153.981 OFFCURVE",
"396.225 154.032 OFFCURVE",
"409.353 154.032 CURVE SMOOTH",
"426.505 154.032 OFFCURVE",
"443.656 153.944 OFFCURVE",
"460.804 153.542 CURVE"
);
},
{
closed = 0;
nodes = (
"377.557 141.317 LINE",
"406.106 141.317 OFFCURVE",
"440.612 130.814 OFFCURVE",
"471.422 130.814 CURVE SMOOTH",
"482.506 130.814 OFFCURVE",
"493.112 132.173 OFFCURVE",
"502.79 135.87 CURVE"
);
},
{
closed = 0;
nodes = (
"380.933 130.01 LINE",
"421.012 130.01 OFFCURVE",
"460.187 125.005 OFFCURVE",
"499.914 125.005 CURVE SMOOTH",
"510.885 125.005 OFFCURVE",
"521.898 125.386 OFFCURVE",
"532.983 126.361 CURVE"
);
},
{
closed = 0;
nodes = (
"385.384 118.689 LINE",
"461.099 118.689 OFFCURVE",
"535.643 109.801 OFFCURVE",
"610.789 104.132 CURVE"
);
},
{
closed = 0;
nodes = (
"390.135 100.13 LINE",
"400.394 100.13 OFFCURVE",
"411.469 100.755 OFFCURVE",
"422.487 100.755 CURVE SMOOTH",
"433.323 100.755 OFFCURVE",
"444.103 100.15 OFFCURVE",
"454 97.751 CURVE SMOOTH",
"480.32 91.369 OFFCURVE",
"505.733 79.063 OFFCURVE",
"532.967 79.063 CURVE SMOOTH",
"553.503 79.063 OFFCURVE",
"573.089 86.398 OFFCURVE",
"593.991 86.398 CURVE SMOOTH",
"598.695 86.398 OFFCURVE",
"603.465 86.027 OFFCURVE",
"608.327 85.117 CURVE"
);
},
{
closed = 0;
nodes = (
"401.442 77.799 LINE",
"439.908 78.683 OFFCURVE",
"475.858 71.05 OFFCURVE",
"513.923 71.05 CURVE SMOOTH",
"534.305 71.05 OFFCURVE",
"553.419 74.336 OFFCURVE",
"572.994 74.336 CURVE SMOOTH",
"583.571 74.336 OFFCURVE",
"594.284 73.376 OFFCURVE",
"605.404 70.421 CURVE"
);
},
{
closed = 0;
nodes = (
"412.631 60.767 LINE",
"422.362 61.899 OFFCURVE",
"435.641 62.464 OFFCURVE",
"450.811 62.464 CURVE SMOOTH",
"502.053 62.464 OFFCURVE",
"574.88 56.014 OFFCURVE",
"605.506 43.174 CURVE"
);
},
{
closed = 0;
nodes = (
"426.245 44.543 LINE",
"473.538 44.543 OFFCURVE",
"520.938 42.579 OFFCURVE",
"568.245 42.579 CURVE SMOOTH",
"580.614 42.579 OFFCURVE",
"592.976 42.713 OFFCURVE",
"605.328 43.052 CURVE"
);
},
{
closed = 0;
nodes = (
"432.372 31.537 LINE",
"490.507 33.203 OFFCURVE",
"548.869 35.375 OFFCURVE",
"607.02 37.756 CURVE"
);
},
{
closed = 0;
nodes = (
"440.858 19.959 LINE",
"474.196 19.959 OFFCURVE",
"523.703 24.974 OFFCURVE",
"564.189 24.974 CURVE SMOOTH",
"578.947 24.974 OFFCURVE",
"592.505 24.308 OFFCURVE",
"603.645 22.489 CURVE"
);
},
{
closed = 0;
nodes = (
"455.666 5.042 LINE",
"504.654 5.042 OFFCURVE",
"553.61 4.517 OFFCURVE",
"602.599 4.517 CURVE"
);
},
{
closed = 0;
nodes = (
"542.621 -7.978 LINE",
"564.588 -7.978 OFFCURVE",
"583.291 -22.367 OFFCURVE",
"600.926 -34.321 CURVE"
);
},
{
closed = 0;
nodes = (
"569.261 2.923 LINE",
"577.394 1.972 OFFCURVE",
"579.387 0.722 OFFCURVE",
"586.085 -4.124 CURVE"
);
},
{
closed = 0;
nodes = (
"514.542 4.19 LINE",
"522.165 1.671 OFFCURVE",
"524.835 -1.259 OFFCURVE",
"529.793 -7.219 CURVE"
);
}
);
width = 600;
}
);
unicode = 0052;
},
{
glyphname = S;
lastChange = "2017-12-10 10:08:24 +0000";
layers = (
{
backgroundImage = {
crop = "{{0, 0}, {943, 391}}";
imagePath = "../../../../Desktop/Capture d’écran 2017-12-08 à 15.12.10.png";
transform = "{4.153, 0, 0, 4.153, -1711, -873}";
};
layerId = "0976EF58-E9BF-471C-8466-D2D06D69E717";
paths = (
{
closed = 0;
nodes = (
"-124 6 LINE",
"-99 37 OFFCURVE",
"-41.823 104.341 OFFCURVE",
"-18.042 146.076 CURVE SMOOTH",
"-0.066 177.623 OFFCURVE",
"22.51 204.477 OFFCURVE",
"44.439 233.18 CURVE SMOOTH",
"66.084 261.512 OFFCURVE",
"79.353 294.823 OFFCURVE",
"102.125 322.461 CURVE SMOOTH",
"111.23 333.512 OFFCURVE",
"125.619 335.849 OFFCURVE",
"133.96 345.726 CURVE SMOOTH",
"160.088 376.671 OFFCURVE",
"164.881 385.246 OFFCURVE",
"206.043 402.704 CURVE SMOOTH",
"210.581 404.629 OFFCURVE",
"214.862 405.496 OFFCURVE",
"218.914 405.496 CURVE SMOOTH",
"248.262 405.496 OFFCURVE",
"265.67 360.032 OFFCURVE",
"282.505 341.497 CURVE SMOOTH",
"298.824 323.53 OFFCURVE",
"324.11 310.188 OFFCURVE",
"342.4 294.258 CURVE SMOOTH",
"348.207 289.2 OFFCURVE",
"347.88 279.69 OFFCURVE",
"352.308 273.39 CURVE SMOOTH",
"387.312 223.585 OFFCURVE",
"407.258 160.907 OFFCURVE",
"457.571 123.012 CURVE SMOOTH",
"475.372 109.605 OFFCURVE",
"491.509 104.321 OFFCURVE",
"506.493 104.321 CURVE SMOOTH",
"564.66 104.321 OFFCURVE",
"605.433 183.947 OFFCURVE",
"658.611 176.995 CURVE SMOOTH",
"673.819 175.007 OFFCURVE",
"715.778 67.678 OFFCURVE",
"725.639 46.784 CURVE SMOOTH",
"754.68 -14.745 OFFCURVE",
"793.909 11.036 OFFCURVE",
"821.761 -23.032 CURVE"
);
},
{
closed = 1;
nodes = (
"8 64 LINE",
"23 73 LINE",
"25 71 OFFCURVE",
"27 69 OFFCURVE",
"27 66 CURVE SMOOTH",
"27 63 OFFCURVE",
"17 63 OFFCURVE",
"17 55 CURVE SMOOTH",
"17 47 OFFCURVE",
"27 52 OFFCURVE",
"27 46 CURVE SMOOTH",
"27 40 OFFCURVE",
"17 45 OFFCURVE",
"17 35 CURVE SMOOTH",
"17 25 OFFCURVE",
"27 32 OFFCURVE",
"27 25 CURVE SMOOTH",
"27 18 OFFCURVE",
"17 22 OFFCURVE",
"17 15 CURVE SMOOTH",
"17 8 OFFCURVE",
"24 6 OFFCURVE",
"25 3 CURVE",
"29 5 LINE",
"27 8 OFFCURVE",
"23 11 OFFCURVE",
"23 14 CURVE SMOOTH",
"23 17 OFFCURVE",
"33 18 OFFCURVE",
"33 25 CURVE SMOOTH",
"33 32 OFFCURVE",
"23 31 OFFCURVE",
"23 35 CURVE SMOOTH",
"23 39 OFFCURVE",
"33 39 OFFCURVE",
"33 46 CURVE SMOOTH",
"33 53 OFFCURVE",
"25 51 OFFCURVE",
"25 56 CURVE SMOOTH",
"25 61 OFFCURVE",
"33 59 OFFCURVE",
"33 65 CURVE",
"30 73 LINE",
"42 65 LINE",
"26 109 LINE"
);
},
{
closed = 1;
nodes = (
"235 64 LINE",
"250 73 LINE",
"252 71 OFFCURVE",
"254 69 OFFCURVE",
"254 66 CURVE SMOOTH",
"254 63 OFFCURVE",
"244 63 OFFCURVE",
"244 55 CURVE SMOOTH",
"244 47 OFFCURVE",
"254 52 OFFCURVE",
"254 46 CURVE SMOOTH",
"254 40 OFFCURVE",
"244 45 OFFCURVE",
"244 35 CURVE SMOOTH",
"244 25 OFFCURVE",
"254 32 OFFCURVE",
"254 25 CURVE SMOOTH",
"254 18 OFFCURVE",
"244 22 OFFCURVE",
"244 15 CURVE SMOOTH",
"244 8 OFFCURVE",
"251 6 OFFCURVE",
"252 3 CURVE",
"256 5 LINE",
"254 8 OFFCURVE",
"250 11 OFFCURVE",
"250 14 CURVE SMOOTH",
"250 17 OFFCURVE",
"260 18 OFFCURVE",
"260 25 CURVE SMOOTH",
"260 32 OFFCURVE",
"250 31 OFFCURVE",
"250 35 CURVE SMOOTH",
"250 39 OFFCURVE",
"260 39 OFFCURVE",
"260 46 CURVE SMOOTH",
"260 53 OFFCURVE",
"252 51 OFFCURVE",
"252 56 CURVE SMOOTH",
"252 61 OFFCURVE",
"260 59 OFFCURVE",
"260 65 CURVE",
"257 73 LINE",
"269 65 LINE",
"253 109 LINE"
);
},
{
closed = 1;
nodes = (
"553 64 LINE",
"568 73 LINE",
"570 71 OFFCURVE",
"572 69 OFFCURVE",
"572 66 CURVE SMOOTH",
"572 63 OFFCURVE",
"562 63 OFFCURVE",
"562 55 CURVE SMOOTH",
"562 47 OFFCURVE",
"572 52 OFFCURVE",
"572 46 CURVE SMOOTH",
"572 40 OFFCURVE",
"562 45 OFFCURVE",
"562 35 CURVE SMOOTH",
"562 25 OFFCURVE",
"572 32 OFFCURVE",
"572 25 CURVE SMOOTH",
"572 18 OFFCURVE",
"562 22 OFFCURVE",
"562 15 CURVE SMOOTH",
"562 8 OFFCURVE",
"569 6 OFFCURVE",
"570 3 CURVE",
"574 5 LINE",
"572 8 OFFCURVE",
"568 11 OFFCURVE",
"568 14 CURVE SMOOTH",
"568 17 OFFCURVE",
"578 18 OFFCURVE",
"578 25 CURVE SMOOTH",
"578 32 OFFCURVE",
"568 31 OFFCURVE",
"568 35 CURVE SMOOTH",
"568 39 OFFCURVE",
"578 39 OFFCURVE",
"578 46 CURVE SMOOTH",
"578 53 OFFCURVE",
"570 51 OFFCURVE",
"570 56 CURVE SMOOTH",
"570 61 OFFCURVE",
"578 59 OFFCURVE",
"578 65 CURVE",
"575 73 LINE",
"587 65 LINE",
"571 109 LINE"
);
}
);
width = 600;
}
);
unicode = 0053;
},
{
glyphname = T;
lastChange = "2017-12-09 18:13:35 +0000";
layers = (
{
backgroundImage = {
crop = "{{0, 0}, {943, 391}}";
imagePath = "../../../../Desktop/Capture d’écran 2017-12-08 à 15.12.10.png";
transform = "{4.153, 0, 0, 4.153, -661, -874}";
};
layerId = "0976EF58-E9BF-471C-8466-D2D06D69E717";
paths = (
{
closed = 0;
nodes = (
"-2.921 -115.432 LINE",
"13.954 -114.496 OFFCURVE",
"28.664 -107.075 OFFCURVE",
"44.925 -103.834 CURVE SMOOTH",
"71.117 -98.615 OFFCURVE",
"98.329 -100.557 OFFCURVE",
"124.525 -94.233 CURVE SMOOTH",
"173.499 -82.409 OFFCURVE",
"214.55 -60.849 OFFCURVE",
"260.708 -42.828 CURVE SMOOTH",
"297.148 -28.602 OFFCURVE",
"335.925 -22.79 OFFCURVE",
"372.576 -8.717 CURVE SMOOTH",
"404.832 3.668 OFFCURVE",
"441.151 8.513 OFFCURVE",
"475.659 10.801 CURVE SMOOTH",
"476.071 10.828 OFFCURVE",
"491.254 12.163 OFFCURVE",
"491.285 12.282 CURVE SMOOTH",
"505.387 66.982 OFFCURVE",
"504.66 123.511 OFFCURVE",
"512.451 179.433 CURVE SMOOTH",
"516.485 208.396 OFFCURVE",
"533.681 232.822 OFFCURVE",
"539.372 260.547 CURVE SMOOTH",
"545.459 290.197 OFFCURVE",
"552.675 319.705 OFFCURVE",
"560.565 349.339 CURVE SMOOTH",
"566.381 371.181 OFFCURVE",
"581.102 454.474 OFFCURVE",
"607.36 460.195 CURVE"
);
},
{
closed = 0;
nodes = (
"72.658 -184.264 LINE",
"89.751 -177.274 OFFCURVE",
"104.346 -162.262 OFFCURVE",
"118.092 -150.274 CURVE"
);
},
{
closed = 0;
nodes = (
"144.485 -131.292 LINE",
"163.252 -123.331 OFFCURVE",
"179.73 -109.22 OFFCURVE",
"197.719 -99.379 CURVE"
);
},
{
closed = 0;
nodes = (
"230.255 -79.01 LINE",
"251.745 -69.656 OFFCURVE",
"271.702 -55.662 OFFCURVE",
"293.941 -47.793 CURVE"
);
},
{
closed = 0;
nodes = (
"310.987 -39.954 LINE",
"331.231 -39.954 OFFCURVE",
"350.686 -30.427 OFFCURVE",
"370.706 -27.525 CURVE"
);
},
{
closed = 0;
nodes = (
"402.881 -16.469 LINE",
"430.693 -6.988 OFFCURVE",
"455.321 6.77 OFFCURVE",
"484.028 13.079 CURVE"
);
},
{
closed = 0;
nodes = (
"-1.192 -128.019 LINE",
"12.987 -120.979 OFFCURVE",
"27.334 -113.137 OFFCURVE",
"40.853 -104.881 CURVE"
);
},
{
closed = 0;
nodes = (
"36.802 -127.472 LINE",
"53.871 -119.277 OFFCURVE",
"70.822 -108.731 OFFCURVE",
"87.361 -99.338 CURVE"
);
},
{
closed = 0;
nodes = (
"93.777 -119.976 LINE",
"115.761 -111.125 OFFCURVE",
"135.29 -97.193 OFFCURVE",
"155.424 -85.082 CURVE"
);
},
{
closed = 0;
nodes = (
"11.513 -160.429 LINE",
"29.692 -152.947 OFFCURVE",
"45.385 -140.952 OFFCURVE",
"63.434 -133.516 CURVE"
);
},
{
closed = 0;
nodes = (
"-1.549 -147.967 LINE",
"3.475 -146.076 OFFCURVE",
"4.816 -145.52 OFFCURVE",
"10.583 -143.66 CURVE"
);
},
{
closed = 0;
nodes = (
"-2.18 -200.542 LINE",
"12.566 -192.268 OFFCURVE",
"24.722 -179.972 OFFCURVE",
"39.234 -171.214 CURVE"
);
},
{
closed = 0;
nodes = (
"69.631 -152.955 LINE",
"85.655 -144.193 OFFCURVE",
"100.971 -128.75 OFFCURVE",
"118.75 -124.188 CURVE"
);
},
{
closed = 0;
nodes = (
"36.346 -200.465 LINE",
"55.535 -190.695 OFFCURVE",
"71.26 -176.85 OFFCURVE",
"89.828 -166.294 CURVE"
);
},
{
closed = 0;
nodes = (
"148.91 -113.141 LINE",
"166.979 -104.823 OFFCURVE",
"188.737 -100.113 OFFCURVE",
"203.78 -86.782 CURVE"
);
},
{
closed = 0;
nodes = (
"232.43 -68.544 LINE",
"251.718 -63.648 OFFCURVE",
"266.945 -49.566 OFFCURVE",
"286.721 -45.227 CURVE"
);
},
{
closed = 0;
nodes = (
"318.82 -32.905 LINE",
"331.668 -30.242 OFFCURVE",
"344.055 -20.74 OFFCURVE",
"355.772 -14.842 CURVE"
);
},
{
closed = 0;
nodes = (
"415.802 -12.513 LINE",
"420.928 -23.989 OFFCURVE",
"425.832 -29.11 OFFCURVE",
"433.869 -38.155 CURVE"
);
},
{
closed = 0;
nodes = (
"475.178 -90.072 LINE",
"483.366 -98.257 OFFCURVE",
"491.562 -106.316 OFFCURVE",
"499.991 -114.249 CURVE"
);
},
{
closed = 0;
nodes = (
"438.673 -44.608 LINE",
"441.537 -38.047 OFFCURVE",
"447.09 -33.287 OFFCURVE",
"452.064 -28.249 CURVE"
);
},
{
closed = 0;
nodes = (
"439.955 -8.683 LINE",
"454.745 -11.038 OFFCURVE",
"467.432 -17.206 OFFCURVE",
"480.173 -24.629 CURVE"
);
},
{
closed = 0;
nodes = (
"493.682 1.972 LINE",
"493.682 -11.921 OFFCURVE",
"492.651 -23.923 OFFCURVE",
"489.532 -37.406 CURVE"
);
},
{
closed = 0;
nodes = (
"455.096 -46.871 LINE",
"468.597 -46.277 OFFCURVE",
"481.671 -60.562 OFFCURVE",
"491.531 -68.56 CURVE"
);
},
{
closed = 0;
nodes = (
"500.203 -32.41 LINE",
"506.568 -46.486 OFFCURVE",
"517.191 -58.248 OFFCURVE",
"523.204 -72.626 CURVE"
);
},
{
closed = 0;
nodes = (
"507.834 -86.124 LINE",
"514.676 -79.729 OFFCURVE",
"511.009 -82.96 OFFCURVE",
"518.889 -76.492 CURVE"
);
},
{
closed = 0;
nodes = (
"510.186 -101.036 LINE",
"513.829 -109.067 OFFCURVE",
"517.636 -116.819 OFFCURVE",
"522.518 -124.151 CURVE"
);
},
{
closed = 0;
nodes = (
"521.987 -135.724 LINE",
"534.116 -131.079 OFFCURVE",
"543.864 -127.87 OFFCURVE",
"557.024 -126.808 CURVE"
);
},
{
closed = 0;
nodes = (
"561.178 -144.594 LINE",
"569.603 -155.716 OFFCURVE",
"576.987 -167.988 OFFCURVE",
"583.831 -180.156 CURVE"
);
},
{
closed = 0;
nodes = (
"587.42 -145.803 LINE",
"591.427 -137.896 OFFCURVE",
"598.219 -133.825 OFFCURVE",
"605.351 -128.617 CURVE"
);
},
{
closed = 0;
nodes = (
"553.977 -91.514 LINE",
"566.902 -101.373 OFFCURVE",
"580.351 -111.033 OFFCURVE",
"594.048 -119.86 CURVE"
);
},
{
closed = 0;
nodes = (
"533.022 -109.032 LINE",
"534.992 -97.557 OFFCURVE",
"540.404 -88.456 OFFCURVE",
"547.398 -79.586 CURVE"
);
},
{
closed = 0;
nodes = (
"538.103 -56.368 LINE",
"548.482 -59.479 OFFCURVE",
"558.4 -62.709 OFFCURVE",
"567.866 -68.123 CURVE"
);
},
{
closed = 0;
nodes = (
"588.274 -48.957 LINE",
"588.274 -61.799 OFFCURVE",
"586.235 -72.613 OFFCURVE",
"583.988 -84.979 CURVE"
);
},
{
closed = 0;
nodes = (
"555.474 -40.866 LINE",
"571.802 -38.993 OFFCURVE",
"585.957 -34.627 OFFCURVE",
"601.295 -28.88 CURVE"
);
},
{
closed = 0;
nodes = (
"510.124 0.066 LINE",
"519.932 -12.586 OFFCURVE",
"528.715 -25.894 OFFCURVE",
"538.371 -38.646 CURVE"
);
},
{
closed = 0;
nodes = (
"492.36 17.718 LINE",
"500.956 17.718 OFFCURVE",
"508.945 17.708 OFFCURVE",
"517.455 19.069 CURVE"
);
},
{
closed = 0;
nodes = (
"504.787 53.922 LINE",
"518.515 45.824 OFFCURVE",
"531.459 36.976 OFFCURVE",
"544.013 27.15 CURVE"
);
},
{
closed = 0;
nodes = (
"528.717 -5.76 LINE",
"541.061 3.137 OFFCURVE",
"552.4 13.252 OFFCURVE",
"564.735 22.164 CURVE"
);
},
{
closed = 0;
nodes = (
"556.788 5.161 LINE",
"558.371 -6.437 OFFCURVE",
"561.789 -16.456 OFFCURVE",
"566.325 -27.236 CURVE"
);
},
{
closed = 0;
nodes = (
"572.933 -14.191 LINE",
"579.635 -1.369 OFFCURVE",
"587.782 10.649 OFFCURVE",
"595.434 22.921 CURVE"
);
},
{
closed = 0;
nodes = (
"543.64 69.509 LINE",
"549.64 55.088 OFFCURVE",
"556.39 41.355 OFFCURVE",
"563.736 27.612 CURVE"
);
},
{
closed = 0;
nodes = (
"540.161 95.547 LINE",
"539.203 85.499 OFFCURVE",
"537.835 76.703 OFFCURVE",
"535.417 67.007 CURVE"
);
},
{
closed = 0;
nodes = (
"502.322 85.185 LINE",
"509.837 81.155 OFFCURVE",
"516.461 76.519 OFFCURVE",
"523.504 71.659 CURVE"
);
},
{
closed = 0;
nodes = (
"504.034 103.215 LINE",
"524.433 108.503 OFFCURVE",
"544.221 113.137 OFFCURVE",
"565.079 115.73 CURVE"
);
},
{
closed = 0;
nodes = (
"574.418 92.321 LINE",
"582.516 96.689 OFFCURVE",
"590.256 101.58 OFFCURVE",
"598.351 105.936 CURVE"
);
},
{
closed = 0;
nodes = (
"584.839 41.128 LINE",
"594.265 39.269 OFFCURVE",
"592.659 39.344 OFFCURVE",
"603.558 33.883 CURVE"
);
},
{
closed = 0;
nodes = (
"553.131 151.354 LINE",
"566.152 141.939 OFFCURVE",
"578.987 132.273 OFFCURVE",
"590.966 121.566 CURVE"
);
},
{
closed = 0;
nodes = (
"528.931 132.763 LINE",
"533.099 143.728 OFFCURVE",
"539.318 153.345 OFFCURVE",
"543.027 164.518 CURVE"
);
},
{
closed = 0;
nodes = (
"536.269 186.25 LINE",
"549.827 182.466 OFFCURVE",
"558.346 178.762 OFFCURVE",
"569.681 171.511 CURVE"
);
},
{
closed = 0;
nodes = (
"587.893 195.913 LINE",
"587.692 180.598 OFFCURVE",
"585.82 168.354 OFFCURVE",
"582.135 153.599 CURVE"
);
},
{
closed = 0;
nodes = (
"552.85 202.306 LINE",
"570.39 202.306 OFFCURVE",
"586.787 206.686 OFFCURVE",
"603.845 210.276 CURVE"
);
},
{
closed = 0;
nodes = (
"554.67 249.302 LINE",
"557.24 239.37 OFFCURVE",
"558.893 229.018 OFFCURVE",
"562.527 219.446 CURVE"
);
},
{
closed = 0;
nodes = (
"593.995 266.144 LINE",
"586.097 254.303 OFFCURVE",
"578.632 242.243 OFFCURVE",
"572.091 229.579 CURVE"
);
},
{
closed = 0;
nodes = (
"537.465 246.759 LINE",
"548.162 253.247 OFFCURVE",
"558.58 259.741 OFFCURVE",
"569.463 265.925 CURVE"
);
},
{
closed = 0;
nodes = (
"551.146 288.017 LINE",
"557.899 283.195 OFFCURVE",
"561.517 276.81 OFFCURVE",
"566.028 269.865 CURVE"
);
},
{
closed = 0;
nodes = (
"581.731 285.473 LINE",
"588.289 282.547 OFFCURVE",
"594.203 279.398 OFFCURVE",
"600.728 276.11 CURVE"
);
},
{
closed = 0;
nodes = (
"562.009 333.122 LINE",
"567.597 322.601 OFFCURVE",
"574.293 313.36 OFFCURVE",
"581.258 303.69 CURVE"
);
},
{
closed = 0;
nodes = (
"574.333 338.931 LINE",
"584.274 342.98 OFFCURVE",
"592.477 351.237 OFFCURVE",
"601.976 356.488 CURVE"
);
},
{
closed = 0;
nodes = (
"572.194 377.319 LINE",
"579.525 373.707 OFFCURVE",
"585.581 369.438 OFFCURVE",
"591.542 363.9 CURVE"
);
},
{
closed = 0;
nodes = (
"591.057 408.328 LINE",
"600.394 397.292 OFFCURVE",
"604.066 386.114 OFFCURVE",
"608.284 372.286 CURVE"
);
}
);
width = 600;
}
);
unicode = 0054;
},
{
glyphname = U;
lastChange = "2017-12-09 18:15:03 +0000";
layers = (
{
layerId = "0976EF58-E9BF-471C-8466-D2D06D69E717";
paths = (
{
closed = 1;
nodes = (
"311 -75 LINE",
"428 -75 LINE",
"419 -91 LINE",
"476 -69 LINE",
"417 -47 LINE",
"428 -64 LINE",
"311 -64 LINE"
);
},
{
closed = 1;
nodes = (
"180 -103 OFFCURVE",
"158 -112 OFFCURVE",
"127 -163 CURVE",
"135 -167 LINE",
"163 -117 OFFCURVE",
"191 -107 OFFCURVE",
"224 -89 CURVE",
"222 -111 LINE",
"267 -69 LINE",
"204 -70 LINE",
"220 -81 LINE"
);
},
{
closed = 1;
nodes = (
"90 -309 OFFCURVE",
"94 -328 OFFCURVE",
"109 -347 CURVE",
"115 -342 LINE",
"95 -323 OFFCURVE",
"100 -296 OFFCURVE",
"107 -279 CURVE",
"119 -296 LINE",
"121 -234 LINE",
"79 -278 LINE",
"100 -276 LINE"
);
},
{
closed = 1;
nodes = (
"234 -350 LINE",
"245 -333 LINE",
"186 -355 LINE",
"243 -377 LINE",
"234 -361 LINE",
"398 -361 LINE",
"398 -350 LINE"
);
}
);
width = 600;
}
);
unicode = 0055;
},
{
glyphname = V;
lastChange = "2017-12-09 18:28:27 +0000";
layers = (
{
backgroundImage = {
crop = "{{0, 0}, {943, 391}}";
imagePath = "../../../../Desktop/Capture d’écran 2017-12-08 à 15.12.10.png";
transform = "{4.153, 0, 0, 4.153, -1451, -873}";
};
layerId = "0976EF58-E9BF-471C-8466-D2D06D69E717";
paths = (
{
closed = 0;
nodes = (
"-2.927 116.941 LINE",
"8.921 117.495 OFFCURVE",
"2.651 116.851 OFFCURVE",
"15.852 119.166 CURVE"
);
},
{
closed = 0;
nodes = (
"24.985 97.062 LINE",
"31.331 99.856 OFFCURVE",
"33.223 101.425 OFFCURVE",
"38.485 105.991 CURVE"
);
},
{
closed = 0;
nodes = (
"8.872 104.037 LINE",
"18.023 90.484 OFFCURVE",
"29.166 78.858 OFFCURVE",
"35.086 63.465 CURVE"
);
},
{
closed = 0;
nodes = (
"52.85 57.749 LINE",
"60.294 57.916 OFFCURVE",
"58.873 57.943 OFFCURVE",
"66.401 59.752 CURVE"
);
},
{
closed = 0;
nodes = (
"2.105 61.049 LINE",
"8.023 51.539 OFFCURVE",
"12.215 41.082 OFFCURVE",
"16.831 30.893 CURVE"
);
},
{
closed = 0;
nodes = (
"35.987 44.092 LINE",
"50.153 43.682 OFFCURVE",
"62.957 37.733 OFFCURVE",
"74.184 29.47 CURVE"
);
},
{
closed = 0;
nodes = (
"85.23 30.289 LINE",
"85.23 21.314 OFFCURVE",
"85.659 25.872 OFFCURVE",
"83.809 16.629 CURVE"
);
},
{
closed = 0;
nodes = (
"-3.057 8.786 LINE",
"5.73 13.788 OFFCURVE",
"14.759 18.446 OFFCURVE",
"23.673 23.236 CURVE"
);
},
{
closed = 0;
nodes = (
"9.814 9.865 LINE",
"9.814 -3.417 OFFCURVE",
"11.468 -12.549 OFFCURVE",
"16.227 -25.165 CURVE"
);
},
{
closed = 0;
nodes = (
"25.349 -11.85 LINE",
"31.656 0.896 OFFCURVE",
"38.982 12.487 OFFCURVE",
"46.861 24.283 CURVE"
);
},
{
closed = 0;
nodes = (
"54.763 6.647 LINE",
"69.416 0.522 OFFCURVE",
"79.991 -9.219 OFFCURVE",
"91.561 -19.868 CURVE"
);
},
{
closed = 0;
nodes = (
"15.823 -36.376 LINE",
"32.02 -33.721 OFFCURVE",
"46.082 -30.595 OFFCURVE",
"60.805 -23.432 CURVE"
);
},
{
closed = 0;
nodes = (
"78.046 -45.284 LINE",
"90.777 -39.55 OFFCURVE",
"101.331 -30.151 OFFCURVE",
"114.279 -24.527 CURVE"
);
},
{
closed = 0;
nodes = (
"104.346 -38.148 LINE",
"107.604 -49.093 OFFCURVE",
"110.891 -58.725 OFFCURVE",
"116.878 -68.407 CURVE"
);
},
{
closed = 0;
nodes = (
"56.352 -40.997 LINE",
"67.665 -52.962 OFFCURVE",
"77.563 -65.327 OFFCURVE",
"85.734 -79.649 CURVE"
);
},
{
closed = 0;
nodes = (
"40.493 -43.374 LINE",
"40.493 -55.424 OFFCURVE",
"40.139 -67.195 OFFCURVE",
"38.555 -79.143 CURVE"
);
},
{
closed = 0;
nodes = (
"-4.982 -55.028 LINE",
"2.453 -57.668 OFFCURVE",
"8.476 -61.565 OFFCURVE",
"15.609 -64.7 CURVE"
);
},
{
closed = 0;
nodes = (
"10.185 -92.059 LINE",
"23.355 -99.911 OFFCURVE",
"33.709 -110.763 OFFCURVE",
"46.292 -119.328 CURVE"
);
},
{
closed = 0;
nodes = (
"48.542 -76.451 LINE",
"53.814 -89.121 OFFCURVE",
"60.447 -101.036 OFFCURVE",
"65.832 -113.657 CURVE"
);
},
{
closed = 0;
nodes = (
"85.42 -102.203 LINE",
"99.801 -107.232 OFFCURVE",
"112.903 -115.787 OFFCURVE",
"128.011 -118.345 CURVE"
);
},
{
closed = 0;
nodes = (
"104.464 -87.624 LINE",
"123.377 -82.616 OFFCURVE",
"141.958 -76.427 OFFCURVE",
"160.959 -71.663 CURVE"
);
},
{
closed = 0;
nodes = (
"125.042 -55.872 LINE",
"130.88 -43.519 OFFCURVE",
"139.234 -32.806 OFFCURVE",
"145.526 -20.696 CURVE"
);
},
{
closed = 0;
nodes = (
"31.33 -145.641 LINE",
"46.263 -138.881 OFFCURVE",
"59.232 -129.697 OFFCURVE",
"73.256 -121.304 CURVE"
);
},
{
closed = 0;
nodes = (
"60.403 -137.189 LINE",
"61.332 -149.517 OFFCURVE",
"63.457 -160.636 OFFCURVE",
"70.703 -170.713 CURVE"
);
},
{
closed = 0;
nodes = (
"75.2 -158.397 LINE",
"79.161 -144.004 OFFCURVE",
"84.432 -131.474 OFFCURVE",
"94.395 -120.28 CURVE"
);
},
{
closed = 0;
nodes = (
"101.143 -137.393 LINE",
"114.541 -145.02 OFFCURVE",
"126.79 -154.398 OFFCURVE",
"139.548 -163.005 CURVE"
);
},
{
closed = 0;
nodes = (
"52.453 -185.874 LINE",
"72.38 -183.489 OFFCURVE",
"90.44 -172.708 OFFCURVE",
"109.902 -167.871 CURVE"
);
},
{
closed = 0;
nodes = (
"-1.721 -169.307 LINE",
"5.14 -184.196 OFFCURVE",
"11.95 -199.184 OFFCURVE",
"18.383 -214.299 CURVE"
);
},
{
closed = 0;
nodes = (
"93.89 -187.775 LINE",
"91.244 -198.482 OFFCURVE",
"88.422 -209.131 OFFCURVE",
"85.766 -219.835 CURVE"
);
},
{
closed = 0;
nodes = (
"107.085 -185.833 LINE",
"113.54 -197.177 OFFCURVE",
"120.088 -207.424 OFFCURVE",
"128.615 -217.429 CURVE"
);
},
{
closed = 0;
nodes = (
"127.481 -191.773 LINE",
"141.072 -185.684 OFFCURVE",
"151.825 -177.653 OFFCURVE",
"164 -168.936 CURVE"
);
},
{
closed = 0;
nodes = (
"146.734 -120.762 LINE",
"149.644 -135.359 OFFCURVE",
"156.855 -147.44 OFFCURVE",
"164.921 -159.73 CURVE"
);
},
{
closed = 0;
nodes = (
"156.982 -182.715 LINE",
"158.603 -193.755 OFFCURVE",
"157.951 -190.077 OFFCURVE",
"161.64 -201.353 CURVE"
);
},
{
closed = 0;
nodes = (
"202.879 -185.928 LINE",
"217.925 -192.803 OFFCURVE",
"228.106 -201.73 OFFCURVE",
"240.462 -212.621 CURVE"
);
},
{
closed = 0;
nodes = (
"201.356 -155.141 LINE",
"210.316 -156.386 OFFCURVE",
"215.826 -157.359 OFFCURVE",
"223.454 -161.944 CURVE"
);
},
{
closed = 0;
nodes = (
"156.653 -90.374 LINE",
"163.883 -103.192 OFFCURVE",
"171.099 -115.482 OFFCURVE",
"179.877 -127.248 CURVE"
);
},
{
closed = 0;
nodes = (
"139.017 -88.912 LINE",
"139.017 -104.652 OFFCURVE",
"138.168 -118.968 OFFCURVE",
"135.92 -134.513 CURVE"
);
},
{
closed = 0;
nodes = (
"137.145 -4.077 LINE",
"149.095 -7.398 OFFCURVE",
"159.765 -13.818 OFFCURVE",
"170.943 -19.188 CURVE"
);
},
{
closed = 0;
nodes = (
"150.443 10.99 LINE",
"172.399 10.99 OFFCURVE",
"189.517 12.391 OFFCURVE",
"207.964 25.648 CURVE"
);
},
{
closed = 0;
nodes = (
"159.776 31.555 LINE",
"165.178 25.073 OFFCURVE",
"163.044 27.729 OFFCURVE",
"166.269 23.661 CURVE"
);
},
{
closed = 0;
nodes = (
"170.693 41.661 LINE",
"176.325 52.678 OFFCURVE",
"180.461 61.707 OFFCURVE",
"186.426 72.74 CURVE"
);
},
{
closed = 0;
nodes = (
"197.54 59.18 LINE",
"209.499 49.104 OFFCURVE",
"221.804 39.417 OFFCURVE",
"234.035 29.661 CURVE"
);
},
{
closed = 0;
nodes = (
"184.949 4.972 LINE",
"184.949 -8.795 OFFCURVE",
"183.518 -22.279 OFFCURVE",
"182.632 -36.02 CURVE"
);
},
{
closed = 0;
nodes = (
"193.556 -24.076 LINE",
"196.295 -38.742 OFFCURVE",
"201.509 -51.878 OFFCURVE",
"208.659 -64.981 CURVE"
);
},
{
closed = 0;
nodes = (
"152.713 -41.289 LINE",
"166.129 -47.342 OFFCURVE",
"176.995 -56.198 OFFCURVE",
"188.17 -65.68 CURVE"
);
},
{
closed = 0;
nodes = (
"177.737 -94.851 LINE",
"190.627 -88.335 OFFCURVE",
"202.57 -80.869 OFFCURVE",
"214.257 -72.337 CURVE"
);
},
{
closed = 0;
nodes = (
"203.168 -87.622 LINE",
"206.183 -101.268 OFFCURVE",
"204.166 -93.774 OFFCURVE",
"209.736 -109.961 CURVE"
);
},
{
closed = 0;
nodes = (
"211.273 -132.328 LINE",
"228.275 -128.318 OFFCURVE",
"244.506 -121.554 OFFCURVE",
"261.33 -116.735 CURVE"
);
},
{
closed = 0;
nodes = (
"236.726 -143.279 LINE",
"236.507 -155.061 OFFCURVE",
"234.248 -167.111 OFFCURVE",
"231.773 -178.637 CURVE"
);
},
{
closed = 0;
nodes = (
"243.607 -169.154 LINE",
"244.862 -179.938 OFFCURVE",
"249.396 -188.054 OFFCURVE",
"254.263 -197.694 CURVE"
);
},
{
closed = 0;
nodes = (
"252.92 -137.657 LINE",
"261.893 -150.051 OFFCURVE",
"269.4 -162.926 OFFCURVE",
"276.826 -176.3 CURVE"
);
},
{
closed = 0;
nodes = (
"295.432 -180.225 LINE",
"305.997 -180.225 OFFCURVE",
"316.456 -180.233 OFFCURVE",
"327.009 -180.972 CURVE"
);
},
{
closed = 0;
nodes = (
"317.941 -176.712 LINE",
"331.769 -174.522 OFFCURVE",
"344.821 -170.285 OFFCURVE",
"357.881 -165.125 CURVE"
);
},
{
closed = 0;
nodes = (
"298.996 -132.674 LINE",
"301.5 -142.929 OFFCURVE",
"304.351 -152.542 OFFCURVE",
"307.911 -162.455 CURVE"
);
},
{
closed = 0;
nodes = (
"274.781 -143.505 LINE",
"286.512 -135.687 OFFCURVE",
"296.684 -126.347 OFFCURVE",
"308.81 -119.058 CURVE"
);
},
{
closed = 0;
nodes = (
"248.172 -84.966 LINE",
"260.525 -94.445 OFFCURVE",
"272.424 -104.307 OFFCURVE",
"285.387 -112.973 CURVE"
);
},
{
closed = 0;
nodes = (
"284.667 -42.406 LINE",
"284.667 -55.384 OFFCURVE",
"283.072 -65.893 OFFCURVE",
"279.386 -78.352 CURVE"
);
},
{
closed = 0;
nodes = (
"228.919 -51.968 LINE",
"242.697 -55.204 OFFCURVE",
"254.716 -60.035 OFFCURVE",
"267.481 -66.358 CURVE"
);
},
{
closed = 0;
nodes = (
"250.989 -34.803 LINE",
"270.907 -32.604 OFFCURVE",
"289.499 -28.403 OFFCURVE",
"308.42 -21.741 CURVE"
);
},
{
closed = 0;
nodes = (
"201.984 8.158 LINE",
"209.74 -6.463 OFFCURVE",
"217.106 -21.437 OFFCURVE",
"227.086 -34.681 CURVE"
);
},
{
closed = 0;
nodes = (
"225.149 5.435 LINE",
"237.837 10.869 OFFCURVE",
"249.376 15.71 OFFCURVE",
"260.145 24.475 CURVE"
);
},
{
closed = 0;
nodes = (
"251.411 7.452 LINE",
"252.669 -2.633 OFFCURVE",
"255.528 -11.249 OFFCURVE",
"260.019 -20.471 CURVE"
);
},
{
closed = 0;
nodes = (
"267.236 -9.757 LINE",
"272.236 -3.535 OFFCURVE",
"276.904 2.75 OFFCURVE",
"281.236 9.455 CURVE"
);
},
{
closed = 0;
nodes = (
"298.557 9.208 LINE",
"309.771 -0.569 OFFCURVE",
"320.995 -10.437 OFFCURVE",
"332.753 -19.54 CURVE"
);
},
{
closed = 0;
nodes = (
"301.267 -38.093 LINE",
"308.076 -54.187 OFFCURVE",
"316.655 -67.58 OFFCURVE",
"327.925 -80.893 CURVE"
);
},
{
closed = 0;
nodes = (
"290.878 -73.212 LINE",
"295.056 -88.387 OFFCURVE",
"300.167 -101.364 OFFCURVE",
"309.945 -113.863 CURVE"
);
},
{
closed = 0;
nodes = (
"320.201 -153.106 LINE",
"324.115 -141.584 OFFCURVE",
"331.519 -131.653 OFFCURVE",
"337.175 -120.865 CURVE"
);
},
{
closed = 0;
nodes = (
"330.559 -99.715 LINE",
"342.629 -104.208 OFFCURVE",
"354.197 -109.61 OFFCURVE",
"366.359 -113.989 CURVE"
);
},
{
closed = 0;
nodes = (
"348.034 -137.657 LINE",
"359.397 -146.453 OFFCURVE",
"371.035 -153.149 OFFCURVE",
"383.35 -160.489 CURVE"
);
},
{
closed = 0;
nodes = (
"381.495 -90.568 LINE",
"381.495 -103.615 OFFCURVE",
"379.496 -115.279 OFFCURVE",
"376.974 -127.952 CURVE"
);
},
{
closed = 0;
nodes = (
"386.633 -120.382 LINE",
"390.46 -134.905 OFFCURVE",
"396.839 -146.813 OFFCURVE",
"405.057 -159.18 CURVE"
);
},
{
closed = 0;
nodes = (
"371.332 -191.189 LINE",
"382.595 -182.864 OFFCURVE",
"394.852 -174.375 OFFCURVE",
"407.504 -168.424 CURVE"
);
},
{
closed = 0;
nodes = (
"398.419 -182.009 LINE",
"400.037 -191.613 OFFCURVE",
"402.846 -199.988 OFFCURVE",
"406.074 -209.346 CURVE"
);
},
{
closed = 0;
nodes = (
"433.949 -169.264 LINE",
"429.267 -179.931 OFFCURVE",
"423.406 -189.85 OFFCURVE",
"417.762 -200.026 CURVE"
);
},
{
closed = 0;
nodes = (
"443.95 -183.854 LINE",
"454.559 -188.958 OFFCURVE",
"463.495 -195.661 OFFCURVE",
"473.648 -201.81 CURVE"
);
},
{
closed = 0;
nodes = (
"398.022 -86.947 LINE",
"405.641 -100.803 OFFCURVE",
"415.948 -112.642 OFFCURVE",
"424.774 -125.692 CURVE"
);
},
{
closed = 0;
nodes = (
"418.448 -94.384 LINE",
"432.479 -89.227 OFFCURVE",
"439.897 -78.622 OFFCURVE",
"452.196 -71.072 CURVE"
);
},
{
closed = 0;
nodes = (
"346.742 -84.15 LINE",
"367.607 -82.313 OFFCURVE",
"383.188 -72.775 OFFCURVE",
"403.06 -67.934 CURVE"
);
},
{
closed = 0;
nodes = (
"442.447 -134.432 LINE",
"461.659 -125.373 OFFCURVE",
"477.783 -117.861 OFFCURVE",
"499.184 -116.313 CURVE"
);
},
{
closed = 0;
nodes = (
"428.455 -148.18 LINE",
"441.92 -151.18 OFFCURVE",
"455.1 -155.079 OFFCURVE",
"467.461 -161.349 CURVE"
);
},
{
closed = 0;
nodes = (
"480.134 -136.038 LINE",
"480.134 -150.368 OFFCURVE",
"478.346 -163.394 OFFCURVE",
"474.012 -177.022 CURVE"
);
},
{
closed = 0;
nodes = (
"487.085 -168.505 LINE",
"489.259 -175.553 OFFCURVE",
"490.857 -181.128 OFFCURVE",
"492.947 -188.398 CURVE"
);
},
{
closed = 0;
nodes = (
"497.297 -136.563 LINE",
"504.343 -149.561 OFFCURVE",
"512.518 -161.898 OFFCURVE",
"520.022 -174.643 CURVE"
);
},
{
closed = 0;
nodes = (
"526.108 -195.327 LINE",
"541.528 -202.398 OFFCURVE",
"556.406 -210.504 OFFCURVE",
"571.784 -217.595 CURVE"
);
},
{
closed = 0;
nodes = (
"542.888 -179.774 LINE",
"560.794 -175.908 OFFCURVE",
"576.797 -166.884 OFFCURVE",
"594.973 -164.298 CURVE"
);
},
{
closed = 0;
nodes = (
"544.297 -133.137 LINE",
"545.521 -143.427 OFFCURVE",
"548.797 -151.992 OFFCURVE",
"553.215 -161.265 CURVE"
);
},
{
closed = 0;
nodes = (
"561.485 -151.256 LINE",
"566.575 -138.183 OFFCURVE",
"572.934 -126.044 OFFCURVE",
"581.112 -114.602 CURVE"
);
},
{
closed = 0;
nodes = (
"513.74 -142.018 LINE",
"525.959 -134.287 OFFCURVE",
"537.653 -125.457 OFFCURVE",
"550.353 -118.564 CURVE"
);
},
{
closed = 0;
nodes = (
"491.898 -86.502 LINE",
"504.634 -93.56 OFFCURVE",
"516.553 -102.37 OFFCURVE",
"527.948 -111.504 CURVE"
);
},
{
closed = 0;
nodes = (
"446.941 -85.687 LINE",
"448.972 -95.475 OFFCURVE",
"451.636 -104.832 OFFCURVE",
"455.166 -114.224 CURVE"
);
},
{
closed = 0;
nodes = (
"466.614 -102.579 LINE",
"471.815 -90.143 OFFCURVE",
"478.915 -79.829 OFFCURVE",
"485.994 -68.281 CURVE"
);
},
{
closed = 0;
nodes = (
"393.784 -39.062 LINE",
"407.817 -43.228 OFFCURVE",
"418.722 -54.139 OFFCURVE",
"430.677 -62.316 CURVE"
);
},
{
closed = 0;
nodes = (
"436.227 -22.818 LINE",
"440.07 -36.67 OFFCURVE",
"446.148 -49.395 OFFCURVE",
"452.283 -62.317 CURVE"
);
},
{
closed = 0;
nodes = (
"474.312 -48.14 LINE",
"487.414 -52.875 OFFCURVE",
"497.434 -59.445 OFFCURVE",
"509.878 -65.386 CURVE"
);
},
{
closed = 0;
nodes = (
"528.613 -41.621 LINE",
"528.613 -54.508 OFFCURVE",
"524.665 -66.806 OFFCURVE",
"522.073 -79.335 CURVE"
);
},
{
closed = 0;
nodes = (
"533.394 -71.21 LINE",
"540.015 -84.888 OFFCURVE",
"546.41 -98.588 OFFCURVE",
"553.074 -112.238 CURVE"
);
},
{
closed = 0;
nodes = (
"571.515 -99.026 LINE",
"586.48 -102.572 OFFCURVE",
"601.162 -107.529 OFFCURVE",
"615.559 -112.943 CURVE"
);
},
{
closed = 0;
nodes = (
"543.213 -36.092 LINE",
"552.95 -49.353 OFFCURVE",
"562.476 -62.727 OFFCURVE",
"571.898 -76.207 CURVE"
);
},
{
closed = 0;
nodes = (
"567.151 -40.398 LINE",
"579.01 -30.617 OFFCURVE",
"586.892 -23.786 OFFCURVE",
"600.541 -17.693 CURVE"
);
},
{
closed = 0;
nodes = (
"581.713 24.075 LINE",
"588.105 12.342 OFFCURVE",
"593.782 0.351 OFFCURVE",
"600.464 -11.221 CURVE"
);
},
{
closed = 0;
nodes = (
"541.439 9.768 LINE",
"554.015 1.695 OFFCURVE",
"565.01 -7.666 OFFCURVE",
"577.904 -15.213 CURVE"
);
},
{
closed = 0;
nodes = (
"491.971 -35.484 LINE",
"510.393 -29.704 OFFCURVE",
"528.328 -22.791 OFFCURVE",
"546.921 -17.62 CURVE"
);
},
{
closed = 0;
nodes = (
"494.407 13.124 LINE",
"495.404 1.724 OFFCURVE",
"496.85 -8.167 OFFCURVE",
"499.763 -19.15 CURVE"
);
},
{
closed = 0;
nodes = (
"447.244 9.732 LINE",
"455.723 -2.437 OFFCURVE",
"464.307 -14.657 OFFCURVE",
"472.099 -27.279 CURVE"
);
},
{
closed = 0;
nodes = (
"432.721 10.352 LINE",
"432.426 -2.885 OFFCURVE",
"428.349 -15.006 OFFCURVE",
"424.403 -27.43 CURVE"
);
},
{
closed = 0;
nodes = (
"376.998 -1.046 LINE",
"390.012 -6.2 OFFCURVE",
"402.387 -12.719 OFFCURVE",
"415.48 -17.579 CURVE"
);
},
{
closed = 0;
nodes = (
"385.479 -20.353 LINE",
"379.278 -33 OFFCURVE",
"372.862 -45.376 OFFCURVE",
"365.688 -57.499 CURVE"
);
},
{
closed = 0;
nodes = (
"348.82 -36.231 LINE",
"350.954 -46.874 OFFCURVE",
"353.401 -57.465 OFFCURVE",
"357.035 -67.709 CURVE"
);
},
{
closed = 0;
nodes = (
"323.506 -46.084 LINE",
"335.627 -34.981 OFFCURVE",
"346.407 -25.853 OFFCURVE",
"361.655 -18.863 CURVE"
);
},
{
closed = 0;
nodes = (
"338.976 21.561 LINE",
"345.914 9.162 OFFCURVE",
"352.563 -3.367 OFFCURVE",
"359.149 -15.95 CURVE"
);
},
{
closed = 0;
nodes = (
"278.333 46.606 LINE",
"290.547 42.913 OFFCURVE",
"301.222 37.872 OFFCURVE",
"312.471 31.805 CURVE"
);
},
{
closed = 0;
nodes = (
"333.769 58.744 LINE",
"333.769 45.774 OFFCURVE",
"329.752 31.489 OFFCURVE",
"326.175 19.153 CURVE"
);
},
{
closed = 0;
nodes = (
"348.796 56.002 LINE",
"357.209 42.045 OFFCURVE",
"366.465 28.96 OFFCURVE",
"375.868 15.696 CURVE"
);
},
{
closed = 0;
nodes = (
"393.126 14.292 LINE",
"412.413 16.211 OFFCURVE",
"430.806 21.377 OFFCURVE",
"449.456 26.572 CURVE"
);
},
{
closed = 0;
nodes = (
"396.419 60.758 LINE",
"398.985 49.705 OFFCURVE",
"401.51 38.647 OFFCURVE",
"403.935 27.562 CURVE"
);
},
{
closed = 0;
nodes = (
"416.639 43.081 LINE",
"422.074 54.835 OFFCURVE",
"428.491 66.06 OFFCURVE",
"434.453 77.548 CURVE"
);
},
{
closed = 0;
nodes = (
"442.864 58.177 LINE",
"454.491 49.442 OFFCURVE",
"466.173 41.034 OFFCURVE",
"477.299 31.649 CURVE"
);
},
{
closed = 0;
nodes = (
"469.555 6.631 LINE",
"481.193 14.276 OFFCURVE",
"493.037 21.414 OFFCURVE",
"505.131 28.291 CURVE"
);
},
{
closed = 0;
nodes = (
"484.617 73.259 LINE",
"485.878 58.409 OFFCURVE",
"494.172 45.174 OFFCURVE",
"501.586 32.554 CURVE"
);
},
{
closed = 0;
nodes = (
"510.848 -6.709 LINE",
"517.125 4.794 OFFCURVE",
"524.55 15.569 OFFCURVE",
"530.651 27.159 CURVE"
);
},
{
closed = 0;
nodes = (
"520.514 49.22 LINE",
"534.827 45.572 OFFCURVE",
"546.915 39.217 OFFCURVE",
"559.799 32.006 CURVE"
);
},
{
closed = 0;
nodes = (
"575.316 56.319 LINE",
"575.207 43.973 OFFCURVE",
"575.861 31.861 OFFCURVE",
"572.792 19.846 CURVE"
);
},
{
closed = 0;
nodes = (
"536.592 65.792 LINE",
"558.087 69.017 OFFCURVE",
"577.6 76.787 OFFCURVE",
"598.119 83.799 CURVE"
);
},
{
closed = 0;
nodes = (
"591.685 60.667 LINE",
"599.447 49.246 OFFCURVE",
"607.303 38.572 OFFCURVE",
"613.668 26.436 CURVE"
);
},
{
closed = 0;
nodes = (
"540.656 114.69 LINE",
"542.928 101.278 OFFCURVE",
"546.432 88.583 OFFCURVE",
"550.315 75.595 CURVE"
);
},
{
closed = 0;
nodes = (
"561.206 94.023 LINE",
"567.359 104.081 OFFCURVE",
"573.987 113.833 OFFCURVE",
"578.745 124.64 CURVE"
);
},
{
closed = 0;
nodes = (
"587.88 108.947 LINE",
"603.446 95.5 OFFCURVE",
"597.581 99.877 OFFCURVE",
"604.601 94.719 CURVE"
);
},
{
closed = 0;
nodes = (
"295.38 62.044 LINE",
"314.629 65.078 OFFCURVE",
"332.727 71.393 OFFCURVE",
"351.392 76.916 CURVE"
);
},
{
closed = 0;
nodes = (
"242.416 68.338 LINE",
"246.973 55.429 OFFCURVE",
"255.431 43.562 OFFCURVE",
"261.104 30.97 CURVE"
);
},
{
closed = 0;
nodes = (
"234.764 99.876 LINE",
"234.764 87.718 OFFCURVE",
"230.682 77.115 OFFCURVE",
"227.229 65.617 CURVE"
);
},
{
closed = 0;
nodes = (
"200.573 86.735 LINE",
"209.15 86.263 OFFCURVE",
"213.633 82.725 OFFCURVE",
"220.794 78.131 CURVE"
);
},
{
closed = 0;
nodes = (
"221.771 116.317 LINE",
"234.819 116.317 OFFCURVE",
"245.611 121.47 OFFCURVE",
"258.142 124.36 CURVE"
);
},
{
closed = 0;
nodes = (
"250.367 153.461 LINE",
"262.848 145.464 OFFCURVE",
"275.091 136.278 OFFCURVE",
"286.187 126.478 CURVE"
);
},
{
closed = 0;
nodes = (
"251.041 104.859 LINE",
"259.123 92.793 OFFCURVE",
"266.381 80.251 OFFCURVE",
"274.239 68.042 CURVE"
);
},
{
closed = 0;
nodes = (
"299.972 108.741 LINE",
"300.745 87.59 OFFCURVE",
"299.824 97.581 OFFCURVE",
"302.412 78.742 CURVE"
);
},
{
closed = 0;
nodes = (
"271.315 101.777 LINE",
"284.444 112.179 OFFCURVE",
"295.614 120.014 OFFCURVE",
"311.439 125.668 CURVE"
);
},
{
closed = 0;
nodes = (
"287.855 168.619 LINE",
"294.397 154.535 OFFCURVE",
"300.522 141.202 OFFCURVE",
"309.268 128.404 CURVE"
);
},
{
closed = 0;
nodes = (
"282.113 199.138 LINE",
"282.113 186.409 OFFCURVE",
"281.452 174.993 OFFCURVE",
"278.273 162.793 CURVE"
);
},
{
closed = 0;
nodes = (
"299.185 202.665 LINE",
"307.296 190.122 OFFCURVE",
"314.825 177.627 OFFCURVE",
"321.862 164.502 CURVE"
);
},
{
closed = 0;
nodes = (
"327.237 143.417 LINE",
"341.799 140.249 OFFCURVE",
"355.12 135.675 OFFCURVE",
"368.769 129.233 CURVE"
);
},
{
closed = 0;
nodes = (
"317.858 91.095 LINE",
"322.869 102.729 OFFCURVE",
"329.815 113.05 OFFCURVE",
"336.333 123.894 CURVE"
);
},
{
closed = 0;
nodes = (
"344.403 107.448 LINE",
"356.674 97.786 OFFCURVE",
"369.43 88.86 OFFCURVE",
"381.559 79.023 CURVE"
);
},
{
closed = 0;
nodes = (
"368.396 52.086 LINE",
"381.668 59.912 OFFCURVE",
"393.508 68.99 OFFCURVE",
"407.868 74.806 CURVE"
);
},
{
closed = 0;
nodes = (
"385.923 123.503 LINE",
"392.344 109.246 OFFCURVE",
"400.073 95.665 OFFCURVE",
"406.238 81.312 CURVE"
);
},
{
closed = 0;
nodes = (
"425.976 97.913 LINE",
"439.829 94.033 OFFCURVE",
"451.884 89.704 OFFCURVE",
"462.863 80.548 CURVE"
);
},
{
closed = 0;
nodes = (
"477.609 105.423 LINE",
"477.467 90.183 OFFCURVE",
"476.564 85.163 OFFCURVE",
"474.366 69.133 CURVE"
);
},
{
closed = 0;
nodes = (
"439.605 111.885 LINE",
"459.072 116.635 OFFCURVE",
"478.879 123.691 OFFCURVE",
"498.871 125.647 CURVE"
);
},
{
closed = 0;
nodes = (
"493.114 106.98 LINE",
"498.012 101.393 OFFCURVE",
"501.713 95.367 OFFCURVE",
"505.771 89.162 CURVE"
);
},
{
closed = 0;
nodes = (
"513.18 102.175 LINE",
"526.578 111.991 OFFCURVE",
"540.042 121.666 OFFCURVE",
"553.699 131.119 CURVE"
);
},
{
closed = 0;
nodes = (
"532.805 170.944 LINE",
"537.395 157.972 OFFCURVE",
"541.516 145.076 OFFCURVE",
"546.908 132.38 CURVE"
);
},
{
closed = 0;
nodes = (
"489.289 154.543 LINE",
"502.812 146.935 OFFCURVE",
"514.22 136.845 OFFCURVE",
"527.827 129.22 CURVE"
);
},
{
closed = 0;
nodes = (
"445.366 159.656 LINE",
"446.093 147.264 OFFCURVE",
"447.839 135.111 OFFCURVE",
"450.819 123.021 CURVE"
);
},
{
closed = 0;
nodes = (
"395.595 155.066 LINE",
"406.093 142.655 OFFCURVE",
"415.281 130.276 OFFCURVE",
"422.017 115.381 CURVE"
);
},
{
closed = 0;
nodes = (
"379.406 152.181 LINE",
"379.406 140.667 OFFCURVE",
"377.391 129.64 OFFCURVE",
"375.827 118.225 CURVE"
);
},
{
closed = 0;
nodes = (
"346.175 158.732 LINE",
"365.207 161.311 OFFCURVE",
"383.536 167.738 OFFCURVE",
"402.151 172.545 CURVE"
);
},
{
closed = 0;
nodes = (
"347.377 206.969 LINE",
"348.356 194.744 OFFCURVE",
"351.143 183.425 OFFCURVE",
"355.189 171.846 CURVE"
);
},
{
closed = 0;
nodes = (
"366.917 188.658 LINE",
"369.881 200.474 OFFCURVE",
"376.488 211.015 OFFCURVE",
"384.796 219.945 CURVE"
);
},
{
closed = 0;
nodes = (
"392.414 205.456 LINE",
"405.296 196.722 OFFCURVE",
"417.615 187.516 OFFCURVE",
"429.843 177.915 CURVE"
);
},
{
closed = 0;
nodes = (
"416.448 150.625 LINE",
"428.915 158.016 OFFCURVE",
"440.147 166.535 OFFCURVE",
"453.11 173.168 CURVE"
);
},
{
closed = 0;
nodes = (
"462.098 138.337 LINE",
"466.884 150.518 OFFCURVE",
"473.904 161.562 OFFCURVE",
"480.151 173.083 CURVE"
);
},
{
closed = 0;
nodes = (
"569.296 145.38 LINE",
"583.83 139.58 OFFCURVE",
"597.998 133.199 OFFCURVE",
"612.39 127.107 CURVE"
);
},
{
closed = 0;
nodes = (
"584.453 157.602 LINE",
"594.99 162.188 OFFCURVE",
"600.407 164.797 OFFCURVE",
"611.161 170.024 CURVE"
);
},
{
closed = 0;
nodes = (
"590.196 207.975 LINE",
"592.542 196.858 OFFCURVE",
"594.319 186.123 OFFCURVE",
"598.781 175.694 CURVE"
);
},
{
closed = 0;
nodes = (
"543.586 205.555 LINE",
"550.928 191.519 OFFCURVE",
"558.748 179.237 OFFCURVE",
"567.757 166.164 CURVE"
);
},
{
closed = 0;
nodes = (
"527.213 203.95 LINE",
"526.354 191.752 OFFCURVE",
"523.91 180.12 OFFCURVE",
"520.965 168.241 CURVE"
);
},
{
closed = 0;
nodes = (
"472.547 193.365 LINE",
"486.276 188.788 OFFCURVE",
"498.341 181.238 OFFCURVE",
"511.907 176.763 CURVE"
);
},
{
closed = 0;
nodes = (
"486.7 207.092 LINE",
"508.373 210.296 OFFCURVE",
"524.808 219.804 OFFCURVE",
"544.843 226.773 CURVE"
);
},
{
closed = 0;
nodes = (
"535.482 255.203 LINE",
"551.215 247.664 OFFCURVE",
"563.336 235.983 OFFCURVE",
"576.612 224.799 CURVE"
);
},
{
closed = 0;
nodes = (
"578.651 269.682 LINE",
"584.744 255.712 OFFCURVE",
"589.305 241.248 OFFCURVE",
"595.45 227.31 CURVE"
);
},
{
closed = 0;
nodes = (
"561.775 198.555 LINE",
"574.845 209.08 OFFCURVE",
"588.752 218.45 OFFCURVE",
"603.887 225.694 CURVE"
);
},
{
closed = 0;
nodes = (
"570.31 301.735 LINE",
"570.743 287.454 OFFCURVE",
"570.266 273.845 OFFCURVE",
"568.554 259.681 CURVE"
);
},
{
closed = 0;
nodes = (
"535.53 306.334 LINE",
"548.824 308.943 OFFCURVE",
"560.679 313.078 OFFCURVE",
"573.474 317.513 CURVE"
);
},
{
closed = 0;
nodes = (
"544.135 342.462 LINE",
"544.135 332.386 OFFCURVE",
"545.947 327.431 OFFCURVE",
"551.18 318.757 CURVE"
);
},
{
closed = 0;
nodes = (
"510.974 345.602 LINE",
"517.649 348.839 OFFCURVE",
"523.024 353.133 OFFCURVE",
"529.127 357.315 CURVE"
);
},
{
closed = 0;
nodes = (
"472.358 405.787 LINE",
"472.083 395.802 OFFCURVE",
"466.163 388.674 OFFCURVE",
"459.94 381.286 CURVE"
);
},
{
closed = 0;
nodes = (
"446.042 388.531 LINE",
"446.628 377.973 OFFCURVE",
"446.512 378.357 OFFCURVE",
"449.407 368.374 CURVE"
);
},
{
closed = 0;
nodes = (
"411.371 371.392 LINE",
"415.046 366.638 OFFCURVE",
"418.246 362.431 OFFCURVE",
"421.312 357.187 CURVE"
);
},
{
closed = 0;
nodes = (
"393.328 345.803 LINE",
"395.56 337.023 OFFCURVE",
"400.877 329.625 OFFCURVE",
"405.991 322.225 CURVE"
);
},
{
closed = 0;
nodes = (
"367.354 294.701 LINE",
"379.33 303.483 OFFCURVE",
"392.761 309.981 OFFCURVE",
"405.891 316.832 CURVE"
);
},
{
closed = 0;
nodes = (
"351.109 293.75 LINE",
"357.288 282.745 OFFCURVE",
"365.029 273.034 OFFCURVE",
"373.276 263.526 CURVE"
);
},
{
closed = 0;
nodes = (
"334.452 269.822 LINE",
"340.357 255.699 OFFCURVE",
"345.572 239.587 OFFCURVE",
"355.924 228.14 CURVE"
);
},
{
closed = 0;
nodes = (
"312.153 239.411 LINE",
"318.987 234.989 OFFCURVE",
"325.725 230.453 OFFCURVE",
"332.653 226.179 CURVE"
);
},
{
closed = 0;
nodes = (
"320.79 199.327 LINE",
"332.874 207.171 OFFCURVE",
"345.035 214.028 OFFCURVE",
"357.878 220.5 CURVE"
);
},
{
closed = 0;
nodes = (
"376.394 241.909 LINE",
"389.825 237.977 OFFCURVE",
"400.431 232.282 OFFCURVE",
"412.962 226.307 CURVE"
);
},
{
closed = 0;
nodes = (
"389.957 256.265 LINE",
"409.927 258.475 OFFCURVE",
"427.8 266.037 OFFCURVE",
"447.099 270.732 CURVE"
);
},
{
closed = 0;
nodes = (
"393.299 304.595 LINE",
"398.211 293.728 OFFCURVE",
"401.022 282.393 OFFCURVE",
"404.272 270.972 CURVE"
);
},
{
closed = 0;
nodes = (
"413.444 284.356 LINE",
"418.85 296.284 OFFCURVE",
"424.647 308 OFFCURVE",
"430.585 319.666 CURVE"
);
},
{
closed = 0;
nodes = (
"422.641 339.587 LINE",
"435.889 334.497 OFFCURVE",
"447.942 328.246 OFFCURVE",
"460.539 321.703 CURVE"
);
},
{
closed = 0;
nodes = (
"439.34 351.259 LINE",
"457.369 357.951 OFFCURVE",
"476 362.489 OFFCURVE",
"494.781 366.569 CURVE"
);
},
{
closed = 0;
nodes = (
"476.106 347.893 LINE",
"475.102 329.382 OFFCURVE",
"475.2 330.232 OFFCURVE",
"470.862 312.548 CURVE"
);
},
{
closed = 0;
nodes = (
"440.041 303.039 LINE",
"453.102 294.684 OFFCURVE",
"465.85 285.871 OFFCURVE",
"479.178 277.989 CURVE"
);
},
{
closed = 0;
nodes = (
"481.52 319.371 LINE",
"483.721 302.736 OFFCURVE",
"489.574 287 OFFCURVE",
"498.694 272.955 CURVE"
);
},
{
closed = 0;
nodes = (
"494.347 350.888 LINE",
"502.869 338.231 OFFCURVE",
"511.505 325.627 OFFCURVE",
"518.89 312.26 CURVE"
);
},
{
closed = 0;
nodes = (
"519.659 291.096 LINE",
"532.728 287.429 OFFCURVE",
"543.417 282.353 OFFCURVE",
"555.586 276.33 CURVE"
);
},
{
closed = 0;
nodes = (
"533.095 272.919 LINE",
"522.261 262.411 OFFCURVE",
"515.389 252.011 OFFCURVE",
"509.728 238.338 CURVE"
);
},
{
closed = 0;
nodes = (
"493.034 256.507 LINE",
"495.367 244.032 OFFCURVE",
"498.579 231.951 OFFCURVE",
"503.213 220.131 CURVE"
);
},
{
closed = 0;
nodes = (
"463.729 246.025 LINE",
"476.208 253.78 OFFCURVE",
"488.063 262.186 OFFCURVE",
"500.265 270.342 CURVE"
);
},
{
closed = 0;
nodes = (
"444.527 253.105 LINE",
"453.733 238.793 OFFCURVE",
"463.228 224.769 OFFCURVE",
"473.265 211.018 CURVE"
);
},
{
closed = 0;
nodes = (
"427.244 249.679 LINE",
"427.244 235.016 OFFCURVE",
"424.996 220.449 OFFCURVE",
"423.251 205.916 CURVE"
);
},
{
closed = 0;
nodes = (
"432.516 221.858 LINE",
"437.431 206.17 OFFCURVE",
"443.705 191.247 OFFCURVE",
"453.687 178.148 CURVE"
);
}
);
width = 600;
}
);
unicode = 0056;
},
